<?xml version="1.0" encoding="UTF-8"?>
<svg width="200px" height="200px" viewBox="0 0 200 200" version="1.1" xmlns="http://www.w3.org/2000/svg" xmlns:xlink="http://www.w3.org/1999/xlink">
    <!-- Generator: Sketch 54.1 (76490) - https://sketchapp.com -->
    <title>group</title>
    <desc>Created with Sketch.</desc>
    <g id="Final-Design" stroke="none" stroke-width="1" fill="none" fill-rule="evenodd">
        <g id="Community" transform="translate(-807.000000, -681.000000)" fill="#000000" fill-rule="nonzero">
            <g id="group" transform="translate(807.000000, 681.000000)">
                <path d="M64.5296875,9.98242188 C63.8148437,8.33398438 61.8988281,7.57695313 60.2503906,8.29179688 C56.709375,9.82734375 53.21875,11.5898438 49.8757812,13.5296875 C48.3210937,14.4320313 47.7929687,16.4226563 48.6949219,17.9769531 C49.2988281,19.0175781 50.3898437,19.5984375 51.5117187,19.5984375 C52.0664062,19.5984375 52.628125,19.45625 53.1421875,19.1582031 C56.2667969,17.3445312 59.5292969,15.6976562 62.8386719,14.2625 C64.4875,13.5472656 65.2445312,11.63125 64.5296875,9.98242188 Z" id="Path"></path>
                <path d="M128.521875,4.20585937 C124.81875,3.10585938 121.009766,2.21328125 117.200391,1.553125 C115.43125,1.24648437 113.745313,2.43242187 113.438672,4.203125 C113.13125,5.97421875 114.317578,7.65820312 116.088281,7.96523437 C119.648438,8.58242187 123.207813,9.41640625 126.668359,10.4441406 C126.977734,10.5359375 127.289453,10.5796875 127.596484,10.5796875 C128.999609,10.5796875 130.294141,9.66484375 130.714453,8.25117187 C131.226172,6.52890625 130.244141,4.71757813 128.521875,4.20585937 Z" id="Path"></path>
                <path d="M105.651563,0.236328125 C103.783203,0.13203125 101.881641,0.07890625 100.000781,0.07890625 C99.996875,0.07890625 99.99375,0.07890625 99.9898438,0.07890625 C98.0097656,0.07890625 96.0046875,0.1375 94.03125,0.254296875 C92.2375,0.36015625 90.86875,1.9 90.9746094,3.69375 C91.0761719,5.42304688 92.5097656,6.75625 94.2191406,6.75625 C94.2835938,6.75625 94.3484375,6.7546875 94.4136719,6.75039063 C96.2605469,6.64140625 98.1367188,6.58632813 99.9902344,6.58632813 C99.99375,6.58632813 99.996875,6.58632813 100,6.58632813 C101.761328,6.58632813 103.540625,6.6359375 105.288672,6.73359375 C107.092188,6.83632813 108.61875,5.46054687 108.71875,3.66640625 C108.81875,1.87226563 107.445703,0.33671875 105.651563,0.236328125 Z" id="Path"></path>
                <path d="M199.308984,88.2667969 C198.857031,84.4253906 198.174219,80.5734375 197.279687,76.8183594 C196.862891,75.0699219 195.108594,73.9894531 193.360156,74.4070312 C191.612109,74.8234375 190.532812,76.5785156 190.949219,78.3265625 C191.785547,81.8363281 192.423437,85.4367187 192.846484,89.0277344 C193.041406,90.6832031 194.446875,91.9015625 196.073437,91.9015625 C196.200781,91.9015625 196.328906,91.8941406 196.458203,91.8789062 C198.242187,91.6683594 199.519141,90.0515625 199.308984,88.2667969 Z" id="Path"></path>
                <path d="M194.909375,119.219531 C193.162891,118.807422 191.407813,119.889063 190.994922,121.639063 C190.164453,125.155469 189.117188,128.660547 187.88125,132.056641 C187.266797,133.745313 188.1375,135.6125 189.826563,136.226953 C190.19375,136.360938 190.569141,136.423828 190.939063,136.423828 C192.268359,136.423828 193.516016,135.603125 193.996875,134.281641 C195.319922,130.647266 196.440234,126.896484 197.328906,123.133203 C197.741406,121.384766 196.657813,119.632031 194.909375,119.219531 Z" id="Path"></path>
                <path d="M149.860547,13.378125 C146.508203,11.4460938 143.009375,9.69335938 139.460547,8.16796875 C137.808594,7.45625 135.895703,8.22109375 135.186328,9.87226563 C134.476953,11.5230469 135.240234,13.4367188 136.891406,14.1464844 C140.208203,15.5722656 143.478125,17.2109375 146.611719,19.0164063 C147.124219,19.3113281 147.682031,19.4515625 148.233594,19.4515625 C149.358984,19.4515625 150.453516,18.8667969 151.055469,17.821875 C151.952734,16.2648438 151.417969,14.2753906 149.860547,13.378125 Z" id="Path"></path>
                <path d="M12.1496094,132.144141 C10.9117188,128.752734 9.8609375,125.251172 9.02734375,121.735938 C8.61289063,119.9875 6.86289063,118.90625 5.11054688,119.320703 C3.36210938,119.735547 2.28085938,121.489063 2.6953125,123.2375 C3.5875,126.999219 4.71132813,130.746875 6.03671875,134.376563 C6.51835938,135.696484 7.765625,136.515234 9.09335938,136.515234 C9.46367188,136.515234 9.84101563,136.451562 10.2089844,136.316797 C11.896875,135.7 12.7660156,133.832031 12.1496094,132.144141 Z" id="Path"></path>
                <path d="M86.2554688,4.246875 C85.9425781,2.47695313 84.25625,1.29648437 82.4851563,1.60859375 C78.6769531,2.28125 74.8707031,3.18632813 71.1714844,4.29804688 C69.4503906,4.815625 68.4746094,6.63007812 68.9921875,8.35078125 C69.415625,9.759375 70.7082031,10.66875 72.1070313,10.66875 C72.4171875,10.66875 72.7328125,10.6242188 73.0453125,10.5300781 C76.5011719,9.49140625 80.0582031,8.64570313 83.6171875,8.01679688 C85.3871094,7.7046875 86.5683594,6.01640625 86.2554688,4.246875 Z" id="Path"></path>
                <path d="M196.746094,96.6199219 C194.948828,96.6199219 193.492578,98.0765625 193.492578,99.8734375 L193.492578,100.079297 C193.492578,103.703516 193.282813,107.355469 192.869531,110.933984 C192.663281,112.719141 193.942969,114.333594 195.727734,114.539844 C195.855078,114.554688 195.980469,114.561719 196.105859,114.561719 C197.735547,114.561719 199.142188,113.339453 199.333984,111.681641 C199.776172,107.85625 200.000391,103.952344 200.000391,100.079688 L200.000391,99.8738281 C199.999609,98.0765625 198.542969,96.6199219 196.746094,96.6199219 Z" id="Path"></path>
                <path d="M120.051172,194.800391 C119.740625,193.030859 118.053125,191.847656 116.283984,192.158984 C112.734375,192.782031 109.101563,193.204297 105.486328,193.413281 C103.692578,193.517187 102.322266,195.055469 102.426172,196.849219 C102.525781,198.579297 103.960547,199.914844 105.671484,199.914844 C105.734375,199.914844 105.798828,199.913281 105.8625,199.909375 C109.727344,199.685937 113.612891,199.234766 117.409375,198.567578 C119.179297,198.257031 120.3625,196.570703 120.051172,194.800391 Z" id="Path"></path>
                <path d="M94.6113281,193.419141 C90.9957031,193.213672 87.3628906,192.795313 83.8136719,192.176172 C82.0402344,191.866797 80.3578125,193.051953 80.0484375,194.821875 C79.7394531,196.592188 80.9242187,198.277734 82.6941406,198.586719 C86.4910156,199.249219 90.3761719,199.696875 94.2425781,199.916406 C94.3050781,199.919922 94.3675781,199.921484 94.4300781,199.921484 C96.1425781,199.921484 97.5777344,198.583203 97.6757812,196.852344 C97.7773437,195.057813 96.4054687,193.521094 94.6113281,193.419141 Z" id="Path"></path>
                <path d="M73.2359375,189.685547 C69.775,188.653516 66.3371094,187.404297 63.0175781,185.972656 C61.3679687,185.261719 59.4527344,186.021875 58.7417969,187.672656 C58.0296875,189.322656 58.7910156,191.237109 60.4414062,191.948438 C63.9941406,193.480078 67.6730469,194.816406 71.3769531,195.921094 C71.6871094,196.013672 72,196.057813 72.3082031,196.057813 C73.7097656,196.057813 75.0039062,195.144531 75.4253906,193.733203 C75.9378906,192.011328 74.9582031,190.199219 73.2359375,189.685547 Z" id="Path"></path>
                <path d="M6.55820313,74.7054687 C4.80898438,74.2933594 3.05703125,75.3792969 2.64609375,77.1292969 C1.7640625,80.8867188 1.09335938,84.740625 0.653515625,88.5835938 C0.448828125,90.36875 1.73046875,91.9816406 3.51601563,92.1859375 C3.6421875,92.2003906 3.76679688,92.2074219 3.890625,92.2074219 C5.521875,92.2074219 6.92929688,90.9832031 7.11875,89.3238281 C7.53007813,85.73125 8.15664063,82.1289062 8.98164063,78.6167969 C9.39257812,76.8671875 8.3078125,75.1164062 6.55820313,74.7054687 Z" id="Path"></path>
                <path d="M141.347656,187.630859 C140.634375,185.981641 138.719922,185.222656 137.069922,185.935937 C133.752734,187.369922 130.317578,188.621875 126.859766,189.657422 C125.138281,190.173047 124.160938,191.986328 124.676172,193.707812 C125.098047,195.118359 126.391797,196.029297 127.792187,196.029297 C128.101172,196.029297 128.415234,195.984766 128.726953,195.891797 C132.427734,194.783594 136.103516,193.44375 139.653125,191.908984 C141.301562,191.195703 142.060937,189.280078 141.347656,187.630859 Z" id="Path"></path>
                <path d="M7.14179687,111.032812 C6.72460938,107.455078 6.51132813,103.803125 6.5078125,100.178516 C6.50625,98.3824219 5.04960937,96.928125 3.25429687,96.928125 C3.25351562,96.928125 3.25234375,96.928125 3.25078125,96.928125 C1.45390625,96.9300781 -0.001171875,98.3878906 0.000390625,100.185156 C0.004296875,104.058203 0.232421875,107.961719 0.678515625,111.786719 C0.871875,113.44375 2.27773437,114.663672 3.90585938,114.663672 C4.03164062,114.663672 4.15898438,114.656641 4.28710938,114.641797 C6.071875,114.433594 7.35,112.817969 7.14179687,111.032812 Z" id="Path"></path>
                <path d="M52.003125,45.9109375 C51.4792969,44.3765625 49.8085937,43.5574219 48.2769531,44.0808594 C46.7421875,44.6046875 45.9230469,46.2726562 46.446875,47.8074219 C47.0722656,49.6394531 47.3890625,51.5613281 47.3890625,53.5183594 L47.3890625,61.3585938 C47.3890625,61.9347656 46.9207031,62.403125 46.3445312,62.403125 L8.7515625,62.403125 C8.17539062,62.403125 7.70703125,61.9347656 7.70703125,61.3585938 L7.70703125,53.5183594 C7.70703125,48.4691406 9.87539062,43.6855469 13.5925781,40.3519531 C16.7375,44.5285156 21.7355469,47.2347656 27.3546875,47.2347656 C36.8496094,47.2347656 44.5738281,39.5101563 44.5738281,30.015625 C44.5738281,20.5210937 36.8496094,12.7960938 27.3554687,12.7960938 C17.8613281,12.7960938 10.1363281,20.5207031 10.1363281,30.0152344 C10.1363281,31.7421875 10.3945312,33.4089844 10.8699219,34.9828125 C5.19335937,39.4328125 1.83671875,46.2683594 1.83671875,53.5183594 L1.83671875,61.3585938 C1.83671875,65.1710938 4.93867187,68.2738281 8.75234375,68.2738281 L46.3453125,68.2738281 C50.1585937,68.2738281 53.2609375,65.171875 53.2609375,61.3582031 L53.2609375,53.5179688 C53.2601562,50.9144531 52.8375,48.3550781 52.003125,45.9109375 Z M27.3554688,18.6667969 C33.6128906,18.6667969 38.7039063,23.7574219 38.7039063,30.0152344 C38.7039063,36.2730469 33.6132812,41.3636719 27.3554688,41.3636719 C21.0984375,41.3636719 16.0074219,36.2730469 16.0074219,30.0152344 C16.0074219,23.7574219 21.0980469,18.6667969 27.3554688,18.6667969 Z" id="Shape"></path>
                <path d="M196.905859,45.9109375 C196.382031,44.3765625 194.712109,43.5574219 193.179687,44.0808594 C191.644922,44.6046875 190.825781,46.2726562 191.349609,47.8074219 C191.974609,49.6394531 192.291797,51.5613281 192.291797,53.5183594 L192.291797,61.3585937 C192.291797,61.9347656 191.823437,62.403125 191.247266,62.403125 L153.654297,62.403125 C153.078125,62.403125 152.609766,61.9347656 152.609766,61.3585937 L152.609766,53.5183594 C152.609766,48.4691406 154.778125,43.6855469 158.495313,40.3519531 C161.640234,44.5285156 166.638281,47.2347656 172.257422,47.2347656 C181.751953,47.2347656 189.476562,39.5101562 189.476562,30.015625 C189.476562,20.5210937 181.751953,12.7964844 172.257422,12.7964844 C162.7625,12.7964844 155.038672,20.5210937 155.038672,30.015625 C155.038672,31.7425781 155.296875,33.409375 155.772266,34.9832031 C150.096094,39.4332031 146.739453,46.2683594 146.739453,53.5183594 L146.739453,61.3585937 C146.739453,65.171875 149.841406,68.2742187 153.655078,68.2742187 L191.248047,68.2742187 C195.061328,68.2742187 198.163672,65.1722656 198.163672,61.3585937 L198.163672,53.5183594 C198.162891,50.9144531 197.740234,48.3550781 196.905859,45.9109375 Z M172.257422,18.6667969 C178.514844,18.6667969 183.605859,23.7574219 183.605859,30.0152344 C183.605859,36.2730469 178.515234,41.3636719 172.257422,41.3636719 C166.000391,41.3636719 160.909375,36.2730469 160.909375,30.0152344 C160.909375,23.7574219 166.000391,18.6667969 172.257422,18.6667969 Z" id="Shape"></path>
                <path d="M196.905469,165.000391 C196.382031,163.465234 194.711719,162.645703 193.179688,163.169922 C191.644922,163.69375 190.825781,165.361719 191.349609,166.896484 C191.974609,168.728516 192.291797,170.65 192.291797,172.607422 L192.291797,180.447656 C192.291797,181.023828 191.823437,181.492188 191.247266,181.492188 L153.654297,181.492188 C153.078125,181.492188 152.609766,181.023828 152.609766,180.447656 L152.609766,172.607422 C152.609766,167.558203 154.778125,162.774609 158.495312,159.441016 C161.640234,163.617578 166.638281,166.323828 172.257422,166.323828 C181.751953,166.323828 189.476562,158.599219 189.476562,149.104688 C189.476562,139.609766 181.751953,131.885547 172.257422,131.885547 C162.7625,131.885547 155.038672,139.610156 155.038672,149.104688 C155.038672,150.831641 155.296875,152.498438 155.772266,154.072266 C150.095703,158.522266 146.739062,165.357813 146.739062,172.607813 L146.739062,180.448047 C146.739062,184.261328 149.841016,187.363672 153.654687,187.363672 L191.247656,187.363672 C195.060938,187.363672 198.163281,184.261719 198.163281,180.448047 L198.163281,172.607813 C198.1625,170.003906 197.739844,167.444531 196.905469,165.000391 Z M172.257422,137.755859 C178.514844,137.755859 183.605859,142.846484 183.605859,149.104297 C183.605859,155.362109 178.515234,160.452734 172.257422,160.452734 C166.000391,160.452734 160.909375,155.362109 160.909375,149.104297 C160.909375,142.846484 166.000391,137.755859 172.257422,137.755859 Z" id="Shape"></path>
                <path d="M52.003125,165.000391 C51.4792969,163.465234 49.8085937,162.645703 48.2773437,163.169922 C46.7425781,163.69375 45.9234375,165.361719 46.4472656,166.896484 C47.0726562,168.728516 47.3894531,170.65 47.3894531,172.607422 L47.3894531,180.447656 C47.3894531,181.023828 46.9210937,181.492188 46.3449219,181.492188 L8.75195312,181.492188 C8.17578125,181.492188 7.70742187,181.023828 7.70742187,180.447656 L7.70742187,172.607422 C7.70742187,167.558203 9.87578125,162.774609 13.5929687,159.441016 C16.7378906,163.617578 21.7359375,166.323828 27.3550781,166.323828 C36.8496094,166.323828 44.5742187,158.599219 44.5742187,149.104688 C44.5742187,139.609766 36.8496094,131.885547 27.3550781,131.885547 C17.8605469,131.885547 10.1363281,139.610156 10.1363281,149.104688 C10.1363281,150.831641 10.3945312,152.498438 10.8699219,154.072266 C5.19335937,158.522266 1.83671875,165.357813 1.83671875,172.607813 L1.83671875,180.448047 C1.83671875,184.261328 4.9390625,187.363672 8.75234375,187.363672 L46.3453125,187.363672 C50.1585937,187.363672 53.2609375,184.261719 53.2609375,180.448047 L53.2609375,172.607813 C53.2601562,170.003906 52.8375,167.444531 52.003125,165.000391 Z M27.3554688,137.755859 C33.6128906,137.755859 38.7039063,142.846484 38.7039063,149.104297 C38.7039063,155.362109 33.6132812,160.452734 27.3554688,160.452734 C21.0984375,160.452734 16.0074219,155.362109 16.0074219,149.104297 C16.0074219,142.846484 21.0980469,137.755859 27.3554688,137.755859 Z" id="Shape"></path>
                <path d="M127.765234,67.6425781 L96.5285156,67.6425781 C83.0304687,67.6425781 71.8011719,77.5160156 69.66875,90.4191406 L68.603125,90.4191406 C56.4277344,90.4191406 46.5222656,100.605469 46.5222656,113.126172 C46.5222656,121.946875 51.40625,129.846484 59.0730469,133.609766 C62.8414062,142.737891 74.5988281,147.116016 75.1195313,147.305859 C75.4476563,147.425781 75.7875,147.483594 76.1242188,147.483594 C76.9269531,147.483594 77.7125,147.153516 78.2785156,146.542578 C79.0816406,145.675391 79.2863281,144.410938 78.7976563,143.334766 C77.6160156,140.732422 76.9515625,138.219141 76.8109375,135.833203 L93.21875,135.833203 C102.294141,135.833203 110.105078,130.171875 113.495703,122.104297 L118.169531,122.104297 C118.087109,125.31875 117.214844,128.716406 115.563281,132.239844 C115.060937,133.310938 115.251172,134.579297 116.044922,135.455859 C116.611719,136.081641 117.407031,136.421094 118.221484,136.421094 C118.548828,136.421094 118.878516,136.366406 119.198047,136.253516 C119.85,136.023438 134.668359,130.679688 139.216016,119.580469 C148.845703,115.126172 154.996094,105.568359 154.996094,94.8738281 C154.996094,79.8582031 142.780469,67.6425781 127.765234,67.6425781 Z M135.791406,114.667969 C134.996484,114.991016 134.374609,115.633984 134.112891,116.451172 C132.465625,121.594141 127.451172,125.422656 123.314062,127.811719 C124.025,124.751563 124.220312,121.758203 123.894141,118.859375 C123.726172,117.367578 122.476172,116.232813 120.975,116.232813 L96.5289063,116.232813 C93.7179687,116.232813 91.034375,115.683594 88.5746094,114.691016 C87.4855469,114.251563 86.2414062,114.491016 85.4109375,115.321484 L85.3691406,115.363281 C83.8929687,116.839453 84.4089844,119.338281 86.3441406,120.123047 C89.4914062,121.398828 92.9289063,122.103516 96.5285156,122.103516 L106.920703,122.103516 C104.046094,126.821094 98.9796875,129.961328 93.2183594,129.961328 L73.9539062,129.961328 C72.465625,129.961328 71.2023437,131.075781 71.0382812,132.555078 C70.8160156,134.560547 70.8839844,136.618359 71.2398437,138.717187 C68.3902344,136.835938 65.3484375,134.117578 64.2304688,130.636719 C63.959375,129.792188 63.3609375,129.083594 62.5429687,128.741016 C56.3765625,126.15625 52.3925781,120.026562 52.3925781,113.126172 C52.3925781,103.842969 59.6640625,96.2902344 68.6027344,96.2902344 L69.3355469,96.2902344 C69.49375,99.3585937 70.1636719,102.293359 71.2601562,105.0125 C72.0429688,106.954297 74.54375,107.479687 76.0242187,105.999219 C76.0386719,105.984766 76.053125,105.970312 76.0671875,105.95625 C76.8941406,105.129297 77.1382813,103.890234 76.7019531,102.805078 C75.6597656,100.213281 75.1089844,97.3730469 75.1742187,94.3976562 C75.4308594,82.7386719 85.1691406,73.5140625 96.8308594,73.5140625 L127.40625,73.5140625 C139.193359,73.5140625 149.162109,83.15625 149.125,94.9429687 C149.097656,103.651172 143.869531,111.388672 135.791406,114.667969 Z" id="Shape"></path>
            </g>
        </g>
    </g>
</svg>