<?xml version="1.0" encoding="utf-8"?>
<!-- Generator: Adobe Illustrator 23.0.3, SVG Export Plug-In . SVG Version: 6.00 Build 0)  -->
<svg version="1.1" id="Layer_1" xmlns="http://www.w3.org/2000/svg" xmlns:xlink="http://www.w3.org/1999/xlink" x="0px" y="0px"
	 viewBox="0 0 136.5 1096.8" style="enable-background:new 0 0 136.5 1096.8;" xml:space="preserve">
<style type="text/css">
	.st0{fill:none;stroke:url(#SVGID_1_);stroke-width:5;stroke-linecap:square;stroke-miterlimit:10;}
</style>
<linearGradient id="SVGID_1_" gradientUnits="userSpaceOnUse" x1="69.8111" y1="3.4733" x2="69.8111" y2="1097.4355" gradientTransform="matrix(1 0 0 -1 0 1096)">
	<stop  offset="0.1564" style="stop-color:#B44DD0"/>
	<stop  offset="0.3595" style="stop-color:#8471D5"/>
	<stop  offset="0.69" style="stop-color:#3CA8DD"/>
	<stop  offset="0.8436" style="stop-color:#1FBEE0"/>
</linearGradient>
<path class="st0" d="M122.8,323.1c0,0-57,50.5-57,108c0,68,57,108,57,108 M122.8,2.1c0,0-69,68.7-69,147c0,92.5,69,147,69,147
	 M122.8,323.1c0,0-113.9,93.8-113.9,296.3c0,239.2,113.9,463.7,113.9,463.7 M122.8,566.1c0,0-69,65.2-69,139.5
	c0,87.8,69,139.5,69,139.5 M117.9,298.3l7.1-7.1l2.6,9.7L117.9,298.3z M120.9,543.3l4.6-6.5l3.3,7.1L120.9,543.3z M120,848.8
	l4.9-7.6l4.1,8L120,848.8z M119.5,1085.3l6.5-4.9l1,8.1L119.5,1085.3z"/>
</svg>
