<?xml version="1.0" encoding="UTF-8"?>
<svg width="200px" height="200px" viewBox="0 0 200 200" version="1.1" xmlns="http://www.w3.org/2000/svg" xmlns:xlink="http://www.w3.org/1999/xlink">
    <!-- Generator: Sketch 54.1 (76490) - https://sketchapp.com -->
    <title>qa</title>
    <desc>Created with Sketch.</desc>
    <g id="Final-Design" stroke="none" stroke-width="1" fill="none" fill-rule="evenodd">
        <g id="Community" transform="translate(-270.000000, -681.000000)" fill="#000000" fill-rule="nonzero">
            <g id="qa" transform="translate(270.000000, 681.000000)">
                <path d="M180.46875,76.171875 L138.28125,76.171875 L138.28125,19.53125 C138.28125,8.76159687 129.519653,0 118.75,0 L86.71875,0 C84.561157,0 82.8125,1.74865703 82.8125,3.90625 C82.8125,6.06384297 84.561157,7.8125 86.71875,7.8125 L118.75,7.8125 C125.212097,7.8125 130.46875,13.0691527 130.46875,19.53125 L130.46875,84.375 C130.46875,90.8370973 125.212097,96.09375 118.75,96.09375 L39.0838625,96.09375 C38.0355836,96.09375 37.0300293,96.5148926 36.2960816,97.2640992 L23.4375,110.365295 L23.4375,100 C23.4375,97.842407 21.688843,96.09375 19.53125,96.09375 C13.0691527,96.09375 7.8125,90.8370973 7.8125,84.375 L7.8125,19.53125 C7.8125,13.0691527 13.0691527,7.8125 19.53125,7.8125 L51.5625,7.8125 C53.720093,7.8125 55.46875,6.06384297 55.46875,3.90625 C55.46875,1.74865703 53.720093,0 51.5625,0 L19.53125,0 C8.76159687,0 0,8.76159687 0,19.53125 L0,84.375 C0,93.8064574 6.72149648,101.698303 15.625,103.514099 L15.625,119.921875 C15.625,121.508789 16.5847777,122.937012 18.0541992,123.538208 C18.5317992,123.73352 19.0338133,123.828125 19.5297242,123.828125 C20.5596922,123.828125 21.5698242,123.420715 22.3190309,122.657776 L40.7226562,103.90625 L61.71875,103.90625 L61.71875,160.546875 C61.71875,171.316528 70.4803469,180.078125 81.25,180.078125 L159.275818,180.078125 L177.680969,198.829651 C178.430176,199.59259 179.440308,200 180.46875,200 C180.966187,200 181.468201,199.905395 181.945801,199.708557 C183.415222,199.108887 184.375,197.679138 184.375,196.092224 L184.375,179.684448 C193.278504,177.870178 200,169.978332 200,160.546875 L200,95.703125 C200,84.9334719 191.238403,76.171875 180.46875,76.171875 Z M192.1875,160.546875 C192.1875,167.008972 186.930847,172.265625 180.46875,172.265625 C178.311157,172.265625 176.5625,174.014282 176.5625,176.171875 L176.5625,186.53717 L163.703918,173.435974 C162.969971,172.686768 161.964416,172.265625 160.916137,172.265625 L81.25,172.265625 C74.7879027,172.265625 69.53125,167.008972 69.53125,160.546875 L69.53125,103.90625 L118.75,103.90625 C129.519653,103.90625 138.28125,95.1446531 138.28125,84.375 L138.28125,83.984375 L180.46875,83.984375 C186.930847,83.984375 192.1875,89.2410277 192.1875,95.703125 L192.1875,160.546875 Z" id="Shape"></path>
                <path d="M103.373718,118.4021 C102.763367,116.955566 101.345825,116.015625 99.7756957,116.015625 C98.2055664,116.015625 96.788025,116.955566 96.1761477,118.4021 L84.3032836,146.5271 C83.4640504,148.51532 84.3948363,150.805664 86.3830566,151.644898 C86.8789672,151.855469 87.3947145,151.954651 87.9013062,151.954651 C89.4241332,151.954651 90.8706664,151.057434 91.5008547,149.56665 L93.0343629,145.932007 L106.515503,145.932007 L108.050537,149.56665 C108.88977,151.553345 111.180115,152.485657 113.168335,151.646423 C115.156555,150.80719 116.087341,148.51532 115.248108,146.5271 L103.373718,118.4021 Z M96.3333129,138.119507 L99.7756957,129.96521 L103.218079,138.119507 L96.3333129,138.119507 Z" id="Shape"></path>
                <path d="M51.8325805,47.442627 C51.8325805,38.9450074 44.9188234,32.03125 36.4212035,32.03125 C27.9220582,32.03125 21.0083008,38.9450074 21.0083008,47.442627 L21.0083008,52.557373 C21.0083008,61.0549926 27.9220582,67.96875 36.4212035,67.96875 C39.9063109,67.96875 43.1259156,66.8045043 45.7107543,64.84375 L48.4863281,66.8884277 C49.1836547,67.4026488 49.9954223,67.6498414 50.7995605,67.6498414 C51.9989016,67.6498414 53.1829836,67.0989992 53.9489746,66.0598754 C55.2276609,64.3218992 54.8568727,61.8759156 53.1188965,60.5972289 L50.5493164,58.7051391 C51.373291,56.8206789 51.8325805,54.7424316 51.8325805,52.557373 L51.8325805,47.442627 Z M41.4001465,51.9683836 C39.6636961,50.6881715 37.2177125,51.0604859 35.9390258,52.7969359 C34.6603395,54.5349121 35.0311281,56.9808961 36.7675781,58.2595824 L38.8122559,59.7640992 C38.0599977,60.0158691 37.2558594,60.15625 36.4212035,60.15625 C32.2296141,60.15625 28.8208008,56.7474367 28.8208008,52.5558473 L28.8208008,47.442627 C28.8208008,43.2525633 32.2311402,39.84375 36.4212035,39.84375 C40.6112672,39.84375 44.0200805,43.2525633 44.0200805,47.442627 L44.0200805,52.5558473 C44.0200805,52.9861449 43.9758301,53.4042359 43.9071656,53.8131715 L41.4001465,51.9683836 Z" id="Shape"></path>
                <path d="M113.366699,37.3703004 L69.6166992,37.3703004 C67.4591063,37.3703004 65.7104492,39.1189574 65.7104492,41.2765504 C65.7104492,43.434143 67.4591063,45.1828004 69.6166992,45.1828004 L113.366699,45.1828004 C115.524292,45.1828004 117.272949,43.434143 117.272949,41.2765504 C117.272949,39.1189574 115.524292,37.3703004 113.366699,37.3703004 Z" id="Path"></path>
                <path d="M113.366699,60.15625 L69.6166992,60.15625 C67.4591063,60.15625 65.7104492,61.904907 65.7104492,64.0625 C65.7104492,66.220093 67.4591063,67.96875 69.6166992,67.96875 L113.366699,67.96875 C115.524292,67.96875 117.272949,66.220093 117.272949,64.0625 C117.272949,61.904907 115.524292,60.15625 113.366699,60.15625 Z" id="Path"></path>
                <path d="M176.171875,121.354675 L132.421875,121.354675 C130.264282,121.354675 128.515625,123.103332 128.515625,125.260925 C128.515625,127.416992 130.264282,129.167175 132.421875,129.167175 L176.171875,129.167175 C178.327942,129.167175 180.078125,127.416992 180.078125,125.260925 C180.078125,123.103332 178.329468,121.354675 176.171875,121.354675 Z" id="Path"></path>
                <path d="M176.171875,144.140625 L132.421875,144.140625 C130.264282,144.140625 128.515625,145.889282 128.515625,148.046875 C128.515625,150.204468 130.264282,151.953125 132.421875,151.953125 L176.171875,151.953125 C178.327942,151.953125 180.078125,150.204468 180.078125,148.046875 C180.078125,145.889282 178.329468,144.140625 176.171875,144.140625 Z" id="Path"></path>
                <path d="M69.140625,7.8125 C70.1675414,7.8125 71.1761477,7.39440937 71.9024656,6.66809063 C72.6287844,5.94177266 73.046875,4.93316641 73.046875,3.90625 C73.046875,2.87933359 72.6287844,1.87072734 71.9024656,1.14440938 C71.1761477,0.418090625 70.1675414,0 69.140625,0 C68.1137086,0 67.1051023,0.418090625 66.3787844,1.14440938 C65.6524656,1.87072734 65.234375,2.87933359 65.234375,3.90625 C65.234375,4.93316641 65.6524656,5.94177266 66.3787844,6.66809063 C67.1051023,7.39440938 68.1137086,7.8125 69.140625,7.8125 Z" id="Path"></path>
            </g>
        </g>
    </g>
</svg>