<?xml version="1.0" encoding="UTF-8"?>
<svg width="200px" height="200px" viewBox="0 0 200 200" version="1.1" xmlns="http://www.w3.org/2000/svg" xmlns:xlink="http://www.w3.org/1999/xlink">
    <!-- Generator: Sketch 54.1 (76490) - https://sketchapp.com -->
    <title>github-2</title>
    <desc>Created with Sketch.</desc>
    <g id="Final-Design" stroke="none" stroke-width="1" fill="none" fill-rule="evenodd">
        <g id="Community" transform="translate(-1344.000000, -681.000000)" fill="#000000" fill-rule="nonzero">
            <g id="github-2" transform="translate(1344.000000, 681.000000)">
                <path d="M100,0 C45.0393676,0 0,45.4299926 0,100.390625 C0,155.032348 44.6289062,200 100,200 C155.302429,200 200,155.099488 200,100.390625 C200,45.4299926 154.960632,0 100,0 Z M117.578125,186.523438 C111.953735,187.695313 105.976868,188.28125 100,188.28125 C94.0231324,188.28125 88.0462648,187.695313 82.421875,186.523438 L82.421875,159.101868 C82.421875,152.539063 84.1796875,150.195313 86.5234375,147.03064 C87.716675,145.666504 88.4368898,144.442749 93.7881469,136.367798 L84.765625,134.960938 C61.5615844,131.562805 52.4215699,119.491577 48.7884523,110.116577 C44.1009523,97.5784301 46.5621949,81.8740844 55.0003051,71.9146727 C56.2896727,70.3903199 57.3440551,67.8115844 56.4071656,65.1168824 C54.6478273,59.7259523 54.8828125,51.171875 56.0546875,47.8897094 C62.2680664,48.7777711 68.6569215,53.2287598 73.9852906,56.4453125 C76.4404297,57.8781129 77.7282715,57.4996949 78.90625,57.6171875 C83.1878664,56.7260742 89.8666383,54.5700074 100.117493,54.5700074 C106.445312,54.5700074 113.12561,55.5068969 119.688416,57.3822023 C120.861816,57.3547363 122.747803,58.3526609 126.016235,56.4453125 C131.585693,53.0517578 137.757873,48.753357 143.945312,47.8897094 C145.117188,51.171875 145.352173,59.7259523 143.59436,65.1168824 C142.655945,67.8115844 143.710327,70.3903199 145.001221,71.9146727 C153.437805,81.8756102 155.899048,97.5784301 151.211548,110.116577 C147.57843,119.491577 138.438416,131.562805 115.234375,134.960938 L106.211853,136.367798 C111.743164,144.714355 112.32605,145.715332 113.478088,147.03064 C115.820312,150.195313 117.578125,152.539063 117.578125,159.101868 L117.578125,186.523438 Z M129.296875,183.125305 L129.296875,159.101868 C129.296875,152.42157 127.890015,147.969055 126.014709,144.68689 C143.82782,139.883423 156.484985,129.335022 162.109375,114.21814 C168.086243,98.2818602 165.391541,79.296875 155.429077,66.1712648 C157.188416,58.3206176 157.188416,45.7809449 152.96936,39.9215699 C151.094055,37.3443602 148.51532,35.9375 145.23468,35.9375 C145.117188,35.9375 145.117188,35.9375 145.117188,35.9375 C136.030579,36.4288328 128.878784,41.0049438 121.211243,45.6634523 C114.179993,43.7881469 107.03125,42.8512574 99.8825074,42.8512574 C92.6177977,42.8512574 85.3515625,43.9056398 78.9077758,45.6634523 C70.8358766,40.7958984 63.7527465,36.4166258 54.4143676,35.9375 C51.4846801,35.9375 48.9059449,37.3443602 47.0306398,39.9215699 C42.8131102,45.7809449 42.8131102,58.3206176 44.5709227,66.1712648 C34.6084594,79.296875 31.9137574,98.3978273 37.890625,114.21814 C43.5150148,129.335022 56.1721801,139.883423 73.9852906,144.68689 C72.5311281,147.23053 71.3806152,150.512695 70.9274293,154.954529 C67.3294066,156.195068 64.2089844,156.599426 61.3067625,155.74646 C58.2458496,154.841614 55.8609008,152.798462 53.7887574,149.313355 C49.1348266,141.494751 41.2078859,135.112 32.1823121,135.942078 L33.2122805,147.615051 C37.3916625,147.232055 41.5512086,151.654053 43.7118531,155.299377 C47.2763063,161.302185 52.0782469,165.238953 57.9879762,166.984558 C62.3748781,168.276977 66.3848875,168.24646 70.703125,167.324829 L70.703125,183.125305 C36.6012574,171.17157 11.71875,138.594055 11.71875,100.390625 C11.71875,51.8753051 51.4846801,11.71875 100,11.71875 C148.51532,11.71875 188.28125,51.8753051 188.28125,100.390625 C188.28125,138.594055 163.398743,171.17157 129.296875,183.125305 Z" id="Shape"></path>
            </g>
        </g>
    </g>
</svg>