<?xml version="1.0" encoding="UTF-8"?>
<svg width="983px" height="456px" viewBox="0 0 983 456" version="1.1" xmlns="http://www.w3.org/2000/svg" xmlns:xlink="http://www.w3.org/1999/xlink">
    <!-- Generator: Sketch 54.1 (76490) - https://sketchapp.com -->
    <title>How It Works (centered)</title>
    <desc>Created with Sketch.</desc>
    <defs>
        <linearGradient x1="50%" y1="0%" x2="50%" y2="100%" id="linearGradient-1">
            <stop stop-color="#19E7FF" offset="0%"></stop>
            <stop stop-color="#3084FF" offset="100%"></stop>
        </linearGradient>
        <linearGradient x1="50%" y1="0%" x2="50%" y2="100%" id="linearGradient-2">
            <stop stop-color="#19E7FF" offset="0%"></stop>
            <stop stop-color="#F44AF5" offset="100%"></stop>
        </linearGradient>
    </defs>
    <g id="Final-Design" stroke="none" stroke-width="1" fill="none" fill-rule="evenodd">
        <g id="Home-(alt)" transform="translate(-414.000000, -564.000000)">
            <g id="How-It-Works-(centered)" transform="translate(257.000000, 355.000000)">
                <g id="Sinks" transform="translate(992.584986, 171.113881)"></g>
                <g id="Sink-Arrows" transform="translate(857.915014, 339.699717)" fill="#FFFFFF" fill-rule="nonzero">
                    <path d="M281.886686,128.421755 L256.107649,141.311273 L256.107649,115.532237 L281.886686,128.421755 Z M0.158640227,130.263115 L0.158640227,126.580395 L13.0481586,126.580395 L13.0481586,130.263115 L0.158640227,130.263115 Z M18.572238,130.263115 L18.572238,126.580395 L31.4617564,126.580395 L31.4617564,130.263115 L18.572238,130.263115 Z M36.9858357,130.263115 L36.9858357,126.580395 L49.8753541,126.580395 L49.8753541,130.263115 L36.9858357,130.263115 Z M55.3994334,130.263115 L55.3994334,126.580395 L68.2889518,126.580395 L68.2889518,130.263115 L55.3994334,130.263115 Z M73.8130312,130.263115 L73.8130312,126.580395 L86.7025496,126.580395 L86.7025496,130.263115 L73.8130312,130.263115 Z M92.2266289,130.263115 L92.2266289,126.580395 L105.116147,126.580395 L105.116147,130.263115 L92.2266289,130.263115 Z M110.640227,130.263115 L110.640227,126.580395 L123.529745,126.580395 L123.529745,130.263115 L110.640227,130.263115 Z M129.053824,130.263115 L129.053824,126.580395 L141.943343,126.580395 L141.943343,130.263115 L129.053824,130.263115 Z M147.467422,130.263115 L147.467422,126.580395 L160.356941,126.580395 L160.356941,130.263115 L147.467422,130.263115 Z M165.88102,130.263115 L165.88102,126.580395 L178.770538,126.580395 L178.770538,130.263115 L165.88102,130.263115 Z M184.294618,130.263115 L184.294618,126.580395 L197.184136,126.580395 L197.184136,130.263115 L184.294618,130.263115 Z M202.708215,130.263115 L202.708215,126.580395 L215.597734,126.580395 L215.597734,130.263115 L202.708215,130.263115 Z M221.121813,130.263115 L221.121813,126.580395 L234.011331,126.580395 L234.011331,130.263115 L221.121813,130.263115 Z M239.535411,130.263115 L239.535411,126.580395 L252.424929,126.580395 L252.424929,130.263115 L239.535411,130.263115 Z" id="Line-2"></path>
                    <path d="M112.481586,240.744701 L110.640227,240.744701 L110.640227,237.061982 L112.481586,237.061982 L112.481586,226.013823 L138.260623,238.903341 L112.481586,251.79286 L112.481586,240.744701 L112.481586,240.744701 Z M0.158640227,240.744701 L0.158640227,237.061982 L13.0481586,237.061982 L13.0481586,240.744701 L0.158640227,240.744701 Z M18.572238,240.744701 L18.572238,237.061982 L31.4617564,237.061982 L31.4617564,240.744701 L18.572238,240.744701 Z M36.9858357,240.744701 L36.9858357,237.061982 L49.8753541,237.061982 L49.8753541,240.744701 L36.9858357,240.744701 Z M55.3994334,240.744701 L55.3994334,237.061982 L68.2889518,237.061982 L68.2889518,240.744701 L55.3994334,240.744701 Z M73.8130312,240.744701 L73.8130312,237.061982 L86.7025496,237.061982 L86.7025496,240.744701 L73.8130312,240.744701 Z M92.2266289,240.744701 L92.2266289,237.061982 L105.116147,237.061982 L105.116147,240.744701 L92.2266289,240.744701 Z" id="Line-2"></path>
                    <path d="M112.481586,14.7620397 L88.5439093,14.7620397 L88.5439093,11.0793201 L112.481586,11.0793201 L112.481586,0.0311614731 L138.260623,12.9206799 L112.481586,25.8101983 L112.481586,14.7620397 Z M0.158640227,14.7620397 L0.158640227,11.0793201 L25.9376771,11.0793201 L25.9376771,14.7620397 L0.158640227,14.7620397 Z M44.3512748,14.7620397 L44.3512748,11.0793201 L70.1303116,11.0793201 L70.1303116,14.7620397 L44.3512748,14.7620397 Z" id="Line-2"></path>
                </g>
                <g id="Transforms" transform="translate(411.951533, 170.405099)">
                    <g id="Aggregate" transform="translate(53.912490, 361.747875)">
                        <polygon id="Fill-74" fill="#F44AF5" points="1.13686838e-13 95.058844 183.995801 132.476261 367.987355 95.058844 183.995801 57.6375628"></polygon>
                        <polygon id="Fill-79" fill="#F44AF5" points="0.380676574 95.052768 1.13686838e-13 38.4999964 183.60581 1.05220558 367.987355 38.8764044 367.382502 94.920816 183.60581 132.476261"></polygon>
                        <polygon id="Fill-75" fill="#F44AF5" points="5.68434189e-14 39.3842217 5.68434189e-14 95.4295849 179.275891 132.476261 179.275891 76.909256"></polygon>
                        <polygon id="Fill-76" fill="#F44AF5" points="185.566273 76.6207141 367.987355 39.3842217 367.101383 95.2396951 185.566273 132.476261"></polygon>
                        <polygon id="Fill-77" fill="#F44AF5" points="185.566273 1.05220558 367.987355 38.5313128 367.101578 94.1442448 185.942665 57.0706638"></polygon>
                        <polygon id="Fill-78" fill="#F44AF5" points="1.13686838e-13 38.0509177 1.13686838e-13 94.1442448 182.421082 57.0199455 182.039795 1.05220558"></polygon>
                        <polygon id="Fill-74-Copy" fill-opacity="0.33241368" fill="#FFFFFF" points="1.70530257e-13 38.2397425 183.995801 75.6571594 367.987355 38.2397425 183.995801 0.818461177"></polygon>
                    </g>
                    <g id="Sample" transform="translate(53.912490, 253.107649)">
                        <polygon id="Fill-74" fill="#3084FF" points="1.13686838e-13 95.058844 183.995801 132.476261 367.987355 95.058844 183.995801 57.6375628"></polygon>
                        <polygon id="Fill-79" fill="#3084FF" points="0.380676574 95.052768 1.13686838e-13 38.4999964 183.60581 1.05220558 367.987355 38.8764044 367.382502 94.920816 183.60581 132.476261"></polygon>
                        <polygon id="Fill-75" fill="#3084FF" points="5.68434189e-14 39.3842217 5.68434189e-14 95.4295849 179.275891 132.476261 179.275891 76.909256"></polygon>
                        <polygon id="Fill-76" fill="#3084FF" points="185.566273 76.6207141 367.987355 39.3842217 367.101383 95.2396951 185.566273 132.476261"></polygon>
                        <polygon id="Fill-77" fill="#3084FF" points="185.566273 1.05220558 367.987355 38.5313128 367.101578 94.1442448 185.942665 57.0706638"></polygon>
                        <polygon id="Fill-78" fill="#3084FF" points="1.13686838e-13 38.0509177 1.13686838e-13 94.1442448 182.421082 57.0199455 182.039795 1.05220558"></polygon>
                        <polygon id="Fill-74-Copy" fill-opacity="0.33241368" fill="#FFFFFF" points="1.70530257e-13 38.2397425 183.995801 75.6571594 367.987355 38.2397425 183.995801 0.818461177"></polygon>
                    </g>
                    <g id="Parse" transform="translate(53.912490, 136.260623)">
                        <polygon id="Fill-74" fill="#5FEFFF" points="0 95.6000513 183.995801 133.316808 367.987355 95.6000513 183.995801 57.8793998"></polygon>
                        <polygon id="Fill-79" fill="#5FEFFF" points="0.380676574 95.5939267 0 38.5887329 183.60581 0.841359773 367.987355 38.9681521 367.382502 95.460919 183.60581 133.316808"></polygon>
                        <polygon id="Fill-75" fill="#5FEFFF" points="0 39.4800321 0 95.9737581 179.275891 133.316808 179.275891 77.3052665"></polygon>
                        <polygon id="Fill-76" fill="#5FEFFF" points="185.566273 77.0144164 367.987355 39.4800321 367.101383 95.7823492 185.566273 133.316808"></polygon>
                        <polygon id="Fill-77" fill="#5FEFFF" points="185.566273 0.841359773 367.987355 38.6202999 367.101578 94.6781353 185.942665 57.3079656"></polygon>
                        <polygon id="Fill-78" fill="#5FEFFF" points="0 38.1360616 0 94.6781353 182.421082 57.2568416 182.039795 0.841359773"></polygon>
                        <polygon id="Fill-74-Copy" fill-opacity="0.33241368" fill="#FFFFFF" points="0 38.3263969 183.995801 76.0431532 367.987355 38.3263969 183.995801 0.60574541"></polygon>
                    </g>
                    <path d="M255.776778,356.64384 L259.853235,355.847719 C259.667801,357.415061 261.070983,358.122516 263.444263,357.659021 C265.636056,357.23097 267.433078,355.885438 267.787915,354.389703 C268.087411,353.127249 267.254793,352.596269 264.907494,352.557401 L262.413141,352.521078 C258.920584,352.483404 257.565672,350.955156 258.281857,347.936242 C259.167322,344.203768 262.80738,341.15038 267.456216,340.242475 C271.895645,339.375466 274.457292,341.204592 273.746302,344.706694 L269.781528,345.481003 C269.957196,343.954827 268.724796,343.200933 266.686567,343.598993 C264.578536,344.010686 262.954612,345.243893 262.596519,346.75335 C262.30679,347.974638 263.104037,348.486352 265.346163,348.519587 L267.654835,348.552913 C271.504793,348.599307 272.842928,349.973793 272.113721,353.047596 C271.166404,357.040795 267.47376,360.091366 262.42007,361.078338 C257.617668,362.016234 255.054644,360.305156 255.776778,356.64384 Z M280.285723,354.461536 C282.170386,354.093467 283.874317,352.635249 284.238921,351.098348 L284.502607,349.986839 L281.343847,350.786948 C279.56949,351.251254 278.571408,352.035072 278.314233,353.119136 C278.047291,354.244367 278.875715,354.736907 280.285723,354.461536 Z M278.232588,357.728465 C275.272968,358.306471 273.616058,356.928807 274.273647,354.156896 C274.924724,351.41243 277.438301,349.403494 281.315556,348.436892 L285.095088,347.489374 L285.388072,346.254364 C285.687568,344.99191 284.935457,344.458294 283.260201,344.785467 C281.794352,345.071743 280.699925,345.756598 280.150018,346.727706 L276.408612,347.458393 C277.33796,344.607235 280.365257,342.340931 284.232308,341.585707 C288.308765,340.789586 290.162999,342.233405 289.394727,345.471876 L286.94342,355.804792 L283.006568,356.573648 L283.475344,354.597633 L283.224055,354.646709 C282.099514,356.188071 280.228935,357.338584 278.232588,357.728465 Z M290.936115,355.02503 L294.526807,339.889297 L298.46366,339.120441 L297.87769,341.59046 L298.128979,341.541384 C299.167379,339.689681 301.026753,338.305798 303.051021,337.910464 C305.214894,337.487866 306.447294,338.24176 306.644865,339.878255 L306.896154,339.829179 C308.00855,338.002284 310.045216,336.544517 312.195129,336.124645 C315.266432,335.524828 316.713496,337.113599 315.974523,340.228568 L313.510195,350.616374 L309.447698,351.409768 L311.661362,342.078582 C312.087817,340.280957 311.447829,339.555318 309.730691,339.89067 C308.083356,340.21239 306.748907,341.572276 306.368027,343.177789 L304.17064,352.440363 L300.261709,353.203767 L302.514437,343.707913 C302.895317,342.1024 302.164116,341.368402 300.572623,341.679216 C298.981129,341.99003 297.560602,343.43216 297.160189,345.120006 L294.998612,354.231635 L290.936115,355.02503 Z M329.989156,332.728039 C333.884127,331.967362 335.581225,334.410275 334.419052,339.309148 C333.260134,344.194298 330.207417,347.577923 326.354327,348.330421 C324.148573,348.761199 322.683978,348.144258 322.310993,346.685973 L322.059704,346.735049 L320.318072,354.076496 L316.255575,354.869891 L321.03774,334.711785 L324.974592,333.942928 L324.385367,336.42667 L324.636656,336.377594 C325.877952,334.512439 327.867165,333.142459 329.989156,332.728039 Z M325.693498,345.279445 C327.885291,344.851393 329.580772,342.92371 330.244871,340.124354 C330.90246,337.352443 329.990588,335.920881 327.826715,336.34348 C325.662843,336.766078 323.918969,338.729386 323.261381,341.501297 C322.603793,344.273208 323.543585,345.699317 325.693498,345.279445 Z M336.070314,346.210444 L341.031525,325.29761 L345.094022,324.504215 L340.132811,345.41705 L336.070314,346.210444 Z M353.950887,330.888163 C352.066224,331.256233 350.433973,332.805144 349.828848,334.794702 L356.390268,333.513275 C356.781792,331.526173 355.849511,330.517367 353.950887,330.888163 Z M355.324879,338.340899 L359.108167,337.602034 C357.834001,340.559793 354.741096,342.878169 350.971769,343.614308 C346.281051,344.530393 344.20702,342.161094 345.372449,337.248499 C346.541133,332.322181 350.083844,328.725082 354.662878,327.83081 C359.200031,326.944716 361.206576,329.261762 360.06719,334.064578 L359.777461,335.285866 L349.209385,337.349782 L349.160554,337.555617 C348.682513,339.795174 349.690668,340.933114 351.81266,340.518694 C353.418114,340.205154 354.654462,339.427149 355.324879,338.340899 Z" id="Sample" fill="#FFFFFF" fill-rule="nonzero"></path>
                    <path d="M26.4772878,296.546767 C19.8737946,284.648151 16.572238,271.385976 16.572238,256.790368 C16.572238,233.134577 24.6328076,214.211022 40.7330026,200.162155 L42.1204229,198.951506 L44.5417207,201.726346 L43.1543004,202.936995 C27.8810904,216.264244 20.2549575,234.167884 20.2549575,256.790368 C20.2549575,270.546032 23.302164,283.010233 29.3962151,294.211669 L37.7462575,287.531761 L43.7850113,315.713881 L17.6160632,303.635612 L26.4772878,296.546767 L26.4772878,296.546767 Z" id="Line" fill="url(#linearGradient-1)" fill-rule="nonzero"></path>
                    <path d="M26.357544,414.49221 C8.7791469,387.644699 -8.42259847e-14,354.704419 0,315.713881 C-1.06713505e-13,266.223673 13.5314741,227.701901 40.6334244,200.255778 L41.9272214,198.945551 L44.5476757,201.533145 L43.2538787,202.843372 C16.8861066,229.545993 3.68271955,267.133758 3.68271955,315.713881 C3.68271955,353.875749 12.2098373,386.016161 29.2441945,412.177156 L37.7119005,405.38617 L43.7850113,433.560907 L17.601356,421.514554 L26.357544,414.49221 L26.357544,414.49221 Z" id="Line" fill="url(#linearGradient-2)" fill-rule="nonzero"></path>
                    <path d="M267.347956,465.816071 L267.240856,461.179964 L260.382393,462.371081 L257.513434,467.524044 L253.41459,468.235895 L265.927819,446.537293 L270.730096,445.703276 L271.771462,465.047835 L267.347956,465.816071 Z M266.886197,450.430188 L262.187859,458.904771 L267.30127,458.016719 L267.129692,450.3879 L266.886197,450.430188 Z M281.501632,460.029328 C283.638983,459.658132 285.391548,457.716496 286.162699,454.95753 C286.93385,452.198565 286.133684,450.686734 284.00986,451.055581 C281.886036,451.424428 280.170079,453.373237 279.402903,456.117981 C278.627778,458.891168 279.364281,460.400525 281.501632,460.029328 Z M278.808119,469.481782 C274.844549,470.170139 272.732982,468.791343 273.260637,466.074666 L277.156569,465.398054 C277.089182,466.329874 278.027515,466.748751 279.731985,466.452734 C281.842281,466.086236 283.359488,464.8485 283.852388,463.085038 L284.663289,460.183858 L284.419794,460.226146 C283.133513,462.019147 281.317868,463.173402 279.221099,463.53755 C275.501026,464.18362 274.034492,461.556184 275.354194,456.834656 C276.713645,451.970914 279.906933,448.466546 283.694645,447.80873 C285.710248,447.458677 287.134096,448.2127 287.451245,449.794886 L287.694741,449.752598 L288.398316,447.235398 L292.213083,446.572883 L287.844553,462.202278 C286.815027,465.885639 283.31279,468.69945 278.808119,469.481782 Z M299.385041,456.923495 C301.522392,456.552299 303.274956,454.610663 304.046107,451.851698 C304.817258,449.092732 304.017092,447.580901 301.893268,447.949748 C299.769445,448.318595 298.053488,450.267405 297.286312,453.012148 C296.511186,455.785335 297.247689,457.294692 299.385041,456.923495 Z M296.691527,466.375949 C292.727958,467.064307 290.616391,465.68551 291.144046,462.968833 L295.039977,462.292222 C294.97259,463.224041 295.910923,463.642918 297.615393,463.346901 C299.72569,462.980403 301.242896,461.742667 301.735797,459.979205 L302.546698,457.078025 L302.303202,457.120313 C301.016922,458.913314 299.201277,460.067569 297.104508,460.431717 C293.384434,461.077787 291.917901,458.450352 293.237602,453.728824 C294.597054,448.865081 297.790342,445.360713 301.578053,444.702897 C303.593657,444.352845 305.017504,445.106867 305.334653,446.689053 L305.578149,446.646765 L306.281725,444.129565 L310.096491,443.46705 L305.727961,459.096445 C304.698435,462.779806 301.196198,465.593617 296.691527,466.375949 Z M309.662103,458.467323 L314.046533,442.781041 L317.8613,442.118526 L317.161699,444.621505 L317.405195,444.579217 C318.234744,442.946724 320.110784,441.484296 322.004639,441.155387 C322.545741,441.061414 323.188715,441.017403 323.491129,441.086663 L322.437753,444.855352 C322.162394,444.781394 321.278297,444.813156 320.642502,444.923575 C318.491623,445.297121 316.643471,446.890018 316.027345,449.094345 L313.598617,457.783664 L309.662103,458.467323 Z M331.422994,442.455945 C329.596776,442.773106 327.938009,444.333112 327.234308,446.390276 L333.592252,445.286084 C334.091438,443.223846 333.26274,442.136434 331.422994,442.455945 Z M332.270241,450.292167 L335.936204,449.655495 C334.531694,452.700361 331.427208,455.012098 327.774772,455.646421 C323.229519,456.4358 321.393767,453.886019 322.816818,448.794733 C324.243845,443.689225 327.858859,440.057491 332.295893,439.286906 C336.692343,438.52337 338.466805,441.01614 337.075553,445.993654 L336.721778,447.259365 L326.48143,449.037819 L326.421805,449.251141 C325.824014,451.574064 326.717208,452.799117 328.773394,452.442017 C330.329061,452.171842 331.560712,451.403164 332.270241,450.292167 Z M345.635701,448.891088 C347.773053,448.519892 349.525617,446.578255 350.296768,443.81929 C351.067919,441.060325 350.267753,439.548494 348.143929,439.917341 C346.020106,440.286188 344.304149,442.234997 343.536973,444.979741 C342.761847,447.752928 343.49835,449.262284 345.635701,448.891088 Z M342.942188,458.343541 C338.978619,459.031899 336.867052,457.653102 337.394707,454.936425 L341.290638,454.259814 C341.223251,455.191634 342.161584,455.610511 343.866054,455.314494 C345.976351,454.947996 347.493557,453.71026 347.986458,451.946798 L348.797359,449.045618 L348.553863,449.087906 C347.267583,450.880906 345.451938,452.035162 343.355169,452.39931 C339.635095,453.045379 338.168562,450.417944 339.488263,445.696416 C340.847715,440.832674 344.041003,437.328306 347.828714,436.67049 C349.844318,436.320437 351.268165,437.074459 351.585314,438.656646 L351.82881,438.614358 L352.532386,436.097158 L356.347152,435.434643 L351.978622,451.064038 C350.949096,454.747399 347.446859,457.56121 342.942188,458.343541 Z M362.099676,446.62714 C363.925894,446.309978 365.647554,444.847299 366.092754,443.254494 L366.414729,442.102555 L363.342438,442.825559 C361.61572,443.24722 360.611665,444.030497 360.29764,445.153993 C359.971689,446.320153 360.733394,446.864423 362.099676,446.62714 Z M359.930506,449.967178 C357.062668,450.465239 355.563815,448.966501 356.366766,446.093764 C357.161766,443.24947 359.692581,441.24033 363.462727,440.369066 L367.13818,439.514247 L367.495931,438.234315 C367.861631,436.92594 367.175514,436.34148 365.552209,436.623401 C364.131817,436.870083 363.041789,437.54651 362.454778,438.541511 L358.829397,439.171135 C359.897321,436.225318 362.935772,433.965642 366.682901,433.314874 C370.632942,432.628865 372.316436,434.203786 371.378335,437.560053 L368.385156,448.26882 L364.57039,448.931335 L365.142791,446.883444 L364.899295,446.925732 C363.72675,448.496013 361.864944,449.631222 359.930506,449.967178 Z M378.8027,427.989606 L382.739214,427.305947 L381.654038,431.188408 L384.751845,430.650408 L383.841569,433.907125 L380.743762,434.445125 L378.77216,441.498974 C378.390559,442.864235 378.810871,443.386608 380.150097,443.154023 C380.664144,443.064748 380.93867,443.00354 381.329366,442.895094 L380.446915,446.05226 C379.932098,446.236387 379.177761,446.44858 378.420219,446.580143 C374.794838,447.209768 373.706744,446.22153 374.56137,443.163914 L376.807248,435.128784 L374.480511,435.532871 L375.390787,432.276154 L377.717524,431.872067 L378.8027,427.989606 Z M393.622625,431.653661 C391.796407,431.970822 390.137641,433.530828 389.433939,435.587992 L395.791884,434.4838 C396.291069,432.421562 395.462371,431.33415 393.622625,431.653661 Z M394.469872,439.489883 L398.135836,438.853211 C396.731325,441.898077 393.62684,444.209814 389.974404,444.844137 C385.42915,445.633517 383.593398,443.083735 385.01645,437.992449 C386.443476,432.886941 390.058491,429.255207 394.495524,428.484622 C398.891974,427.721086 400.666436,430.213856 399.275185,435.19137 L398.921409,436.457081 L388.681061,438.235535 L388.621436,438.448857 C388.023645,440.77178 388.916839,441.996833 390.973025,441.639733 C392.528692,441.369558 393.760343,440.60088 394.469872,439.489883 Z" id="Aggregate" fill="#FFFFFF" fill-rule="nonzero"></path>
                    <path d="M254.634103,228.925416 L258.834705,228.925416 C258.334436,230.608534 259.582153,231.687456 262.027709,231.687456 C264.286252,231.687456 266.33884,230.594148 266.99253,229.026115 C267.544268,227.702638 266.826353,226.9402 264.50799,226.393546 L262.043379,225.818121 C258.589804,225.026912 257.555669,223.056082 258.875044,219.891245 C260.50627,215.978355 264.730213,213.403329 269.520626,213.403329 C274.095254,213.403329 276.264525,215.96397 274.852726,219.661075 L270.767209,219.661075 C271.249486,218.021114 270.180394,216.927806 268.080093,216.927806 C265.907864,216.927806 264.049501,217.9348 263.389813,219.517218 C262.856066,220.797539 263.542819,221.531206 265.758092,222.049088 L268.039296,222.581356 C271.8453,223.458879 272.893858,225.257082 271.550495,228.479462 C269.805322,232.665678 265.529834,235.226319 260.322238,235.226319 C255.373584,235.226319 253.179109,232.795149 254.634103,228.925416 Z M282.022569,215.057675 L286.208785,215.057675 L284.571561,218.98495 L287.865869,218.98495 L286.49252,222.279258 L283.198212,222.279258 L280.223622,229.414527 C279.647895,230.795547 280.016987,231.428515 281.441164,231.428515 C281.987818,231.428515 282.281527,231.414129 282.702316,231.370972 L281.370947,234.56458 C280.811085,234.66528 279.998278,234.751593 279.192683,234.751593 C275.337336,234.751593 274.334213,233.500044 275.623602,230.407135 L279.011996,222.279258 L276.537669,222.279258 L277.911018,218.98495 L280.385345,218.98495 L282.022569,215.057675 Z M284.798294,234.694051 L291.413159,218.826709 L295.469904,218.826709 L294.414405,221.358578 L294.673346,221.358578 C295.750216,219.77616 297.893939,218.567767 299.907926,218.567767 C300.483351,218.567767 301.15826,218.639695 301.463927,218.769166 L299.87468,222.581356 C299.597785,222.451886 298.673537,222.322415 297.997413,222.322415 C295.710099,222.322415 293.578333,223.674664 292.648773,225.904435 L288.98451,234.694051 L284.798294,234.694051 Z M318.587601,218.826709 L311.972736,234.694051 L307.91599,234.694051 L308.977487,232.147796 L308.718546,232.147796 C307.202857,233.989155 305.283345,235.039306 302.880946,235.039306 C299.457168,235.039306 298.239664,232.852691 299.774936,229.169972 L304.086893,218.826709 L308.273109,218.826709 L304.410939,228.09105 C303.499371,230.277665 304.024201,231.399743 305.951875,231.399743 C308.03779,231.399743 309.70561,230.090652 310.587192,227.975965 L314.401385,218.826709 L318.587601,218.826709 Z M334.495677,224.422716 L330.582787,224.422716 C330.924776,222.912226 330.259658,221.919618 328.475841,221.919618 C326.217298,221.919618 324.249696,223.602735 322.948313,226.724416 C321.628938,229.889253 322.195597,231.601142 324.439754,231.601142 C326.151643,231.601142 327.621557,230.766776 328.591731,229.198743 L332.50462,229.198743 C330.678067,232.751992 327.135107,235.039306 323.006433,235.039306 C318.057779,235.039306 316.499991,232.047096 318.71894,226.724416 C320.913899,221.459278 324.946122,218.481454 329.909162,218.481454 C334.109764,218.481454 335.655708,220.811925 334.495677,224.422716 Z M343.003226,215.057675 L347.189442,215.057675 L345.552218,218.98495 L348.846526,218.98495 L347.473177,222.279258 L344.178869,222.279258 L341.204279,229.414527 C340.628552,230.795547 340.997644,231.428515 342.421821,231.428515 C342.968475,231.428515 343.262184,231.414129 343.682973,231.370972 L342.351604,234.56458 C341.791741,234.66528 340.978935,234.751593 340.17334,234.751593 C336.317993,234.751593 335.31487,233.500044 336.604259,230.407135 L339.992653,222.279258 L337.518326,222.279258 L338.891675,218.98495 L341.366002,218.98495 L343.003226,215.057675 Z M366.750667,218.826709 L360.135802,234.694051 L356.079057,234.694051 L357.140554,232.147796 L356.881612,232.147796 C355.365924,233.989155 353.446412,235.039306 351.044013,235.039306 C347.620235,235.039306 346.40273,232.852691 347.938003,229.169972 L352.249959,218.826709 L356.436176,218.826709 L352.574006,228.09105 C351.662438,230.277665 352.187268,231.399743 354.114941,231.399743 C356.200857,231.399743 357.868677,230.090652 358.750259,227.975965 L362.564451,218.826709 L366.750667,218.826709 Z M364.336404,234.694051 L370.951269,218.826709 L375.008015,218.826709 L373.952515,221.358578 L374.211457,221.358578 C375.288327,219.77616 377.432049,218.567767 379.446037,218.567767 C380.021462,218.567767 380.696371,218.639695 381.002037,218.769166 L379.412791,222.581356 C379.135896,222.451886 378.211648,222.322415 377.535523,222.322415 C375.248209,222.322415 373.116444,223.674664 372.186884,225.904435 L368.522621,234.694051 L364.336404,234.694051 Z M389.077727,221.689448 C387.135668,221.689448 385.205301,223.041696 384.203851,225.09884 L390.965094,225.09884 C391.754365,222.998539 391.034172,221.689448 389.077727,221.689448 Z M388.934411,230.176965 L392.832915,230.176965 C390.972921,233.154789 387.43964,235.039306 383.555521,235.039306 C378.721952,235.039306 377.144996,231.989554 379.291979,226.839501 C381.444958,221.675062 385.682223,218.481454 390.400708,218.481454 C395.076035,218.481454 396.596663,221.459278 394.497658,226.494246 L393.963911,227.774566 L383.073994,227.774566 L382.984037,227.990351 C382.058045,230.349593 382.827355,231.816926 385.01397,231.816926 C386.668316,231.816926 388.050664,231.227116 388.934411,230.176965 Z" id="Structure" fill="#FFFFFF" fill-rule="nonzero" transform="translate(324.806947, 224.314824) rotate(-12.000000) translate(-324.806947, -224.314824) "></path>
                    <g id="Logo" transform="translate(182.048467, 38.594901)" fill="#5FEFFF">
                        <polygon id="Rectangle" points="85.0428098 0 100.046104 8.34516213e-13 64.3153529 58.9577866 56.9021626 46.757267"></polygon>
                        <polygon id="Triangle-Copy" transform="translate(35.542695, 29.323741) scale(1, -1) translate(-35.542695, -29.323741) " points="35.542695 9.09494702e-13 71.08539 58.6474824 53.3566595 58.6474824 35.9062711 29.9753799 18.4474358 58.6474824 0 58.6474824"></polygon>
                    </g>
                </g>
                <g id="Source-Arrows" transform="translate(156.277620, 334.351131)" fill="#FFFFFF" fill-rule="nonzero">
                    <polygon id="Line-4" points="248.327079 15.4991288 148.484953 16.4452715 148.450056 12.7627173 248.292182 11.8165746 248.18749 0.768912043 274.08751 13.4135706 248.431771 26.5467914 248.327079 15.4991288"></polygon>
                    <path d="M247.838551,14.9008974 C202.795592,16.0480309 169.371825,33.7672989 147.361489,68.112868 C140.250033,79.2097912 135.828966,86.1243966 132.575683,91.226154 C131.96391,92.1857024 131.96391,92.1857024 131.611432,92.7384357 C131.477081,92.9489125 131.477081,92.9489125 131.39313,93.0799539 C131.345399,93.1570627 131.345399,93.1570627 131.193234,93.3664288 C131.174671,93.388839 131.174671,93.388839 131.058962,93.5129718 L130.821475,93.7095248 L130.650503,93.6806847 C128.61114,96.663132 125.021305,102.020718 119.619048,110.157905 C99.6178928,140.284782 60.4740576,148.207809 2.56773947,134.223475 L0.777835379,133.791215 L1.64235644,130.211407 L3.43226053,130.643667 C59.9991396,144.304527 97.5786282,136.698137 116.550924,108.120986 C123.527566,97.6123701 127.488805,91.7281724 129.025439,89.5598185 C129.369793,89.0738971 129.594863,88.7702641 129.745496,88.5926701 C129.823586,88.5010244 129.823586,88.5010244 129.976372,88.3523037 C130.032223,88.3017384 130.060883,88.2757908 130.111753,88.2408163 C133.303858,83.2372856 137.604218,76.5129984 144.260836,66.1258165 C166.994317,30.6518316 201.644129,12.3293929 248.003308,11.2129847 L248.501804,0.0547472787 L273.679887,14.0819551 L247.351271,25.8080968 L247.838551,14.9008974 L247.838551,14.9008974 Z" id="Line-5"></path>
                    <path d="M247.875945,15.2018105 C210.157987,16.9732901 180.835856,28.6941473 159.812195,50.3393757 C134.18507,76.7241709 120.246917,117.900115 118.083615,173.935201 L118.01258,175.77519 L114.332602,175.63312 L114.403637,173.793131 C116.599061,116.92601 130.826045,74.8968036 157.170465,47.7735061 C178.932241,25.3683398 209.217367,13.2897977 247.927891,11.5127203 L248.084884,0.363438551 L273.679887,13.614638 L247.721926,26.1399201 L247.875945,15.2018105 Z" id="Line-6"></path>
                </g>
                <g id="Sources" transform="translate(0.000000, 172.881020)"></g>
            </g>
        </g>
    </g>
</svg>