<svg xmlns="http://www.w3.org/2000/svg" width="124.447" height="125.628" viewBox="0 0 124.447 125.628"><path d="M3.064,78.292a14.8,14.8,0,0,0,2.16,1.256c.9.463,2.4,1.237,2.509,1.78a3.66,3.66,0,0,1-.245,2.121c-.31.67-.634,1.246-.915,1.742-.761,1.355-2.035,3.624-.114,5.2.449.419,1.225,1.024,1.931,1.57a5.3,5.3,0,0,0-.676,3.021,3.018,3.018,0,0,0,1.233,2.058c.462.329.954.613,1.441.892,1.229.706,1.709,1.034,1.871,1.69a5.807,5.807,0,0,1-.208,2.512c-.123.559-.241,1.12-.312,1.675a12.541,12.541,0,0,0,.684,5.64,7.8,7.8,0,0,0,7.354,5.705,8.3,8.3,0,0,0,1.7-.182A156.934,156.934,0,0,0,39.012,109.7c4.684,2.768,7.643,11.184,8.414,14.344a2.082,2.082,0,0,0,2.019,1.589l52.186-.147a2.075,2.075,0,0,0,1.673-.857,2.106,2.106,0,0,0,.306-1.865,16.2,16.2,0,0,0-2.106-3.978,19.582,19.582,0,0,1-1.345-2.265,39.718,39.718,0,0,1-2.347-5.954A71.079,71.079,0,0,1,95.37,98.314a2.093,2.093,0,0,0-1.238-1.73,2.067,2.067,0,0,0-2.1.26,2.1,2.1,0,0,0-.785,1.981,75.132,75.132,0,0,0,2.593,12.981,44.06,44.06,0,0,0,2.58,6.553A23.261,23.261,0,0,0,98.03,121.1l.139.209-47.152.136A33.422,33.422,0,0,0,43.7,108.07l1.871-.66c1.393-.49,2.443-.858,2.981-1.032,8.907-2.837,13.36-6.922,13.24-12.143a2.046,2.046,0,0,0-.624-1.478,2.017,2.017,0,0,0-1.493-.565,2.087,2.087,0,0,0-2.029,2.142c.05,2.154-1.7,5.3-10.346,8.05-.563.182-1.649.563-3.09,1.07-1.545.544-3.51,1.235-5.676,1.976h-.015a160.945,160.945,0,0,1-17.88,5.444,3.68,3.68,0,0,1-4.279-2.791,8.378,8.378,0,0,1-.489-3.735c.054-.44.154-.875.249-1.313a9.235,9.235,0,0,0,.181-4.457,6.94,6.94,0,0,0-3.848-4.28l-.432-.249a7.858,7.858,0,0,1,.8-1.294,2.1,2.1,0,0,0-.4-2.981c-.5-.368-1.676-1.256-2.537-1.956.1-.182.208-.383.312-.565.326-.576.7-1.246,1.062-2.02a7.9,7.9,0,0,0,.555-4.686c-.5-2.554-2.927-3.806-4.7-4.719a11.794,11.794,0,0,1-1.709-1A8.84,8.84,0,0,1,4.16,73.807c0-.316.337-1.082,1.921-3.027A84.323,84.323,0,0,0,15.6,55.215a6.217,6.217,0,0,0,.8-2.833,7.338,7.338,0,0,0-3.038-5.234c-.842-.777-1.634-1.51-1.726-2.186a3.827,3.827,0,0,1,.324-1.438c.339-.9.73-1.778,1.123-2.659a30.723,30.723,0,0,0,2.033-5.521l.208-.892a52.63,52.63,0,0,1,1.7-6.181A35.949,35.949,0,0,1,24.487,16c3.977-4.238,10.238-7.236,18.637-8.917A134.261,134.261,0,0,1,62.631,4.253a44.039,44.039,0,0,1,9.786.559A2.094,2.094,0,0,0,73.128.687,47.956,47.956,0,0,0,62.415.072,137.863,137.863,0,0,0,42.3,2.978C32.929,4.862,26.115,8.172,21.464,13.122a40.164,40.164,0,0,0-8.339,13.7,57.1,57.1,0,0,0-1.842,6.685l-.208.884A27.441,27.441,0,0,1,9.3,39.159c-.416.955-.848,1.909-1.22,2.9a7.056,7.056,0,0,0-.551,3.5,8,8,0,0,0,3.031,4.675c1.017.94,1.684,1.6,1.692,2.177a3.49,3.49,0,0,1-.356.911,80.875,80.875,0,0,1-9.106,14.9c-1.5,1.845-3.077,3.995-2.742,6.145A6.386,6.386,0,0,0,3.064,78.292Z" fill="#cb58eb"/><path d="M4.18,25.05l.212-.937A46.684,46.684,0,0,1,5.8,18.937a27.715,27.715,0,0,1,5.813-9.476,22.218,22.218,0,0,1,9.763-5.329A2.1,2.1,0,0,0,22.242.558,2.128,2.128,0,0,0,20.148.1,26.276,26.276,0,0,0,8.537,6.571a31.933,31.933,0,0,0-6.7,10.914,49.95,49.95,0,0,0-1.57,5.7L.055,24.1a2.116,2.116,0,0,0,4.124.95Z" transform="translate(18.558 12.229)" fill="#cb58eb"/><ellipse cx="2.183" cy="2.224" rx="2.183" ry="2.224" transform="translate(16.375 41.135)" fill="#cb58eb"/><path d="M27.291,84.493a8.432,8.432,0,0,1-8.4-8.449v-.389a6.349,6.349,0,0,1-4.2-5.948V65.482a6.3,6.3,0,0,1,3.98-5.881c-.779-3.2-3.681-5.459-6.753-7.85A36.177,36.177,0,0,1,7.1,47.527,29,29,0,0,1,.005,27.9,27.96,27.96,0,0,1,8,8.36,27.6,27.6,0,0,1,27.291,0,27.6,27.6,0,0,1,46.58,8.36a27.96,27.96,0,0,1,8,19.543,29.027,29.027,0,0,1-7.1,19.624,36.292,36.292,0,0,1-4.828,4.225C39.712,54.037,36.675,56.4,35.9,59.6a6.305,6.305,0,0,1,3.988,5.881v4.225a6.347,6.347,0,0,1-4.2,5.948v.389A8.432,8.432,0,0,1,27.291,84.493Zm-4.2-8.449a4.2,4.2,0,1,0,8.4,0Zm-2.1-12.674a2.108,2.108,0,0,0-2.1,2.112v4.225a2.108,2.108,0,0,0,2.1,2.112H33.588a2.108,2.108,0,0,0,2.1-2.112V65.482a2.108,2.108,0,0,0-2.1-2.112Zm4.2-27.46V59.145h4.2V35.91Zm8.4,0V54.659a29.4,29.4,0,0,1,6.506-6.251A32.944,32.944,0,0,0,44.37,44.7a24.755,24.755,0,0,0,6.008-16.727C50.18,15.1,39.607,4.225,27.291,4.225S4.414,15.1,4.2,27.969A24.731,24.731,0,0,0,10.221,44.7,32.96,32.96,0,0,0,14.5,48.41a29.392,29.392,0,0,1,6.5,6.249V35.91H18.9a6.337,6.337,0,1,1,6.3-6.338v2.113h4.2V29.572a6.3,6.3,0,1,1,6.3,6.338Zm2.1-8.45a2.108,2.108,0,0,0-2.1,2.112v2.113h2.1a2.113,2.113,0,0,0,0-4.226Zm-16.791,0a2.113,2.113,0,0,0,0,4.226h2.1V29.572A2.108,2.108,0,0,0,18.9,27.46Z" transform="translate(55.674 14.453)" fill="#cb58eb"/><path d="M2.183,4.447h6.55a2.2,2.2,0,0,0,2.183-2.224A2.2,2.2,0,0,0,8.733,0H2.183A2.2,2.2,0,0,0,0,2.224,2.2,2.2,0,0,0,2.183,4.447Z" transform="translate(113.531 38.911)" fill="#cb58eb"/><path d="M2.114,8.894a2.093,2.093,0,0,0,1.5-.63L8.088,3.7a2.178,2.178,0,0,0,.576-2.092A2.132,2.132,0,0,0,7.156.07,2.086,2.086,0,0,0,5.1.657L.621,5.22a2.181,2.181,0,0,0-.46,2.346A2.112,2.112,0,0,0,2.114,8.894Z" transform="translate(103.706 11.118)" fill="#cb58eb"/><path d="M2.183,10.006A2.1,2.1,0,0,0,4.367,8V2A2.1,2.1,0,0,0,2.183,0,2.1,2.1,0,0,0,0,2V8A2.1,2.1,0,0,0,2.183,10.006Z" transform="translate(80.781)" fill="#cb58eb"/><path d="M8.114,8.263a2.179,2.179,0,0,0,0-3.044L3.632.657A2.087,2.087,0,0,0,1.577.07,2.132,2.132,0,0,0,.069,1.606,2.178,2.178,0,0,0,.645,3.7l4.48,4.565a2.085,2.085,0,0,0,2.989,0Z" transform="translate(52.399 11.118)" fill="#cb58eb"/><path d="M2.183,0A2.2,2.2,0,0,0,0,2.224,2.2,2.2,0,0,0,2.183,4.447h6.55a2.2,2.2,0,0,0,2.183-2.224A2.2,2.2,0,0,0,8.733,0Z" transform="translate(41.482 38.911)" fill="#cb58eb"/></svg>