<svg xmlns="http://www.w3.org/2000/svg" xmlns:xlink="http://www.w3.org/1999/xlink" width="123.441" height="123.439" viewBox="0 0 123.441 123.439"><defs><linearGradient id="a" x1="1" y1="0.5" x2="0" y2="0.5" gradientUnits="objectBoundingBox"><stop offset="0" stop-color="#cb58eb"/><stop offset="1" stop-color="#c800ff"/></linearGradient></defs><g transform="translate(-0.777 -0.779)"><path d="M3.031,76.927a15.1,15.1,0,0,0,2.135,1.234c.891.455,2.38,1.216,2.485,1.751a3.553,3.553,0,0,1-.241,2.082c-.307.658-.63,1.224-.905,1.714-.755,1.329-2.014,3.557-.113,5.112.444.411,1.212,1.006,1.913,1.543a5.184,5.184,0,0,0-.671,2.969,2.969,2.969,0,0,0,1.208,2.016c.463.329.959.617,1.44.895,1.21.689,1.683,1.01,1.852,1.646a5.68,5.68,0,0,1-.226,2.491c-.121.535-.239,1.068-.315,1.615a12.093,12.093,0,0,0,.7,5.542,7.709,7.709,0,0,0,7.289,5.616,8.369,8.369,0,0,0,1.681-.177A155.972,155.972,0,0,0,38.6,107.786c4.633,2.72,7.563,10.99,8.326,14.094a2.057,2.057,0,0,0,2,1.559l51.638-.144a2.057,2.057,0,0,0,1.959-2.674,15.893,15.893,0,0,0-2.084-3.909,19.093,19.093,0,0,1-1.333-2.222,39.168,39.168,0,0,1-2.323-5.857,69.33,69.33,0,0,1-2.434-12.171,34.828,34.828,0,0,1,2.7-18.065,45.986,45.986,0,0,1,5.588-8.832c1.234-1.666,2.516-3.392,3.666-5.2a31.818,31.818,0,0,0,4.238-10.019,2.057,2.057,0,0,0-4.008-.93,27.773,27.773,0,0,1-3.7,8.743c-1.068,1.689-2.3,3.351-3.5,4.96a49.716,49.716,0,0,0-6.055,9.638,38.92,38.92,0,0,0-3.016,20.2,73.014,73.014,0,0,0,2.594,12.905,42.9,42.9,0,0,0,2.553,6.443,22.493,22.493,0,0,0,1.594,2.674l.138.206-46.663.14a32.807,32.807,0,0,0-7.244-13.138l1.852-.644c1.382-.483,2.426-.848,2.965-1.029,8.809-2.808,13.216-6.82,13.095-11.932a2.02,2.02,0,0,0-2.1-2,2.057,2.057,0,0,0-2.008,2.1c.049,2.1-1.685,5.186-10.237,7.91-.56.179-1.646.555-3.067,1.055-1.529.533-3.467,1.212-5.606,1.938h-.014a160.219,160.219,0,0,1-17.68,5.349A3.664,3.664,0,0,1,16.2,106.2a8.229,8.229,0,0,1-.508-3.645c.06-.411.156-.843.251-1.263a8.978,8.978,0,0,0,.206-4.429,6.818,6.818,0,0,0-3.8-4.2l-.442-.253a7.571,7.571,0,0,1,.794-1.276,2.057,2.057,0,0,0-.4-2.93c-.492-.362-1.646-1.234-2.51-1.921.1-.179.206-.376.311-.553.323-.568.693-1.234,1.051-1.989a7.68,7.68,0,0,0,.547-4.6c-.492-2.51-2.9-3.74-4.651-4.637a11.9,11.9,0,0,1-1.7-.985,8.764,8.764,0,0,1-1.234-1c0-.313.335-1.068,1.9-2.975a83,83,0,0,0,9.412-15.3,6.114,6.114,0,0,0,.794-2.781,7.2,7.2,0,0,0-3.018-5.143c-.833-.765-1.621-1.485-1.71-2.092a4.043,4.043,0,0,1,.333-1.463c.335-.881.724-1.745,1.111-2.611A30.2,30.2,0,0,0,15,34.582a55.18,55.18,0,0,1,1.852-6.805,35.272,35.272,0,0,1,7.382-12.058c3.934-4.166,10.126-7.112,18.437-8.762a133.688,133.688,0,0,1,19.3-2.781,45.032,45.032,0,0,1,6.552.14A2.062,2.062,0,1,0,68.909.209,50.043,50.043,0,0,0,61.758.067a137.321,137.321,0,0,0-19.9,2.855c-9.276,1.852-16.018,5.1-20.618,9.967a39.35,39.35,0,0,0-8.254,13.461,60.142,60.142,0,0,0-2.026,7.435A26.644,26.644,0,0,1,9.2,38.476c-.411.936-.835,1.872-1.206,2.845a7.188,7.188,0,0,0-.56,3.454,7.91,7.91,0,0,0,3.01,4.579c1.008.924,1.673,1.574,1.681,2.142a3.485,3.485,0,0,1-.35.893,79.411,79.411,0,0,1-9,14.629C1.28,68.835-.283,70.952.044,73.071A6.3,6.3,0,0,0,3.031,76.927Z" transform="translate(0.777 0.779)" fill="url(#a)"/><path d="M5.551,19.689A27.1,27.1,0,0,1,11.2,10.431c2.742-2.9,7.484-5.04,14.1-6.355a2.057,2.057,0,0,0-.8-4.036C17.026,1.525,11.547,4.068,8.206,7.6A31.188,31.188,0,0,0,1.689,18.271,52.321,52.321,0,0,0,0,24.548l4.018.891A49.169,49.169,0,0,1,5.551,19.689Z" transform="translate(19.791 11.724)" fill="url(#a)"/><path d="M35.348,74.062h-4.86a4.128,4.128,0,0,1-4.036-3.3l-1.235-6.147a24.641,24.641,0,0,1-3.464-1.44l-5.2,3.481a4.127,4.127,0,0,1-5.213-.542L7.926,62.7A4.13,4.13,0,0,1,7.39,57.53l3.5-5.224a24.57,24.57,0,0,1-1.44-3.464L3.291,47.607A4.127,4.127,0,0,1,0,43.574V38.718a4.125,4.125,0,0,1,3.3-4.036l6.147-1.234a24.579,24.579,0,0,1,1.44-3.465l-3.481-5.2a4.12,4.12,0,0,1,.544-5.215l3.415-3.413a4.114,4.114,0,0,1,5.168-.537l5.224,3.5a24.57,24.57,0,0,1,3.464-1.44l1.235-6.155a4.13,4.13,0,0,1,4.032-3.292h4.857a4.149,4.149,0,0,1,.808.089L38,6.466a3.721,3.721,0,0,1,4.624-.514l4.019,2.695a19.092,19.092,0,0,1,2.39-1l.931-4.676A3.715,3.715,0,0,1,53.6,0h3.893a3.71,3.71,0,0,1,3.633,2.989l.931,4.656a19.36,19.36,0,0,1,2.39,1l3.971-2.654a3.733,3.733,0,0,1,4.678.479L75.831,9.2a3.694,3.694,0,0,1,.514,4.624l-2.695,4.019a19.032,19.032,0,0,1,.992,2.39l4.675.931a3.713,3.713,0,0,1,2.973,3.644v3.867A3.707,3.707,0,0,1,79.3,32.326l-4.656.928a19.262,19.262,0,0,1-1,2.39L76.3,39.615a3.736,3.736,0,0,1-.48,4.678L73.089,47.03a3.681,3.681,0,0,1-2.627,1.093,3.745,3.745,0,0,1-2-.579l-3.1-2.077a4.076,4.076,0,0,1-2.832,2.143l-6.147,1.235a24.507,24.507,0,0,1-1.441,3.464l3.481,5.2a4.119,4.119,0,0,1-.543,5.215l-3.414,3.414a4.113,4.113,0,0,1-5.168.536l-5.223-3.5a24.6,24.6,0,0,1-3.465,1.44l-1.234,6.156A4.128,4.128,0,0,1,35.348,74.062ZM21.641,58.708a2.057,2.057,0,0,1,1.032.278A20.293,20.293,0,0,0,27.53,61a2.048,2.048,0,0,1,1.48,1.58l1.479,7.365h4.855l1.473-7.358a2.047,2.047,0,0,1,1.479-1.58,20.263,20.263,0,0,0,4.857-2.016,2.057,2.057,0,0,1,2.177.07l6.232,4.176,3.429-3.448-4.164-6.225a2.069,2.069,0,0,1-.069-2.176,20.293,20.293,0,0,0,2.016-4.857,2.045,2.045,0,0,1,1.579-1.48l7.366-1.479V38.716l-7.359-1.472a2.045,2.045,0,0,1-1.58-1.479,20.263,20.263,0,0,0-2.016-4.857,2.046,2.046,0,0,1,.069-2.177L55.01,22.5l-3.448-3.429-6.225,4.164a2.059,2.059,0,0,1-2.177.069A20.263,20.263,0,0,0,38.3,21.289a2.045,2.045,0,0,1-1.479-1.58l-1.48-7.366H30.488L29.008,19.7a2.047,2.047,0,0,1-1.472,1.58A20.274,20.274,0,0,0,22.679,23.3a2.057,2.057,0,0,1-2.176-.069l-6.232-4.177L10.841,22.5l4.164,6.225a2.044,2.044,0,0,1,.07,2.177A20.263,20.263,0,0,0,13.06,35.76a2.045,2.045,0,0,1-1.58,1.479l-7.365,1.48v4.855l7.358,1.472a2.047,2.047,0,0,1,1.58,1.48,20.274,20.274,0,0,0,2.016,4.857A2.068,2.068,0,0,1,15,53.559l-4.176,6.232,3.448,3.43L20.5,59.056A2.048,2.048,0,0,1,21.641,58.708ZM55.814,14.4h.035a12.315,12.315,0,0,1,8.544,21.184,4.123,4.123,0,0,1,1.441,3.133v2.1l4.585,3.067L72.7,41.6l-3.155-4.7a2.069,2.069,0,0,1-.06-2.2,15.033,15.033,0,0,0,1.574-3.765,2.045,2.045,0,0,1,1.584-1.481l5.544-1.1V25.136l-5.554-1.105A2.046,2.046,0,0,1,71.05,22.55a15.054,15.054,0,0,0-1.573-3.765,2.069,2.069,0,0,1,.059-2.2l3.154-4.705L70.406,9.6l-4.7,3.155a2.057,2.057,0,0,1-2.2.072,15.03,15.03,0,0,0-3.765-1.573A2.048,2.048,0,0,1,58.26,9.67l-1.1-5.555H53.938L52.833,9.657a2.043,2.043,0,0,1-1.481,1.584,15.044,15.044,0,0,0-3.765,1.574,2.055,2.055,0,0,1-2.2-.06l-4.7-3.16-1.448,1.449a3.888,3.888,0,0,1,.142.485l1.234,6.147a24.543,24.543,0,0,1,3.465,1.44l5.195-3.48a4.157,4.157,0,0,1,2.277-.678,4.223,4.223,0,0,1,.6.044A11.89,11.89,0,0,1,55.814,14.4Zm1.132,4.224.96.96v.006a4.131,4.131,0,0,1,.531,5.172l-3.5,5.224a24.57,24.57,0,0,1,1.44,3.464l3.123.617a8.186,8.186,0,0,0-2.557-15.444Z" transform="translate(41.927 0.782)" fill="url(#a)"/><path d="M14.4,28.8A14.4,14.4,0,0,1,4.218,4.218,14.4,14.4,0,1,1,24.584,24.584,14.307,14.307,0,0,1,14.4,28.8Zm0-24.687A10.286,10.286,0,1,0,24.687,14.4,10.314,10.314,0,0,0,14.4,4.115Z" transform="translate(60.443 27.526)" fill="url(#a)"/><circle cx="2.057" cy="2.057" r="2.057" transform="translate(72.786 39.87)" fill="url(#a)"/><circle cx="2.057" cy="2.057" r="2.057" transform="translate(17.24 41.927)" fill="url(#a)"/></g></svg>