<svg xmlns="http://www.w3.org/2000/svg" xmlns:xlink="http://www.w3.org/1999/xlink" width="123.738" height="125.916" viewBox="0 0 123.738 125.916"><defs><linearGradient id="a" x1="1" y1="0.5" x2="0" y2="0.5" gradientUnits="objectBoundingBox"><stop offset="0" stop-color="#cb58eb"/><stop offset="1" stop-color="#c800ff"/></linearGradient></defs><g transform="translate(-0.811 -0.773)"><path d="M49.894,125.916h0a2.094,2.094,0,0,1-2.036-1.592c-.75-3.052-3.737-11.584-8.49-14.372a160.163,160.163,0,0,1-17.687,5.293,8.526,8.526,0,0,1-1.721.182,7.854,7.854,0,0,1-7.42-5.716,12.576,12.576,0,0,1-.688-5.652c.071-.566.2-1.151.311-1.667l0-.011a5.8,5.8,0,0,0,.21-2.517c-.163-.655-.647-.985-1.888-1.693-.553-.315-1.011-.58-1.453-.892a3.043,3.043,0,0,1-1.245-2.064,5.27,5.27,0,0,1,.684-3.028C7.777,91.657,7,91.054,6.52,90.614c-1.944-1.591-.654-3.858.116-5.212l.057-.1c.253-.449.567-1.007.866-1.647A3.62,3.62,0,0,0,7.8,81.528C7.7,80.99,6.2,80.22,5.3,79.76l-.009,0-.022-.011a15.281,15.281,0,0,1-2.179-1.258A6.463,6.463,0,0,1,.045,74.557C-.29,72.392,1.3,70.241,2.821,68.394A81.2,81.2,0,0,0,12,53.467a3.483,3.483,0,0,0,.357-.911c-.009-.578-.681-1.238-1.705-2.179A8.014,8.014,0,0,1,7.6,45.687a7.083,7.083,0,0,1,.55-3.5c.325-.851.69-1.677,1.043-2.476l0-.008c.062-.139.124-.28.185-.419a27,27,0,0,0,1.8-4.783l.21-.885a56.761,56.761,0,0,1,1.859-6.7,39.953,39.953,0,0,1,8.417-13.726c4.679-4.95,11.556-8.275,21.025-10.165A140.547,140.547,0,0,1,62.978.111c.867-.038,1.751-.057,2.7-.057.415,0,.846,0,1.315.01.372-.019.746-.028,1.113-.028a22.523,22.523,0,0,1,3.678.3c.177.035.352.076.516.116.116.028.259.063.4.094l.034,0,.019,0,.017,0,.026,0,.023,0c.034,0,.066.007.091.011A.31.31,0,0,1,72.99.6L73,.6a.3.3,0,0,0,.063.023A22.419,22.419,0,0,1,86.019,9.148a22.337,22.337,0,0,1,14.213-8.8,21.028,21.028,0,0,1,17.2,4.491c8.24,7.177,8.418,21.326.443,35.208a37.009,37.009,0,0,1-4.321,6.218c0,.251,0,.5,0,.746v.041c0,.482.007.936,0,1.394a32.042,32.042,0,0,1-5.151,17.234c-1.146,1.8-2.419,3.523-3.65,5.186l-.02.027-.024.032-.045.06a46.97,46.97,0,0,0-5.7,9.006A35.531,35.531,0,0,0,96.214,98.41a70.59,70.59,0,0,0,2.48,12.411,40.353,40.353,0,0,0,2.369,5.972,19.925,19.925,0,0,0,1.357,2.264,16.278,16.278,0,0,1,2.127,3.986,2.1,2.1,0,0,1-2,2.727Zm10.355-33.5a2.111,2.111,0,0,1,2.1,2.049c.121,5.232-4.374,9.325-13.361,12.167-.515.166-1.475.5-2.8.963l-.005,0-.194.067-1.888.663a33.616,33.616,0,0,1,7.385,13.4l47.583-.145-.14-.21a22.97,22.97,0,0,1-1.625-2.727,44.065,44.065,0,0,1-2.6-6.568,74.753,74.753,0,0,1-2.633-13.152,39.74,39.74,0,0,1,3.075-20.6,50.77,50.77,0,0,1,6.174-9.828l.008-.01c1.215-1.636,2.472-3.329,3.558-5.048a28.019,28.019,0,0,0,4.358-12.6A122.116,122.116,0,0,1,87.079,66.9a2.1,2.1,0,0,1-2.1,0c-1.771-1.02-3.641-2.169-5.885-3.616A69.068,69.068,0,0,1,68.044,71.1a2.1,2.1,0,0,1-2.1,0C61.122,68.3,52.522,62.674,49.133,56.369c-4.49-7.793-4.3-15.814.473-19.957a10.983,10.983,0,0,1,2.035-1.384C46.4,23.007,47.38,11.6,54.186,5.248,50.9,5.723,47.414,6.34,43.517,7.136c-8.465,1.683-14.792,4.689-18.806,8.935a35.828,35.828,0,0,0-7.527,12.295,52.582,52.582,0,0,0-1.718,6.193l-.211.894A30.677,30.677,0,0,1,13.2,40.99l-.034.076c-.377.842-.766,1.712-1.1,2.584a3.917,3.917,0,0,0-.326,1.439c.09.661.858,1.373,1.672,2.128l.07.065a7.322,7.322,0,0,1,3.065,5.244,6.25,6.25,0,0,1-.81,2.837,84.758,84.758,0,0,1-9.6,15.591C4.548,72.9,4.2,73.68,4.194,73.993a8.99,8.99,0,0,0,1.259,1.02,12.108,12.108,0,0,0,1.729,1c1.79.916,4.242,2.17,4.745,4.729a7.809,7.809,0,0,1-.56,4.7c-.362.761-.729,1.424-1.072,2.027-.087.147-.175.306-.26.461l-.057.1c.841.677,2.017,1.561,2.561,1.959a2.1,2.1,0,0,1,.4,2.987,7.9,7.9,0,0,0-.809,1.3c.155.09.3.174.436.249a6.949,6.949,0,0,1,3.882,4.29,9.214,9.214,0,0,1-.181,4.462l-.017.078c-.089.405-.181.825-.234,1.237a8.443,8.443,0,0,0,.492,3.745,3.719,3.719,0,0,0,3.625,2.858,3.76,3.76,0,0,0,.676-.062,164.311,164.311,0,0,0,18.041-5.454h.013c2.1-.713,4-1.378,5.535-1.913l.2-.069.113-.039c1.42-.5,2.445-.853,3-1.031,8.721-2.758,10.491-5.908,10.441-8.066A2.1,2.1,0,0,1,60.2,92.413ZM57.314,37.806a7.851,7.851,0,0,0-4.961,1.771c-3.21,2.788-3.032,8.714.442,14.747,2.03,3.773,7.2,8.335,14.2,12.516,7-4.189,12.164-8.732,14.171-12.463,3.493-6.067,3.682-12.015.472-14.8a8.113,8.113,0,0,0-6.529-1.652,8.894,8.894,0,0,0-6.294,4.588,2.1,2.1,0,0,1-3.637,0,8.889,8.889,0,0,0-6.294-4.588,8.66,8.66,0,0,0-1.433-.119Zm19.28-4.212h0a12.239,12.239,0,0,1,7.8,2.813c4.773,4.143,4.951,12.185.443,20.011a21.022,21.022,0,0,1-2.7,3.8l.317.2.327.209,0,0C83.833,61.3,84.92,62,86.019,62.65,94.2,57.809,108.74,48.169,114.212,38c6.964-12.123,7.153-24.178.47-30a17.065,17.065,0,0,0-13.747-3.52,18.579,18.579,0,0,0-13.1,9.509,2.184,2.184,0,0,1-3.637,0A18.789,18.789,0,0,0,71.963,4.682a46.185,46.185,0,0,0-4.724-.419A16.479,16.479,0,0,0,57.35,8.006c-2.864,2.5-4.532,6.225-4.824,10.785a32.23,32.23,0,0,0,3.145,14.948A12.735,12.735,0,0,1,67,37.905a12.8,12.8,0,0,1,7.418-4.116A12.274,12.274,0,0,1,76.594,33.594Z" transform="translate(0.811 0.773)" fill="url(#a)"/><path d="M1.618,26.514a2.1,2.1,0,0,0,2.517-1.567l.21-.908a46.549,46.549,0,0,1,1.4-5.184,27.692,27.692,0,0,1,5.757-9.44A21.96,21.96,0,0,1,21.176,4.1,2.1,2.1,0,0,0,19.951.091a25.994,25.994,0,0,0-11.5,6.442A31.873,31.873,0,0,0,1.817,17.407,49.91,49.91,0,0,0,.265,23.088L.055,24A2.1,2.1,0,0,0,1.618,26.514Z" transform="translate(20.107 13.201)" fill="url(#a)"/><path d="M1.052,10.55a2.1,2.1,0,0,0,2.864-.77,10.217,10.217,0,0,1,7.217-5.421,8.725,8.725,0,0,1,6.845,1.573,2.1,2.1,0,0,0,2.754-3.17A12.8,12.8,0,0,0,10.438.218,14.286,14.286,0,0,0,.28,7.684a2.1,2.1,0,0,0,.772,2.866Z" transform="translate(92.004 9.174)" fill="url(#a)"/><circle cx="2.098" cy="2.098" r="2.098" transform="translate(17.601 42.775)" fill="url(#a)"/></g></svg>