<svg xmlns="http://www.w3.org/2000/svg" xmlns:xlink="http://www.w3.org/1999/xlink" id="Layer_1" data-name="Layer 1" viewBox="0 0 1529.96 800.85"><title>powers-illustration</title><g id="Group_2" data-name="Group 2"><a xlink:href="https://timber.io" target="_blank"><g xmlns="http://www.w3.org/2000/svg" id="Multi-Cloud"><circle id="Oval" cx="573.52" cy="104.86" r="69.75" fill="#fff"/><path id="Multi-Cloud-2" d="M6819.7,6834.63c-7.65,0-12.4-5.29-12.4-13.8,0-4.16,1.16-7.64,3.36-10.07a11.75,11.75,0,0,1,9-3.7,12.12,12.12,0,0,1,7.86,2.65,10.17,10.17,0,0,1,3.64,6.94h-4.7a6.69,6.69,0,0,0-6.8-5.54c-4.57,0-7.52,3.81-7.52,9.72s2.89,9.74,7.54,9.74c3.53,0,6.07-1.91,6.8-5.12h4.68a10.27,10.27,0,0,1-3.7,6.73A12.37,12.37,0,0,1,6819.7,6834.63Zm32-.06a9.18,9.18,0,0,1-6.9-2.71,12.06,12.06,0,0,1,0-14.95,10.06,10.06,0,0,1,13.77,0,12.1,12.1,0,0,1,0,15A9.22,9.22,0,0,1,6851.67,6834.57Zm0-16.73a4.18,4.18,0,0,0-3.49,1.71,9.55,9.55,0,0,0,0,9.67,4.45,4.45,0,0,0,6.24.77,4.61,4.61,0,0,0,.76-.77,9.58,9.58,0,0,0,0-9.67,4.22,4.22,0,0,0-3.5-1.72Zm19.3,16.69c-4.29,0-6.95-2.79-6.95-7.28v-12.67h4.6v11.74c0,2.83,1.37,4.33,4,4.33s4.3-1.86,4.3-4.73v-11.34h4.6v19.6h-4.43v-3.4h-.1a6.08,6.08,0,0,1-2.26,2.77,6.76,6.76,0,0,1-3.72,1Zm-124,0c-4.29,0-7-2.79-7-7.28v-12.67h4.6v11.74c0,2.83,1.37,4.33,4,4.33s4.31-1.86,4.31-4.73v-11.34h4.6v19.6h-4.43v-3.4H6753a6,6,0,0,1-2.27,2.77,6.76,6.76,0,0,1-3.72,1Zm145.58,0a7.37,7.37,0,0,1-5.92-2.73,13.41,13.41,0,0,1,0-14.78,7.34,7.34,0,0,1,5.92-2.74,6.5,6.5,0,0,1,6.06,3.63h.11V6807.5h4.61v26.68h-4.51v-3.35h-.08a6.67,6.67,0,0,1-6.19,3.67ZM6894,6818c-3,0-4.8,2.43-4.8,6.34s1.84,6.34,4.8,6.34,4.81-2.49,4.81-6.34-1.88-6.34-4.8-6.34Zm-116.86,16.23c-4.25,0-5.9-1.48-5.9-5.3v-10.84h-2.81v-3.55h2.81V6810h4.6v4.58h3.7v3.55h-3.7v10.19a2.06,2.06,0,0,0,1.71,2.35,2.36,2.36,0,0,0,.65,0,9.76,9.76,0,0,0,1.32-.09v3.51A12.66,12.66,0,0,1,6777.09,6834.27Zm-64.43-.09h-4.31V6807.5h5.53l8.17,20.36h.15l8.17-20.36h5.51v26.68h-4.29v-18.93h-.13l-7.71,18.93h-3.26l-7.71-18.93h-.12v18.93Zm126.42,0h-4.6V6807.5h4.6v26.68Zm-51.75,0h-4.6v-19.6h4.6v19.6Zm-21.33,0h-4.6V6807.5h4.6v26.68Zm37.66-8.78h-12.15v-4.1h12.15ZM6785,6811.63a2.5,2.5,0,1,1,2.53-2.5,2.52,2.52,0,0,1-2.53,2.5Z" transform="translate(-6412.52 -6799.08)" fill="#fff"/><g id="cloud-computing"><path id="Shape" d="M7020.5,6929.73h-21.17a9.34,9.34,0,0,1-9.17-7.73h-8a8.58,8.58,0,0,1-8.5,7.73h-21.16a9.32,9.32,0,0,1-.11-18.63,11.28,11.28,0,0,1,12-10.46,10.92,10.92,0,0,1,2.72.53l6.95-12a9.31,9.31,0,0,1,1.71-18.45,11.27,11.27,0,0,1,22.52.79c0,.29,0,.58,0,.86a8.53,8.53,0,0,1-.13,16.91l7.25,12.57a11.28,11.28,0,0,1,16.33,10.08,8.12,8.12,0,0,1,0,.86,8.53,8.53,0,0,1-1.22,17Zm-39.73-40.42-8.7,15.07a11.3,11.3,0,0,1,2.86,7.51c0,.28,0,.57,0,.86a8.61,8.61,0,0,1,5.65,3.4h10.51a9.3,9.3,0,0,1,8.17-5,11.36,11.36,0,0,1,1.76-5.29l-9.53-16.5Z" transform="translate(-6412.52 -6799.08)" fill="#37c9ff"/></g></g></a><a xlink:href="https://timber.io" target="_blank"><g xmlns="http://www.w3.org/2000/svg" id="Lock-In"><circle id="Oval-2" cx="360.28" cy="379.87" r="69.75" fill="#fff"/><g id="lock"><path id="Path" d="M6764.09,7159.43v7.7h10.52v-7.7a16.35,16.35,0,1,0-32.7,0v18.21h10.51v-18.21a5.84,5.84,0,0,1,11.67,0Z" transform="translate(-6412.52 -6799.08)" fill="#4969f6"/><path id="Shape-2" d="M6801.69,7202.86h-41.1v-32.22h41.1v32.22Zm-20.55-24a5.26,5.26,0,0,0-1.75,10.21v5.67h3.5V7189a5.25,5.25,0,0,0-1.75-10.21Z" transform="translate(-6412.52 -6799.08)" fill="#3b76fc"/><path id="Path-2" d="M6781.14,7182.31a1.76,1.76,0,1,0,1.75,1.76h0A1.76,1.76,0,0,0,6781.14,7182.31Z" transform="translate(-6412.52 -6799.08)" fill="#3b76fc"/></g><path id="ReduceLock-In" d="M6596.84,7187.31c-5.82,0-9.43-3.9-9.43-10.19a10.68,10.68,0,0,1,2.56-7.45,9.87,9.87,0,0,1,13-.6,7.78,7.78,0,0,1,2.52,5.24h-4.35a4.13,4.13,0,0,0-4.29-3.66c-2.94,0-4.77,2.48-4.77,6.47a8,8,0,0,0,1.31,4.78,4.25,4.25,0,0,0,3.5,1.7,4.07,4.07,0,0,0,4.27-3.55h4.35C6605.13,7184.46,6601.73,7187.31,6596.84,7187.31Zm-21.06,0a9.17,9.17,0,0,1-6.9-2.71,12.06,12.06,0,0,1,0-15,10.06,10.06,0,0,1,13.77,0,12.08,12.08,0,0,1,0,15,9.16,9.16,0,0,1-6.89,2.71Zm0-16.73a4.19,4.19,0,0,0-3.5,1.71,9.58,9.58,0,0,0,0,9.67,4.44,4.44,0,0,0,6.23.77,4.67,4.67,0,0,0,.77-.77,9.64,9.64,0,0,0,0-9.67,4.21,4.21,0,0,0-3.5-1.71Zm-48,16.73a9.12,9.12,0,0,1-6.92-2.71,10.59,10.59,0,0,1-2.51-7.4c0-6.25,3.63-10.28,9.24-10.28a8.65,8.65,0,0,1,6.61,2.67,10.33,10.33,0,0,1,2.43,7.14v1.5h-13.7v.28c0,3.19,1.94,5.25,4.94,5.25,2.12,0,3.76-1,4.27-2.7h4.31c-.6,3.74-4.08,6.25-8.67,6.25Zm-.17-16.83a4.71,4.71,0,0,0-4.64,4.72h9.15c-.09-2.82-1.9-4.72-4.51-4.72Zm-19.85,16.83c-5.82,0-9.43-3.9-9.43-10.19a10.68,10.68,0,0,1,2.56-7.45,9.88,9.88,0,0,1,13-.6,7.78,7.78,0,0,1,2.52,5.24h-4.35a4.14,4.14,0,0,0-4.28-3.66c-2.95,0-4.77,2.48-4.77,6.47a7.93,7.93,0,0,0,1.3,4.78,4.25,4.25,0,0,0,3.5,1.7,4.09,4.09,0,0,0,4.28-3.55h4.34C6516.06,7184.46,6512.65,7187.31,6507.76,7187.31Zm-63.53,0a9.14,9.14,0,0,1-6.92-2.71,10.64,10.64,0,0,1-2.51-7.4c0-6.25,3.63-10.28,9.25-10.28a8.63,8.63,0,0,1,6.6,2.67,10.39,10.39,0,0,1,2.44,7.14v1.5h-13.7v.28c0,3.19,1.93,5.25,4.93,5.25,2.13,0,3.76-1,4.27-2.7h4.31C6452.3,7184.8,6448.82,7187.31,6444.23,7187.31Zm-.17-16.83a4.71,4.71,0,0,0-4.64,4.72h9.15c-.09-2.82-1.9-4.72-4.51-4.72Zm40.81,16.79c-4.29,0-6.95-2.79-6.95-7.28v-12.67h4.6v11.74c0,2.83,1.37,4.33,4,4.33s4.3-1.86,4.3-4.73v-11.34h4.6v19.6H6491v-3.4h-.09a6,6,0,0,1-2.27,2.77A6.76,6.76,0,0,1,6484.87,7187.27Zm-21.5,0a7.37,7.37,0,0,1-5.92-2.73,13.41,13.41,0,0,1,0-14.78,7.35,7.35,0,0,1,5.92-2.74,6.49,6.49,0,0,1,6.06,3.63h.11v-10.38h4.6v26.68h-4.51v-3.35h-.07a6.67,6.67,0,0,1-6.19,3.67Zm1.38-16.46c-3,0-4.8,2.43-4.8,6.34s1.84,6.34,4.8,6.34,4.81-2.49,4.81-6.34-1.89-6.34-4.81-6.34Zm192.76,16.14h-4.6v-19.6h4.42v3.37h.1a6,6,0,0,1,2.34-2.74,7.09,7.09,0,0,1,3.81-1,6.59,6.59,0,0,1,5,2,7.74,7.74,0,0,1,1.77,5.35v12.66h-4.6v-11.74c0-2.83-1.36-4.33-3.92-4.33s-4.33,1.85-4.33,4.72v11.35Zm-44.53,0h-4.6v-26.68h4.6v15.25h.05l7.38-8.17h5.3l-7.84,8.43,8.18,11.17h-5.33l-6.19-8.38-1.55,1.57v6.8Zm-195.69,0h-4.77v-26.68h10.6a9.92,9.92,0,0,1,6.77,2.24,7.9,7.9,0,0,1,2.45,6.06,8.49,8.49,0,0,1-1.32,4.7,7.35,7.35,0,0,1-3.71,2.92l5.83,10.75h-5.44l-5.25-10h-5.16v10Zm0-22.81v9.11h5.38c3,0,4.79-1.66,4.79-4.57s-1.87-4.55-4.88-4.55Zm231.39,22.81h-4.77v-26.68h4.77v26.68Zm-84.16,0h-16.88v-26.68h4.77v22.65h12.11v4Zm74.84-8.78h-12.15V7174h12.15v4.1Z" transform="translate(-6412.52 -6799.08)" fill="#fff"/></g></a><a xlink:href="https://timber.io" target="_blank"><g xmlns="http://www.w3.org/2000/svg" id="Backup"><circle id="Oval-3" cx="569.53" cy="642.93" r="69.75" fill="#fff"/><g id="database"><path id="Path-3" d="M6984.91,7443.24c-1,0-2.05.05-3.08.05s-2.06,0-3.09-.05c-8.68-.24-15.59-1.46-20.57-3.21a24.24,24.24,0,0,1-5.89-2.78v11.11c3.36,3.51,14.65,6.75,29.55,6.75s26.19-3.24,29.56-6.75v-11.11a24.44,24.44,0,0,1-5.94,2.8C7000.47,7441.79,6993.57,7443,6984.91,7443.24Z" transform="translate(-6412.52 -6799.08)" fill="#a433ff"/><path id="Path-4" d="M6952.28,7421.75v11.11c3.12,3.26,13,6.28,26.34,6.7h.42l1.16,0h3.27l1.16,0h.41c13.3-.42,23.23-3.44,26.35-6.7v-11.11c-5.76,3.95-17.92,6-29.56,6S6958,7425.7,6952.28,7421.75Z" transform="translate(-6412.52 -6799.08)" fill="#a433ff"/><path id="Path-5" d="M7011.23,7414.25c-1.33-5.09-11.53-10.1-29.4-10.1s-28,5-29.38,10.06a1.06,1.06,0,0,0-.17.58v2.72c3.35,3.5,14.56,6.73,29.55,6.73s26.2-3.23,29.56-6.73v-2.72A1.13,1.13,0,0,0,7011.23,7414.25Z" transform="translate(-6412.52 -6799.08)" fill="#a433ff"/><path id="Path-6" d="M6952.28,7452.62v9.7a1.09,1.09,0,0,0,.13.53c1.4,5.79,13.89,10.11,29.42,10.11s28-4.3,29.41-10.07a1.16,1.16,0,0,0,.15-.57v-9.7c-4.89,3.44-15,6.15-29.56,6.15S6957.16,7456.06,6952.28,7452.62Z" transform="translate(-6412.52 -6799.08)" fill="#a433ff"/></g><path id="ModernBackups" d="M6878,7554.09h-4.6V7528h4.5v3.38h.09a6.59,6.59,0,0,1,6.17-3.72,7.34,7.34,0,0,1,5.94,2.72,13.59,13.59,0,0,1,0,14.81,7.26,7.26,0,0,1-5.87,2.72,6.5,6.5,0,0,1-6.14-3.57H6878v9.71Zm4.75-22.6c-2.84,0-4.77,2.55-4.79,6.34s1.9,6.35,4.79,6.35,4.83-2.43,4.83-6.35S6885.75,7531.49,6882.77,7531.49Zm20.17,16.53a10,10,0,0,1-6-1.69,6.27,6.27,0,0,1-2.48-4.54H6899c.35,1.93,1.66,2.87,4,2.87s3.63-.92,3.63-2.39c0-1.21-.78-1.86-2.76-2.31l-3.25-.72a8.52,8.52,0,0,1-4.23-2,4.79,4.79,0,0,1-1.41-3.56c0-3.61,3.16-6,7.86-6a8.93,8.93,0,0,1,5.7,1.75,5.89,5.89,0,0,1,2.21,4.54h-4.29c-.19-1.82-1.54-2.9-3.62-2.9s-3.39,1-3.39,2.4c0,1.17.92,1.92,2.87,2.36l3.25.72c4,.9,5.64,2.44,5.64,5.33a5.41,5.41,0,0,1-2.3,4.48,9.92,9.92,0,0,1-5.91,1.71Zm-81.7,0c-5.81,0-9.43-3.9-9.43-10.19a10.74,10.74,0,0,1,2.56-7.45,9.88,9.88,0,0,1,13-.6,7.78,7.78,0,0,1,2.52,5.24h-4.34a4.15,4.15,0,0,0-4.29-3.66c-2.94,0-4.77,2.48-4.77,6.48a7.84,7.84,0,0,0,1.31,4.77,4.22,4.22,0,0,0,3.5,1.7,4.07,4.07,0,0,0,4.27-3.56h4.35c-.38,4.42-3.78,7.27-8.68,7.27Zm-106,0a9.15,9.15,0,0,1-6.92-2.71,10.68,10.68,0,0,1-2.51-7.4c0-6.25,3.63-10.28,9.25-10.28a8.66,8.66,0,0,1,6.61,2.67,10.4,10.4,0,0,1,2.44,7.15v1.5h-13.7v.27c0,3.19,1.93,5.25,4.93,5.25,2.12,0,3.76-1,4.27-2.7h4.31c-.6,3.74-4.08,6.25-8.67,6.25Zm-.16-16.82a4.69,4.69,0,0,0-4.64,4.71h9.15C6719.5,7533.09,6717.69,7531.2,6715.08,7531.2ZM6672.22,7548a9.16,9.16,0,0,1-6.9-2.71,12.08,12.08,0,0,1,0-15,10.06,10.06,0,0,1,13.77,0,12.08,12.08,0,0,1,0,15A9.15,9.15,0,0,1,6672.22,7548Zm0-16.73a4.24,4.24,0,0,0-3.49,1.71,8.05,8.05,0,0,0-1.31,4.84,7.89,7.89,0,0,0,1.31,4.83,4.43,4.43,0,0,0,6.23.77,4.32,4.32,0,0,0,.77-.77,9.61,9.61,0,0,0,0-9.67A4.18,4.18,0,0,0,6672.22,7531.29Zm186.92,16.7c-4.28,0-7-2.8-7-7.29V7528h4.6v11.74c0,2.83,1.37,4.32,4,4.32s4.31-1.86,4.31-4.73V7528h4.6v19.6h-4.44v-3.4h-.09a6.09,6.09,0,0,1-2.27,2.77A6.94,6.94,0,0,1,6859.14,7548Zm-60.84,0c-3.85,0-6.55-2.43-6.55-5.92a5,5,0,0,1,1.94-4.12,9.78,9.78,0,0,1,5.51-1.74l5.18-.3v-1.4c0-2-1.37-3.23-3.66-3.23-2.11,0-3.56,1-3.86,2.68h-4.27a6,6,0,0,1,2.36-4.52,9.59,9.59,0,0,1,5.95-1.77,9.11,9.11,0,0,1,5.84,1.78,5.87,5.87,0,0,1,2.19,4.73v13.5h-4.44v-3.13h-.09a6.89,6.89,0,0,1-6.1,3.44Zm6.08-9.08-4.53.28c-2.22.15-3.49,1.13-3.49,2.7s1.3,2.62,3.32,2.62a5.08,5.08,0,0,0,3.33-1.16,3.84,3.84,0,0,0,1.37-2.94ZM6692,7548a7.37,7.37,0,0,1-5.92-2.73,13.41,13.41,0,0,1,0-14.78,7.35,7.35,0,0,1,5.92-2.74,6.49,6.49,0,0,1,6.06,3.63h.12V7521h4.6v26.68h-4.51v-3.34h-.08A6.68,6.68,0,0,1,6692,7548Zm1.38-16.46c-3,0-4.81,2.43-4.81,6.34s1.85,6.35,4.81,6.35,4.81-2.49,4.81-6.35S6696.3,7531.49,6693.37,7531.49Zm144,16.14h-4.6V7521h4.6v15.26h.06l7.38-8.17h5.3l-7.84,8.43,8.17,11.16h-5.32l-6.19-8.38-1.56,1.58v6.8Zm-92.7,0h-4.6V7528h4.42v3.36h.09a6.14,6.14,0,0,1,2.34-2.75,7.11,7.11,0,0,1,3.82-1,6.61,6.61,0,0,1,5,1.95,7.77,7.77,0,0,1,1.77,5.35v12.67h-4.6v-11.74c0-2.83-1.35-4.32-3.92-4.32s-4.32,1.85-4.32,4.71v11.35Zm-108.6,0h-4.31V7521h5.53l8.17,20.36h.15l8.17-20.36h5.51v26.68H6655V7528.7h-.13l-7.71,18.93h-3.25l-7.71-18.93h-.13v18.93Zm95.59,0h-4.6V7528h4.42v3.41h.08a4.7,4.7,0,0,1,4.7-3.75,6.32,6.32,0,0,1,1.44.19v4.16a5.6,5.6,0,0,0-1.87-.26c-2.61,0-4.17,1.66-4.17,4.43v11.41Zm48.77,0h-11.19V7521h11.08c4.84,0,8,2.62,8,6.66a6,6,0,0,1-1.41,3.81,5.73,5.73,0,0,1-3.46,2v.14a7,7,0,0,1,4.44,2.06,6.28,6.28,0,0,1,1.72,4.43,6.93,6.93,0,0,1-2.44,5.55,10.3,10.3,0,0,1-6.71,2Zm-6.41-12.05v8.34h5.32c3.52,0,5.38-1.45,5.38-4.2s-1.93-4.14-5.58-4.14Zm0-10.91v7.53h4.36a6.41,6.41,0,0,0,3.85-1,3.4,3.4,0,0,0,1.35-2.87c0-2.31-1.63-3.64-4.46-3.64Z" transform="translate(-6412.52 -6799.08)" fill="#fff"/></g></a><a xlink:href="https://timber.io" target="_blank"><g xmlns="http://www.w3.org/2000/svg" id="Security"><circle id="Oval-4" cx="974" cy="642.93" r="69.75" fill="#fff"/><path id="Security_Complaince" data-name="Security Complaince" d="M7542.34,7599.92h-4.6v-26.05h4.49v3.38h.09a6.59,6.59,0,0,1,6.18-3.71,7.34,7.34,0,0,1,5.93,2.71,13.61,13.61,0,0,1,0,14.82,7.23,7.23,0,0,1-5.87,2.71,6.48,6.48,0,0,1-6.14-3.56h-.09v9.7Zm4.75-22.59c-2.85,0-4.77,2.55-4.79,6.34s1.9,6.34,4.79,6.34,4.82-2.43,4.82-6.34-1.85-6.34-4.82-6.34Zm-77,16.58c-7.65,0-12.41-5.28-12.41-13.79,0-4.16,1.16-7.65,3.36-10.08a11.82,11.82,0,0,1,9.05-3.7A12.11,12.11,0,0,1,7478,7569a10.23,10.23,0,0,1,3.65,6.95h-4.7a6.73,6.73,0,0,0-6.8-5.55c-4.57,0-7.53,3.82-7.53,9.73s2.89,9.74,7.55,9.74c3.52,0,6.06-1.91,6.8-5.12h4.67a10.27,10.27,0,0,1-3.7,6.73A12.25,12.25,0,0,1,7470.12,7593.91Zm176.57-.05a9.09,9.09,0,0,1-6.92-2.72,10.56,10.56,0,0,1-2.51-7.4c0-6.24,3.63-10.28,9.24-10.28a8.69,8.69,0,0,1,6.61,2.68,10.33,10.33,0,0,1,2.43,7.14v1.5h-13.7v.28c0,3.19,1.94,5.25,4.94,5.25,2.12,0,3.76-1,4.27-2.7h4.31C7654.76,7591.35,7651.27,7593.86,7646.69,7593.86Zm-.17-16.83a4.71,4.71,0,0,0-4.64,4.72H7651C7650.94,7578.93,7649.12,7577,7646.52,7577Zm-19.86,16.83c-5.81,0-9.43-3.9-9.43-10.19a10.73,10.73,0,0,1,2.57-7.45,9.87,9.87,0,0,1,13-.6,7.78,7.78,0,0,1,2.52,5.24H7631a4.12,4.12,0,0,0-4.29-3.66c-2.94,0-4.77,2.48-4.77,6.47a7.91,7.91,0,0,0,1.31,4.77,4.2,4.2,0,0,0,3.5,1.7,4.05,4.05,0,0,0,4.27-3.55h4.35C7635,7591,7631.56,7593.86,7626.66,7593.86Zm-133.23,0a9.22,9.22,0,0,1-6.9-2.71,12.08,12.08,0,0,1,0-14.95,10,10,0,0,1,13.77,0,12.08,12.08,0,0,1,0,15,9.18,9.18,0,0,1-6.9,2.72Zm0-16.74a4.22,4.22,0,0,0-3.49,1.72,9.61,9.61,0,0,0,0,9.67,4.44,4.44,0,0,0,6.24.76,4.21,4.21,0,0,0,.76-.76,9.58,9.58,0,0,0,0-9.67,4.22,4.22,0,0,0-3.5-1.72Zm80.58,16.66c-3.85,0-6.54-2.43-6.54-5.91a5,5,0,0,1,1.93-4.12,9.81,9.81,0,0,1,5.52-1.74l5.17-.3v-1.4c0-2-1.37-3.24-3.66-3.24-2.11,0-3.56,1-3.86,2.68h-4.27a6,6,0,0,1,2.36-4.51,9.56,9.56,0,0,1,6-1.77,9.09,9.09,0,0,1,5.83,1.77,5.87,5.87,0,0,1,2.19,4.73v13.5h-4.44v-3.13h-.09A6.84,6.84,0,0,1,7574,7593.78Zm6.08-9.07-4.53.27c-2.22.15-3.49,1.14-3.49,2.7s1.3,2.63,3.33,2.63a5,5,0,0,0,3.32-1.17,3.81,3.81,0,0,0,1.37-2.93v-1.5Zm21.43,8.76h-4.6v-19.6h4.42v3.37h.09a6.09,6.09,0,0,1,2.35-2.74,7.09,7.09,0,0,1,3.81-1,6.6,6.6,0,0,1,5,1.95,7.72,7.72,0,0,1,1.77,5.35v12.67h-4.6v-11.74c0-2.83-1.35-4.33-3.91-4.33s-4.33,1.85-4.33,4.72v11.35Zm-79.31,0h-4.48v-12.55a3.25,3.25,0,0,0-2.95-3.53,3.13,3.13,0,0,0-.53,0,3.82,3.82,0,0,0-3.78,3.84,2.09,2.09,0,0,0,0,.25v12h-4.6v-19.6h4.42v3.4h.09a5.78,5.78,0,0,1,2.11-2.74,6.21,6.21,0,0,1,3.47-1,5.92,5.92,0,0,1,3.51,1,5.2,5.2,0,0,1,2,2.91h.12a6.79,6.79,0,0,1,10.74-2.15,6.6,6.6,0,0,1,1.75,4.74v13.44h-4.6v-12.31c0-2.4-1.28-3.78-3.51-3.78a3.69,3.69,0,0,0-3.74,3.64,1.9,1.9,0,0,0,0,.34v12.11Zm70.84,0h-4.6v-19.6h4.6Zm-28.73,0h-4.6v-26.68h4.6v26.68Zm26.4-22.55a2.53,2.53,0,1,1,1.8-.74,2.5,2.5,0,0,1-1.8.74Zm-11.11-16a17,17,0,0,1-1.81-.08v-3.64a9.79,9.79,0,0,0,1.33.08,3,3,0,0,0,3.38-2.54,2.11,2.11,0,0,1,.07-.27l0-.07,0,0v-.1a5.26,5.26,0,0,0,.15-.6l-7-19.62h5l4.6,15.68h.09l4.63-15.68H7595l-7.1,20.38c-.86,2.51-1.81,4.08-3.1,5.08a8,8,0,0,1-5.2,1.43Zm33.8-6.83a10.32,10.32,0,0,1-6.65-2.06,6.75,6.75,0,0,1-2.52-5.42c0-3.06,1.6-5.35,5.05-7.22a2.38,2.38,0,0,0,.27-.14h0l.1-.05h0l.1-.05h0l.11-.06,0,0,.05,0h0l.08,0,0,0h0l.23-.12c-2.42-2.52-3.31-4.18-3.31-6.14a5.62,5.62,0,0,1,2.06-4.36,8.67,8.67,0,0,1,10.36,0,5.62,5.62,0,0,1,2,4.35,5.86,5.86,0,0,1-1.32,3.7,13.34,13.34,0,0,1-4.19,3.19l5.62,6.08a11.73,11.73,0,0,0,1.07-5.78v-1.18h4V7534a14.74,14.74,0,0,1-2.23,8.5l4.86,5.12H7624l-2.22-2.39a12.88,12.88,0,0,1-8.36,2.86Zm-.78-12.77h0a5.19,5.19,0,0,0-.77.42c-2.29,1.42-3.22,2.73-3.22,4.51,0,2.6,2.1,4.35,5.23,4.35a7.56,7.56,0,0,0,5.38-2.09l-6.61-7.19Zm1.76-11.52a3.06,3.06,0,0,0-3.2,2.9v.21c0,1.3.68,2.44,2.61,4.32,2.68-1.37,3.77-2.63,3.77-4.34a3,3,0,0,0-2.91-3.09,2.43,2.43,0,0,0-.27,0ZM7468,7548.08a12.4,12.4,0,0,1-7.47-2.12,7.43,7.43,0,0,1-3-5.78h4.57c.34,2.43,2.67,3.94,6.08,3.94a6.82,6.82,0,0,0,3.93-1.07,3.33,3.33,0,0,0,1.52-2.74c0-2-1.44-3.13-4.81-3.83l-2.86-.59c-5.27-1.08-7.84-3.53-7.84-7.51a7.06,7.06,0,0,1,2.79-5.7,11.54,11.54,0,0,1,7.12-2.17,11.15,11.15,0,0,1,7.13,2.2,7.46,7.46,0,0,1,2.78,5.78h-4.56c-.22-2.48-2.28-4-5.38-4s-5.07,1.47-5.07,3.65c0,1.86,1.44,3,4.66,3.68l2.88.59a12.63,12.63,0,0,1,6.1,2.64,6.14,6.14,0,0,1,1.87,4.74,7.49,7.49,0,0,1-2.81,6.07A12.07,12.07,0,0,1,7468,7548.08Zm42.58-.06c-5.81,0-9.43-3.9-9.43-10.19a10.79,10.79,0,0,1,2.56-7.45,9.89,9.89,0,0,1,13-.6,7.84,7.84,0,0,1,2.53,5.25h-4.35a4.13,4.13,0,0,0-4.29-3.66c-2.94,0-4.77,2.48-4.77,6.47a7.84,7.84,0,0,0,1.31,4.77,4.22,4.22,0,0,0,3.5,1.7,4.07,4.07,0,0,0,4.27-3.55h4.35C7518.87,7545.17,7515.47,7548,7510.57,7548Zm-20.43,0a9.15,9.15,0,0,1-6.92-2.71,10.68,10.68,0,0,1-2.51-7.4c0-6.25,3.63-10.28,9.25-10.28a8.7,8.7,0,0,1,6.61,2.67,10.39,10.39,0,0,1,2.43,7.15v1.5h-13.7v.27c0,3.19,1.94,5.25,4.94,5.25,2.12,0,3.76-1,4.27-2.7h4.3C7498.22,7545.51,7494.73,7548,7490.14,7548Zm-.16-16.82a4.69,4.69,0,0,0-4.64,4.71h9.15c-.1-2.82-1.91-4.71-4.51-4.71Zm38.86,16.78c-4.29,0-6.95-2.79-6.95-7.28V7528h4.6v11.74c0,2.83,1.37,4.33,3.95,4.33s4.31-1.86,4.31-4.73V7528h4.6v19.6h-4.43v-3.4h-.09a6.06,6.06,0,0,1-2.27,2.78A6.67,6.67,0,0,1,7528.84,7548Zm43-.25c-4.24,0-5.9-1.49-5.9-5.31v-10.84h-2.81V7528H7566v-4.58h4.6V7528h3.7v3.55h-3.7v10.19a2.05,2.05,0,0,0,1.71,2.35,1.83,1.83,0,0,0,.66,0,9.5,9.5,0,0,0,1.31-.09v3.51a13.56,13.56,0,0,1-2.38.19Zm-11-.1h-4.6V7528h4.6v19.6Zm-13.12,0h-4.61V7528h4.42v3.43h.09a4.71,4.71,0,0,1,4.7-3.76,5.37,5.37,0,0,1,1.44.19v4.16a5.58,5.58,0,0,0-1.86-.26c-2.62,0-4.18,1.66-4.18,4.44v11.4Zm10.79-22.55a2.5,2.5,0,1,1,2.53-2.5,2.52,2.52,0,0,1-2.53,2.5Z" transform="translate(-6412.52 -6799.08)" fill="#fff"/><g id="shield"><path id="Shape-3" d="M7386.63,7479.87h0a54.94,54.94,0,0,1-14.3-7.27,50.93,50.93,0,0,1-11-10.59,46.87,46.87,0,0,1-7.08-13.06,44.55,44.55,0,0,1-2.5-14.7v-12.31c7.18,0,13-5.3,13-11.82h43.71a11.23,11.23,0,0,0,3.82,8.35,13.63,13.63,0,0,0,9.2,3.47v12.31a44.3,44.3,0,0,1-2.5,14.7,46.84,46.84,0,0,1-7.07,13.06,51.16,51.16,0,0,1-11,10.59,55.1,55.1,0,0,1-14.3,7.27Zm-10.05-41.73-9.56,8.67,14.75,13.38,24.46-22.2-9.55-8.67-14.91,13.53Z" transform="translate(-6412.52 -6799.08)" fill="#bc3fee"/></g></g></a><a xlink:href="https://timber.io" target="_blank"><g xmlns="http://www.w3.org/2000/svg" id="Cost"><circle id="Oval-5" cx="1219.21" cy="379.87" r="69.75" fill="#fff"/><g id="loss"><path id="Shape-4" d="M7632.73,7191.09a29,29,0,0,1-11.24-55.68,28.59,28.59,0,0,1,22.48,0,29,29,0,0,1-11.24,55.68Zm-5.23-27a2.62,2.62,0,0,0-2.62,2.63,7.87,7.87,0,0,0,5.22,7.38V7178a2.63,2.63,0,0,0,5.26,0v-3.87a7.86,7.86,0,0,0-2.6-15.29,2.63,2.63,0,1,1,2.62-2.63h0a2.63,2.63,0,0,0,5.26,0,7.89,7.89,0,0,0-5.28-7.41v-2.33a2.63,2.63,0,0,0-5.26,0v2.35a7.86,7.86,0,0,0,2.66,15.27,2.63,2.63,0,1,1-2.63,2.63A2.63,2.63,0,0,0,7627.5,7164.05Z" transform="translate(-6412.52 -6799.08)" fill="#eb47f1"/><path id="Path-7" d="M7645.67,7208.65a2.64,2.64,0,0,0-2.43-1.62H7638V7195.9a30.91,30.91,0,0,1-10.51,0V7207h-5.26a2.62,2.62,0,0,0-2.62,2.63,2.66,2.66,0,0,0,.76,1.86l10.51,10.5a2.63,2.63,0,0,0,3.72,0h0l10.5-10.5A2.64,2.64,0,0,0,7645.67,7208.65Z" transform="translate(-6412.52 -6799.08)" fill="#eb47f1"/></g><path id="ReduceCost" d="M7878.34,7187.37c-7.65,0-12.4-5.29-12.4-13.8,0-4.16,1.16-7.64,3.36-10.07a11.78,11.78,0,0,1,9-3.7,12.12,12.12,0,0,1,7.86,2.65,10.15,10.15,0,0,1,3.64,6.95h-4.7a6.71,6.71,0,0,0-6.8-5.55c-4.57,0-7.52,3.82-7.52,9.73s2.89,9.74,7.54,9.74c3.53,0,6.07-1.91,6.8-5.12h4.68a10.27,10.27,0,0,1-3.7,6.73A12.42,12.42,0,0,1,7878.34,7187.37Zm43.43-.06a10,10,0,0,1-6-1.69,6.3,6.3,0,0,1-2.48-4.54h4.53c.36,1.93,1.66,2.87,4,2.87s3.63-.92,3.63-2.39c0-1.22-.78-1.86-2.76-2.31l-3.25-.72a8.65,8.65,0,0,1-4.23-2,4.84,4.84,0,0,1-1.41-3.57c0-3.6,3.16-6,7.86-6a8.93,8.93,0,0,1,5.7,1.75,5.89,5.89,0,0,1,2.21,4.53h-4.29c-.19-1.81-1.54-2.9-3.62-2.9s-3.39,1-3.39,2.4c0,1.18.91,1.93,2.87,2.37l3.25.72c4,.89,5.64,2.44,5.64,5.33a5.41,5.41,0,0,1-2.3,4.48,9.92,9.92,0,0,1-5.91,1.71Zm-20.11,0a9.18,9.18,0,0,1-6.9-2.71,12.06,12.06,0,0,1,0-15,10.06,10.06,0,0,1,13.77,0,12.1,12.1,0,0,1,0,15,9.18,9.18,0,0,1-6.9,2.71Zm0-16.73a4.18,4.18,0,0,0-3.49,1.71,8,8,0,0,0-1.32,4.83,8.05,8.05,0,0,0,1.31,4.84,4.44,4.44,0,0,0,6.24.77,4.61,4.61,0,0,0,.76-.77,9.58,9.58,0,0,0,0-9.67,4.19,4.19,0,0,0-3.5-1.71ZM7847,7187.31a9.14,9.14,0,0,1-6.92-2.71,10.64,10.64,0,0,1-2.51-7.4c0-6.25,3.63-10.28,9.24-10.28a8.65,8.65,0,0,1,6.61,2.67,10.33,10.33,0,0,1,2.43,7.14v1.5h-13.7v.28c0,3.19,1.94,5.25,4.94,5.25,2.12,0,3.76-1,4.27-2.7h4.31C7855.06,7184.8,7851.58,7187.31,7847,7187.31Zm-.17-16.82a4.69,4.69,0,0,0-4.64,4.71h9.15c-.09-2.82-1.9-4.71-4.51-4.71ZM7827,7187.31c-5.81,0-9.42-3.9-9.42-10.19a10.68,10.68,0,0,1,2.56-7.45,9.88,9.88,0,0,1,13-.6,7.82,7.82,0,0,1,2.52,5.24h-4.35a4.14,4.14,0,0,0-4.29-3.66c-2.94,0-4.77,2.48-4.77,6.47a7.94,7.94,0,0,0,1.31,4.78,4.22,4.22,0,0,0,3.5,1.7,4.07,4.07,0,0,0,4.27-3.55h4.35C7835.26,7184.46,7831.86,7187.31,7827,7187.31Zm-63.52,0a9.14,9.14,0,0,1-6.92-2.71,10.64,10.64,0,0,1-2.51-7.4c0-6.25,3.63-10.28,9.24-10.28a8.68,8.68,0,0,1,6.61,2.67,10.34,10.34,0,0,1,2.43,7.15v1.5h-13.7v.27c0,3.19,1.94,5.25,4.94,5.25,2.12,0,3.76-1,4.27-2.7h4.31C7771.51,7184.8,7768,7187.31,7763.44,7187.31Zm-.17-16.82a4.69,4.69,0,0,0-4.64,4.71h9.15c-.09-2.82-1.9-4.71-4.51-4.71Zm40.81,16.78c-4.29,0-7-2.79-7-7.28v-12.67h4.61v11.74c0,2.83,1.37,4.33,4,4.33s4.3-1.86,4.3-4.73v-11.34h4.6v19.6h-4.43v-3.4h-.09a6.11,6.11,0,0,1-2.27,2.78A6.84,6.84,0,0,1,7804.08,7187.27Zm-21.5,0a7.37,7.37,0,0,1-5.92-2.73,13.41,13.41,0,0,1,0-14.78,7.34,7.34,0,0,1,5.92-2.74,6.5,6.5,0,0,1,6.06,3.63h.11v-10.38h4.6v26.68h-4.51v-3.34h-.07a6.68,6.68,0,0,1-6.2,3.66Zm1.38-16.46c-3,0-4.8,2.43-4.8,6.34s1.84,6.34,4.8,6.34,4.81-2.49,4.81-6.34-1.89-6.34-4.81-6.34ZM7940.08,7187c-4.25,0-5.9-1.48-5.9-5.3v-10.84h-2.81v-3.55h2.81v-4.58h4.6v4.58h3.7v3.55h-3.7v10.19a2.06,2.06,0,0,0,1.71,2.35,1.78,1.78,0,0,0,.65,0,9.76,9.76,0,0,0,1.32-.09v3.51A11.88,11.88,0,0,1,7940.08,7187Zm-203.58-.09h-4.77v-26.68h10.59a9.93,9.93,0,0,1,6.78,2.24,7.9,7.9,0,0,1,2.45,6.06,8.63,8.63,0,0,1-1.32,4.7,7.38,7.38,0,0,1-3.71,2.92l5.82,10.76h-5.43l-5.25-10h-5.16Zm0-22.81v9.11h5.38c3,0,4.79-1.66,4.79-4.57s-1.87-4.54-4.88-4.54Z" transform="translate(-6412.52 -6799.08)" fill="#fff"/></g></a><a xlink:href="https://timber.io" target="_blank"><g xmlns="http://www.w3.org/2000/svg" id="Governance"><circle id="Oval-6" cx="972.01" cy="106.85" r="69.75" fill="#fff"/><g id="speech"><path id="Path-8" d="M7390.68,6874.61a7.85,7.85,0,1,0-12.62,0,11.07,11.07,0,0,0-6.34,7.68h25.33A11.06,11.06,0,0,0,7390.68,6874.61Z" transform="translate(-6412.52 -6799.08)" fill="#31e4ef"/><path id="Path-9" d="M7365.28,6886.39v8.55h7.5v17.2a12,12,0,0,1,23.18-.05v-17.15h7.56v-8.55Z" transform="translate(-6412.52 -6799.08)" fill="#31e4ef"/><path id="Path-10" d="M7412.45,6919.7a7.86,7.86,0,1,0-12.62,0,10.44,10.44,0,0,0-1.58.85,2.95,2.95,0,0,1-5.89,0l-.5-.33v0a11.87,11.87,0,0,0-1.18-.6,7.65,7.65,0,0,0,.92-1.59h0a7.87,7.87,0,1,0-15.09-3.25v.18a7.75,7.75,0,0,0,.63,3.08h0a7.4,7.4,0,0,0,.92,1.59,9.7,9.7,0,0,0-1.2.62v0l-.48.31a11.19,11.19,0,0,0-2.88,2.78,11.08,11.08,0,0,0-4.57-3.7,7.86,7.86,0,1,0-12.62,0,11,11,0,0,0-6.61,10.08v2h69.38v-2h0A11,11,0,0,0,7412.45,6919.7Z" transform="translate(-6412.52 -6799.08)" fill="#31e4ef"/></g><path id="Governance_Control" data-name="Governance Control" d="M7676.73,6826.67a10.38,10.38,0,0,1-6.65-2.06,6.78,6.78,0,0,1-2.52-5.42c0-3.06,1.6-5.36,5-7.22l.68-.35.07,0h0l0,0h0l.31-.16c-2.41-2.52-3.31-4.19-3.31-6.14a5.63,5.63,0,0,1,2.07-4.36,8.67,8.67,0,0,1,10.36-.05,5.62,5.62,0,0,1,2,4.35,5.8,5.8,0,0,1-1.32,3.7,13.4,13.4,0,0,1-4.19,3.2l5.62,6.08a11.78,11.78,0,0,0,1.07-5.79v-1.18h4v1.39a14.82,14.82,0,0,1-2.24,8.5l4.86,5.12h-5.36l-2.22-2.39A12.81,12.81,0,0,1,7676.73,6826.67Zm-.78-12.77a4.41,4.41,0,0,0-.77.42c-2.29,1.42-3.22,2.73-3.22,4.51,0,2.6,2.1,4.35,5.23,4.35a7.56,7.56,0,0,0,5.38-2.09l-6.61-7.2Zm1.76-11.52a3,3,0,0,0-3.19,2.89,1.48,1.48,0,0,0,0,.21c0,1.31.68,2.44,2.61,4.33,2.71-1.39,3.77-2.61,3.77-4.35a3,3,0,0,0-2.91-3.09Zm36.05,24.27c-7.65,0-12.41-5.28-12.41-13.79,0-4.16,1.17-7.65,3.37-10.08a11.75,11.75,0,0,1,9-3.69,12.12,12.12,0,0,1,7.85,2.64,10.19,10.19,0,0,1,3.65,7h-4.7a6.72,6.72,0,0,0-6.8-5.55c-4.57,0-7.52,3.82-7.52,9.72s2.89,9.75,7.54,9.75c3.52,0,6.07-1.92,6.8-5.13h4.68a10.27,10.27,0,0,1-3.7,6.73A12.3,12.3,0,0,1,7713.76,6826.65Zm-244,0a12.07,12.07,0,0,1-9.23-3.72c-2.22-2.43-3.39-5.94-3.39-10.16,0-8.44,4.8-13.68,12.54-13.68a12.34,12.34,0,0,1,7.7,2.46,10,10,0,0,1,3.81,6.47h-4.84a6.6,6.6,0,0,0-6.65-4.89c-4.8,0-7.68,3.58-7.68,9.58s3,9.89,7.8,9.89c4.05,0,6.82-2.52,6.9-6.28l0-.45h-6.44v-3.64h11.1v2.85c0,7.25-4.35,11.57-11.63,11.57Zm334.52,0a9.22,9.22,0,0,1-6.9-2.71,12.06,12.06,0,0,1,0-15,10,10,0,0,1,13.77,0,12.1,12.1,0,0,1,0,15,9.22,9.22,0,0,1-6.9,2.71Zm0-16.74a4.21,4.21,0,0,0-3.49,1.72,9.55,9.55,0,0,0,0,9.67,4.45,4.45,0,0,0,6.24.77,5,5,0,0,0,.76-.77,9.58,9.58,0,0,0,0-9.67,4.22,4.22,0,0,0-3.5-1.72Zm-67.22,16.74a9.22,9.22,0,0,1-6.9-2.71,12.06,12.06,0,0,1,0-15,10,10,0,0,1,13.77,0,12.08,12.08,0,0,1,0,15A9.18,9.18,0,0,1,7737.08,6826.6Zm0-16.74a4.21,4.21,0,0,0-3.49,1.72,8,8,0,0,0-1.32,4.83,8.05,8.05,0,0,0,1.31,4.84,4.45,4.45,0,0,0,6.24.76,4.55,4.55,0,0,0,.76-.76,9.58,9.58,0,0,0,0-9.67A4.23,4.23,0,0,0,7737.08,6809.86Zm-88.38,16.74a9.16,9.16,0,0,1-6.92-2.72,10.67,10.67,0,0,1-2.51-7.4c0-6.24,3.63-10.28,9.25-10.28a8.71,8.71,0,0,1,6.61,2.68,10.33,10.33,0,0,1,2.43,7.14v1.5h-13.7v.28c0,3.19,1.94,5.25,4.94,5.25a4.17,4.17,0,0,0,4.27-2.7h4.31C7656.78,6824.09,7653.29,6826.6,7648.7,6826.6Zm-.16-16.83a4.7,4.7,0,0,0-4.64,4.72h9.15c-.1-2.82-1.91-4.72-4.51-4.72Zm-19.86,16.83c-5.82,0-9.43-3.9-9.43-10.19a10.72,10.72,0,0,1,2.56-7.45,9.87,9.87,0,0,1,13-.6,7.74,7.74,0,0,1,2.52,5.24H7633a4.13,4.13,0,0,0-4.29-3.66c-2.94,0-4.77,2.48-4.77,6.47a7.82,7.82,0,0,0,1.31,4.77,4.19,4.19,0,0,0,3.5,1.7,4.06,4.06,0,0,0,4.27-3.55h4.34C7637,6823.75,7633.57,6826.6,7628.68,6826.6Zm-95.81,0a9.19,9.19,0,0,1-6.92-2.71,10.68,10.68,0,0,1-2.51-7.4c0-6.25,3.63-10.28,9.25-10.28a8.63,8.63,0,0,1,6.6,2.67,10.29,10.29,0,0,1,2.44,7.14v1.5H7528v.28c0,3.19,1.94,5.25,4.94,5.25,2.12,0,3.76-1,4.27-2.7h4.3c-.59,3.74-4.08,6.25-8.67,6.25Zm-.17-16.83a4.71,4.71,0,0,0-4.64,4.72h9.15c-.09-2.82-1.9-4.72-4.5-4.72Zm-39.2,16.83a9.23,9.23,0,0,1-6.9-2.71,12.08,12.08,0,0,1,0-15,10,10,0,0,1,13.77,0,12.1,12.1,0,0,1,0,15,9.22,9.22,0,0,1-6.9,2.71Zm0-16.74a4.22,4.22,0,0,0-3.49,1.72,9.58,9.58,0,0,0,0,9.67,4.44,4.44,0,0,0,6.23.76,4.61,4.61,0,0,0,.77-.76,9.58,9.58,0,0,0,0-9.67,4.24,4.24,0,0,0-3.5-1.72Zm91.1,16.66c-3.86,0-6.55-2.43-6.55-5.91a5,5,0,0,1,1.94-4.13,9.86,9.86,0,0,1,5.51-1.74l5.18-.3V6813c0-2-1.37-3.23-3.66-3.23-2.11,0-3.56,1-3.86,2.68h-4.27a6,6,0,0,1,2.36-4.52,9.68,9.68,0,0,1,6-1.77,9.16,9.16,0,0,1,5.84,1.79,5.87,5.87,0,0,1,2.18,4.73v13.5h-4.43v-3.13h-.1a6.24,6.24,0,0,1-2.53,2.51,7.2,7.2,0,0,1-3.57.92Zm6.08-9.08-4.53.28c-2.22.15-3.49,1.13-3.49,2.7s1.3,2.63,3.32,2.63a5.17,5.17,0,0,0,3.33-1.17,3.83,3.83,0,0,0,1.37-2.94Zm187.14,8.86c-4.24,0-5.9-1.49-5.9-5.31v-10.83h-2.81v-3.55h2.81V6802h4.6v4.59h3.7v3.55h-3.7v10.19a2.06,2.06,0,0,0,1.71,2.35,2.43,2.43,0,0,0,.66,0,8.17,8.17,0,0,0,1.31-.1v3.52a13.44,13.44,0,0,1-2.37.18Zm-23.7-.09h-4.6v-19.6h4.42V6810h.09a6.16,6.16,0,0,1,2.35-2.75,7.08,7.08,0,0,1,3.81-1,6.63,6.63,0,0,1,5,1.95,7.77,7.77,0,0,1,1.77,5.35v12.67h-4.6v-11.74c0-2.83-1.36-4.33-3.92-4.33s-4.33,1.85-4.33,4.72v11.35Zm-150.59,0h-4.6v-19.6h4.42V6810h.09a6.23,6.23,0,0,1,2.35-2.75,7.08,7.08,0,0,1,3.81-1,6.62,6.62,0,0,1,5,1.95,7.77,7.77,0,0,1,1.77,5.35v12.67h-4.6v-11.74c0-2.83-1.36-4.33-3.92-4.33s-4.33,1.85-4.33,4.72v11.35Zm-41.23,0h-4.6v-19.6h4.42V6810h.09a6.16,6.16,0,0,1,2.35-2.75,7.08,7.08,0,0,1,3.81-1,6.62,6.62,0,0,1,5,1.95,7.77,7.77,0,0,1,1.77,5.35v12.67h-4.6v-11.74c0-2.83-1.36-4.33-3.92-4.33s-4.33,1.85-4.33,4.72v11.35Zm225.66,0h-4.6v-19.6h4.41V6810h.1a4.69,4.69,0,0,1,4.7-3.75,7,7,0,0,1,1.44.18v4.16a6.21,6.21,0,0,0-1.87-.26c-2.62,0-4.18,1.66-4.18,4.44v11.41Zm-238.67,0h-4.6v-19.6h4.42V6810h.09a4.7,4.7,0,0,1,4.7-3.75,7,7,0,0,1,1.44.18v4.16a6.26,6.26,0,0,0-1.87-.26c-2.62,0-4.18,1.66-4.18,4.44v11.41Zm272.19,0h-4.6v-26.68h4.6v26.68Zm-305.68,0h-5.06l-6.95-19.6h4.92l4.55,15.33h.09l4.55-15.33h4.8l-6.9,19.6Z" transform="translate(-6412.52 -6799.08)" fill="#fff"/></g></a><g id="Vector"><path id="Fill_21" data-name="Fill 21" d="M7066.36,7216.34l109.52,43.13,109.53-43.13-109.53-43.14Z" transform="translate(-6412.52 -6799.08)" fill="#fff"/><path id="Fill_22" data-name="Fill 22" d="M7066.36,7150.69v65.49l112.38,43.3v-64.94Z" transform="translate(-6412.52 -6799.08)" fill="#fff"/><path id="Fill_23" data-name="Fill 23" d="M7178.74,7194.2l108.57-43.51-.53,65.27-108,43.51Z" transform="translate(-6412.52 -6799.08)" fill="#fff"/><path id="Fill_24" data-name="Fill 24" d="M7176.84,7107.55l110.47,43.8-.54,65L7177.06,7173Z" transform="translate(-6412.52 -6799.08)" fill="#fff"/><path id="Fill_25" data-name="Fill 25" d="M7066.36,7150.79v65.55L7176.84,7173l-.23-65.4Z" transform="translate(-6412.52 -6799.08)" fill="#fff"/><path id="Fill_26" data-name="Fill 26" d="M7066.59,7216.21l-.23-65.37,110.24-43.29,110.71,43.73-.36,64.78-110.35,43.41Z" transform="translate(-6412.52 -6799.08)" fill="#fff"/><path id="Fill_21_Copy" data-name="Fill 21 Copy" d="M7066.36,7150.69l109.52,43.14,109.53-43.14-109.53-43.14Z" transform="translate(-6412.52 -6799.08)" fill="#ebedf0"/></g><g id="Logo"><g id="Group_16" data-name="Group 16"><g id="Group_15" data-name="Group 15"><path id="Triangle" d="M7194.72,7224.42l39.6-65.54h-79.2Z" transform="translate(-6412.52 -6799.08)" fill="#001b3d"/><path id="Triangle-2" d="M7185.34,7212.76l39.6-65.54h-79.2Z" transform="translate(-6412.52 -6799.08)" fill="#ebedf0"/></g><g id="Symbol"><path id="Triangle-3" d="M7162.83,7224.07l39.39-65.19h-78.78Z" transform="translate(-6412.52 -6799.08)" fill="#001b3d"/><path id="Mask-2" d="M7163.23,7190.75l20.14-33.32H7143.1Z" transform="translate(-6412.52 -6799.08)" fill="#ebedf0"/></g></g></g></g></svg>