<svg xmlns="http://www.w3.org/2000/svg" xmlns:xlink="http://www.w3.org/1999/xlink" width="1513.762" height="507.421" viewBox="0 0 1513.762 507.421"><defs><style>.a,.o{fill:#fff;}.b,.d,.e,.f,.g,.h,.p,.q{fill:none;}.c{fill:#001b3d;}.d,.e,.f,.g,.q{stroke:#001b3d;}.d,.f,.g,.h{stroke-linecap:round;stroke-linejoin:round;}.d,.e,.f,.g,.h,.o,.p,.q{stroke-miterlimit:10;}.d,.e,.f,.g{stroke-width:4px;}.d{stroke-dasharray:32 20;}.f{stroke-dasharray:4 13;}.h{stroke:rgba(0,27,61,0.1);}.i{fill:rgba(230,230,230,0.6);}.j{fill:#10e7ff;}.k{fill:rgba(255,255,255,0.31);}.l{fill:rgba(0,0,0,0.1);}.m{fill:#1ae7ff;}.n{fill:#3e4145;}.o{stroke:#fff;}.p{stroke:#1ae7ff;}.p,.q{stroke-linecap:square;}.r{clip-path:url(#a);}.s{clip-path:url(#b);}</style><clipPath id="a"><path class="a" d="M10.317,0,20.635-17.077H0Z" transform="translate(10.075 17.112)"/></clipPath><clipPath id="b"><path class="a" d="M10.246,0,20.492-17.077H0Z" transform="translate(10.006 17.112)"/></clipPath></defs><g transform="translate(-7.042 -270.273)"><g transform="translate(7 290)"><g transform="translate(0 76)"><path class="b" d="M11,19.013l-.779,81.477-3-.029L8,18.985l-8-.077L9.681,0,19,19.09l-8-.077Z" transform="translate(782.167 18.524)"/><path class="c" d="M11,19.013l-.779,81.477-3-.029L8,18.985l-8-.077L9.681,0,19,19.09l-8-.077Z" transform="translate(782.167 18.524)"/><g transform="translate(869.299 259.9)"><path class="d" d="M0,0S34.325,23.621,119.923,33.851c57.645,6.889,120.287,5.522,155.054,3.9" transform="translate(0 0)"/><path class="c" d="M18.819,5.791,0,0,.833,13.8Z" transform="translate(274.55 30.846)"/><path class="e" d="M18.819,5.79,0,0,.833,13.8Z" transform="translate(274.55 30.846)"/></g><g transform="translate(861.085 84.906)"><path class="f" d="M0,54.433s23.013-23.4,109.905-38.974C170.137,4.662,241.428,1.144,279.507,0" transform="translate(0 6.912)"/><path class="c" d="M18.571,6.542,0,0,.278,13.824Z" transform="translate(279.356 0)"/><path class="e" d="M18.571,6.542,0,0,.278,13.824Z" transform="translate(279.356 0)"/></g><g transform="translate(113.668 76.009)"><path class="g" d="M0,75.6c20-15.688,53.846-34.84,109.547-49.374C222.566-3.268,372.424.118,372.424.118" transform="translate(30.974 129.388)"/><path class="g" d="M0,0C37.976,19.11,96.7,46.8,158.371,68.81c105.044,37.493,169.258,40.9,169.258,40.9" transform="translate(0 20.277)"/><path class="g" d="M0,0C2.832,22.262,12.2,50.651,38.476,74.564c52.08,47.394,146.095,54.918,146.095,54.918" transform="translate(161.961 0)"/><path class="g" d="M0,0C28.272,1.423,63.071,3.088,100.729,4.7c94.835,4.053,163.211,5.842,163.211,5.842" transform="translate(96.342 119.387)"/><path class="g" d="M0,67.455C2.29,52.937,10.018,36.788,29.912,24.378,77.025-5.012,170.214.39,170.214.39" transform="translate(196.437 129.475)"/><path class="g" d="M0,1.989,202.906,0" transform="translate(348.564 128.054)"/><path class="c" d="M18.5,6.733,0,0,.136,13.827Z" transform="translate(551.403 121.141)"/><path class="e" d="M18.5,6.734,0,0,.136,13.827Z" transform="translate(551.403 121.14)"/></g><g transform="translate(705 141)"><path class="h" d="M0,35.328,84.783,70.652l84.782-35.324L84.783,0Z" transform="translate(0 54.348)"/><path class="h" d="M0,0,85.87,35.009l-.417,51.948L.177,52.326Z" transform="translate(83.696 2.174)"/><path class="h" d="M0,34.56v52.4L84.783,52.279,84.606,0Z" transform="translate(1.087 2.174)"/><path class="i" d="M.175,89.406,0,35.617,84.6,0l84.961,35.975-.279,53.305L84.6,125Z"/><path class="h" d="M.175,89.406,0,35.617,84.6,0l84.961,35.975-.279,53.3L84.6,125Z"/><g transform="translate(29.348 27.174)"><path class="j" d="M0,21.648,54.958,43.293l54.956-21.645L54.958,0Z" transform="translate(0 32.94)"/><path class="j" d="M0,0V32.863L56.391,54.586V22Z" transform="translate(0 21.646)"/><path class="j" d="M0,21.834,54.479,0l-.268,32.752L0,54.586Z" transform="translate(56.391 21.646)"/><path class="j" d="M0,0,55.435,21.977l-.269,32.61L.114,32.848Z" transform="translate(55.435)"/><path class="j" d="M0,21.695V54.586L55.435,32.818,55.32,0Z"/><path class="j" d="M.115,54.525,0,21.722,55.318,0,110.87,21.94l-.182,32.509L55.318,76.233Z"/><path class="k" d="M0,21.648,54.958,43.293l54.956-21.645L54.958,0Z"/></g><path class="h" d="M0,0V52.351L84.783,86.957v-51.9Z" transform="translate(1.087 38.043)"/><path class="h" d="M0,34.782,85.87,0l-.418,52.174L0,86.957Z" transform="translate(83.696 38.043)"/></g><g transform="translate(0.042 35.524)"><path class="c" d="M0,25.4,70.712,50.811,141.427,25.4,70.712,0Z" transform="translate(0 0.119)"/><path class="l" d="M0,51.444V25.4L70.719,0l70.433,25.4V50.808L70.719,76.215.007,51.444Z" transform="translate(0.534 0)"/><path class="m" d="M22.685.528l14.144,5.08c1.959.7,1.959,1.838,0,2.542l-14.144,5.08a12.111,12.111,0,0,1-7.072,0L1.469,8.149c-1.959-.7-1.959-1.838,0-2.542L15.613.528A12.113,12.113,0,0,1,22.685.528Z" transform="translate(52.156 31.229)"/><path class="n" d="M0,0V25.4L70.576,50.809V25.4Z" transform="translate(0.534 25.396)"/><path class="n" d="M0,25.407,70.576,0V25.407L0,50.813Z" transform="translate(71.111 25.403)"/></g><g transform="translate(243.042 271.524)"><path class="c" d="M0,25.4,70.712,50.811,141.427,25.4,70.712,0Z" transform="translate(0 0.119)"/><path class="l" d="M0,51.444V25.4L70.719,0l70.433,25.4V50.808L70.719,76.215.007,51.444Z" transform="translate(0.534 0)"/><path class="m" d="M22.685.528l14.144,5.08c1.959.7,1.959,1.838,0,2.542l-14.144,5.08a12.111,12.111,0,0,1-7.072,0L1.469,8.149c-1.959-.7-1.959-1.838,0-2.542L15.613.528A12.113,12.113,0,0,1,22.685.528Z" transform="translate(52.156 31.229)"/><path class="n" d="M0,0V25.4L70.576,50.809V25.4Z" transform="translate(0.534 25.396)"/><path class="n" d="M0,25.407,70.576,0V25.407L0,50.813Z" transform="translate(71.111 25.403)"/></g><g transform="translate(70.042 155.524)"><path class="c" d="M0,25.4,70.712,50.811,141.427,25.4,70.712,0Z" transform="translate(0 0.119)"/><path class="l" d="M0,51.444V25.4L70.719,0l70.433,25.4V50.808L70.719,76.215.007,51.444Z" transform="translate(0.534 0)"/><path class="m" d="M22.685.528l14.144,5.08c1.959.7,1.959,1.838,0,2.542l-14.144,5.08a12.111,12.111,0,0,1-7.072,0L1.469,8.149c-1.959-.7-1.959-1.838,0-2.542L15.613.528A12.113,12.113,0,0,1,22.685.528Z" transform="translate(52.156 31.229)"/><path class="n" d="M0,0V25.4L70.576,50.809V25.4Z" transform="translate(0.534 25.396)"/><path class="n" d="M0,25.407,70.576,0V25.407L0,50.813Z" transform="translate(71.111 25.403)"/></g><g transform="translate(48.042 271.524)"><path class="c" d="M0,25.4,70.712,50.811,141.427,25.4,70.712,0Z" transform="translate(0 0.119)"/><path class="l" d="M0,51.444V25.4L70.719,0l70.433,25.4V50.808L70.719,76.215.007,51.444Z" transform="translate(0.534 0)"/><path class="m" d="M22.685.528l14.144,5.08c1.959.7,1.959,1.838,0,2.542l-14.144,5.08a12.111,12.111,0,0,1-7.072,0L1.469,8.149c-1.959-.7-1.959-1.838,0-2.542L15.613.528A12.113,12.113,0,0,1,22.685.528Z" transform="translate(52.156 31.229)"/><path class="n" d="M0,0V25.4L70.576,50.809V25.4Z" transform="translate(0.534 25.396)"/><path class="n" d="M0,25.407,70.576,0V25.407L0,50.813Z" transform="translate(71.111 25.403)"/></g><g transform="translate(205.042 0.524)"><path class="c" d="M0,25.4,70.712,50.811,141.427,25.4,70.712,0Z" transform="translate(0 0.119)"/><path class="l" d="M0,51.444V25.4L70.719,0l70.433,25.4V50.808L70.719,76.215.007,51.444Z" transform="translate(0.534 0)"/><path class="m" d="M22.685.528l14.144,5.08c1.959.7,1.959,1.838,0,2.542l-14.144,5.08a12.111,12.111,0,0,1-7.072,0L1.469,8.149c-1.959-.7-1.959-1.838,0-2.542L15.613.528A12.113,12.113,0,0,1,22.685.528Z" transform="translate(52.156 31.229)"/><path class="n" d="M0,0V25.4L70.576,50.809V25.4Z" transform="translate(0.534 25.396)"/><path class="n" d="M0,25.407,70.576,0V25.407L0,50.813Z" transform="translate(71.111 25.403)"/></g></g><g transform="translate(1175 120)"><circle class="c" cx="50" cy="50" r="50"/><g transform="translate(6 7)"><path class="c" d="M86.986,45.375A17.118,17.118,0,0,0,75.7,29.256a25.57,25.57,0,0,0,.426-4.687A24.526,24.526,0,0,0,31.67,10.225a12.817,12.817,0,0,0-7.953-2.7A13.077,13.077,0,0,0,10.651,20.593a13.886,13.886,0,0,0,.781,4.545,17.148,17.148,0,0,0-.071,32.309,25.009,25.009,0,0,0-.426,4.687A24.479,24.479,0,0,0,55.316,76.406a13.051,13.051,0,0,0,21.09-10.3,13.886,13.886,0,0,0-.781-4.545,17.374,17.374,0,0,0,11.361-16.19Z" transform="translate(0 0.298)"/><path class="a" d="M3.763,34.51l19.385,8.876L42.747,26.2A21.869,21.869,0,0,0,3.266,9.515L0,26.415l3.763,8.1Z" transform="translate(30.25 2.996)"/><path class="a" d="M.426,17.255A22.575,22.575,0,0,0,0,21.658,21.972,21.972,0,0,0,40.12,34.013l3.2-16.9L38.984,8.876,19.527,0,.426,17.255Z" transform="translate(13.492 40.773)"/><path class="a" d="M.639,14.131l13.279,3.124L16.9,2.13A10.337,10.337,0,0,0,10.509,0,10.52,10.52,0,0,0,.639,14.131Z" transform="translate(13.137 10.31)"/><path class="a" d="M10.083,0a14.656,14.656,0,0,0-.639,27.623l18.675-16.9L24.711,3.408,10.083,0Z" transform="translate(2.556 27.636)"/><path class="a" d="M0,15.054a10.355,10.355,0,0,0,6.32,2.2A10.531,10.531,0,0,0,16.829,6.746a10.228,10.228,0,0,0-.639-3.621L2.911,0,0,15.054Z" transform="translate(57.02 59.662)"/><path class="a" d="M3.905,24.214l14.628,3.408A14.656,14.656,0,0,0,19.172,0L0,16.758l3.905,7.456Z" transform="translate(55.813 31.968)"/></g></g><g transform="translate(1175 320)"><circle class="c" cx="50" cy="50" r="50"/><path class="o" d="M38.65,36.2a24.869,24.869,0,0,1-2.849-.175c-1-.116-1.971-.276-2.9-.475s-1.785-.417-2.551-.65a14.772,14.772,0,0,1-1.8-.65L30,28.05c.859.363,1.977.758,3.326,1.175a17.349,17.349,0,0,0,5.025.625,8.006,8.006,0,0,0,5.05-1.3,4.294,4.294,0,0,0,1.6-3.5,4.247,4.247,0,0,0-.575-2.274,4.411,4.411,0,0,0-1.575-1.5,7.037,7.037,0,0,0-2.375-.8,18.159,18.159,0,0,0-2.925-.225h-2.9v-6h3.3a11.132,11.132,0,0,0,2.125-.2,5.7,5.7,0,0,0,1.825-.675,3.555,3.555,0,0,0,1.274-1.3A4.128,4.128,0,0,0,43.65,10a3.284,3.284,0,0,0-.4-1.65A3.609,3.609,0,0,0,42.225,7.2a4.5,4.5,0,0,0-1.45-.675A6.367,6.367,0,0,0,39.1,6.3a11.832,11.832,0,0,0-3.974.65A16.686,16.686,0,0,0,31.8,8.55L29.15,3.1c.534-.334,1.164-.686,1.875-1.049a18.516,18.516,0,0,1,2.375-1A21.848,21.848,0,0,1,36.175.3,15.755,15.755,0,0,1,39.3,0a17.172,17.172,0,0,1,5.275.725A9.963,9.963,0,0,1,48.25,2.775a8.312,8.312,0,0,1,2.15,3.1,10.511,10.511,0,0,1,.7,3.875,7.687,7.687,0,0,1-1.15,3.975,7.624,7.624,0,0,1-3.1,2.925,9.02,9.02,0,0,1,4.174,3.275A9.123,9.123,0,0,1,52.5,25.15a11.988,11.988,0,0,1-.8,4.425,8.962,8.962,0,0,1-2.5,3.5,12.065,12.065,0,0,1-4.325,2.3A20.965,20.965,0,0,1,38.65,36.2ZM11.6,36.15a28.484,28.484,0,0,1-4.15-.275A26.973,26.973,0,0,1,4.175,35.2a18.845,18.845,0,0,1-2.45-.85A18.679,18.679,0,0,1,0,33.5l2.2-6.2a19.711,19.711,0,0,0,3.825,1.525A19.942,19.942,0,0,0,11.6,29.5a11.3,11.3,0,0,0,2.725-.275,5.026,5.026,0,0,0,1.724-.75,2.52,2.52,0,0,0,.9-1.125,4.018,4.018,0,0,0,.25-1.45,3.361,3.361,0,0,0-1.6-2.825,22.973,22.973,0,0,0-5.5-2.426c-1.126-.4-2.27-.86-3.4-1.374a12.6,12.6,0,0,1-3.049-1.95,9.371,9.371,0,0,1-2.2-2.85A8.959,8.959,0,0,1,.6,10.4a10.134,10.134,0,0,1,.9-4.325A9.269,9.269,0,0,1,4.05,2.8a11.723,11.723,0,0,1,4-2.075A18.041,18.041,0,0,1,13.35,0,21.705,21.705,0,0,1,19.4.75,21.733,21.733,0,0,1,23.6,2.4L21.35,8.55a21.366,21.366,0,0,0-3.225-1.325A14.03,14.03,0,0,0,13.85,6.65a7.879,7.879,0,0,0-4.025.775A2.625,2.625,0,0,0,8.6,9.8a2.754,2.754,0,0,0,.45,1.6,4.395,4.395,0,0,0,1.274,1.175,11.278,11.278,0,0,0,1.9.95c.718.284,1.517.578,2.375.875,1.8.665,3.377,1.33,4.7,1.975a12.634,12.634,0,0,1,3.326,2.275A8.277,8.277,0,0,1,24.6,21.7a12.3,12.3,0,0,1,.651,4.25,9.063,9.063,0,0,1-3.4,7.525C19.594,35.25,16.145,36.15,11.6,36.15Z" transform="translate(22.85 31.55)"/></g><g transform="translate(727 0.273)"><g transform="translate(19 -20)"><path class="c" d="M49.021,100A47.89,47.89,0,0,1,29.94,96.071,48.8,48.8,0,0,1,14.359,85.356,49.913,49.913,0,0,1,3.852,69.464a51.1,51.1,0,0,1,0-38.926A49.9,49.9,0,0,1,14.359,14.644,48.812,48.812,0,0,1,29.94,3.929a48.28,48.28,0,0,1,38.161,0A48.825,48.825,0,0,1,83.684,14.647,49.911,49.911,0,0,1,94.19,30.538a51.08,51.08,0,0,1,0,38.924A49.881,49.881,0,0,1,83.684,85.355,48.812,48.812,0,0,1,68.1,96.071,47.89,47.89,0,0,1,49.021,100ZM35.071,81.861c0,6.463,6.258,11.722,13.95,11.722s13.951-5.258,13.951-11.722ZM25.982,69.456V77.98H72.061V69.456Zm-7.21-16.927c-.011,0-.018,0-.02,0,1.027,2.966,2.088,6.033,6.906,12,.09.111.185.222.278.33.06.07.119.139.177.208H71.893l0,0a33.228,33.228,0,0,0,5.872-8.555A22.137,22.137,0,0,0,79.291,52.5l-10.512,2.09c-.022.006-2.27.566-5.47,1.178a19.605,19.605,0,0,0,4.533-12.481c0-7.147-1.825-10.926-4.4-15.484a24.136,24.136,0,0,1-2.458-6.387,12.758,12.758,0,0,1,.441-7.88c-2.184,1.768-3.864,5.2-4.991,10.209A75.38,75.38,0,0,0,54.9,36.887a48.276,48.276,0,0,1-.753-6.008,38.041,38.041,0,0,0-1.072-7.328c-.871-2.781-1.762-5.044-2.548-7.04-1.854-4.709-2.973-7.551-1.1-10.695C46.54,6,43.486,11.2,43.486,15.937a38.1,38.1,0,0,1-.94,8,21.821,21.821,0,0,1-3.05,7.643,28.514,28.514,0,0,0-1.916-10.257c-1.047-2.432-2.415-3.891-3.754-4a10.889,10.889,0,0,1,.294,6.176A48.444,48.444,0,0,1,32,30.377c-1.468,4.064-2.986,8.266-2.986,12.808a19.672,19.672,0,0,0,4.683,12.546c-3.018-.562-5.133-1.059-5.154-1.064C24.048,53.634,19.123,52.529,18.772,52.529Z" transform="translate(0 0)"/></g></g></g><g transform="translate(74 294)"><path class="p" d="M.5,65.5V.5" transform="translate(723 314)"/><path class="p" d="M1.25,108.808V.5" transform="translate(0.75 39.5)"/><path class="c" d="M60.9,19.712a5.537,5.537,0,0,1-3.164-.931,3.616,3.616,0,0,1-1.552-2.356H58.1a2.893,2.893,0,0,0,2.867,1.7c1.886,0,3.1-1.092,3.1-2.783V13.578h-.043a4.031,4.031,0,0,1-3.577,2.009c-2.864,0-4.715-2.243-4.715-5.715S57.609,4.136,60.5,4.136a4.068,4.068,0,0,1,3.632,2.074h.032V4.329h1.784V15.276C65.947,17.971,63.965,19.712,60.9,19.712ZM60.833,5.779c-1.932,0-3.18,1.607-3.18,4.093s1.248,4.072,3.18,4.072a2.912,2.912,0,0,0,2.352-1.113,4.683,4.683,0,0,0,.893-2.958C64.077,7.424,62.773,5.779,60.833,5.779ZM31.3,19.712a5.537,5.537,0,0,1-3.164-.931,3.616,3.616,0,0,1-1.552-2.356H28.51a2.893,2.893,0,0,0,2.867,1.7c1.886,0,3.105-1.092,3.105-2.783V13.578h-.043a4.03,4.03,0,0,1-3.577,2.009c-2.864,0-4.715-2.243-4.715-5.715s1.868-5.737,4.758-5.737a4.065,4.065,0,0,1,3.631,2.074h.032V4.329h1.784V15.276C36.352,17.971,34.37,19.712,31.3,19.712ZM31.238,5.779c-1.932,0-3.18,1.607-3.18,4.093s1.248,4.072,3.18,4.072A2.912,2.912,0,0,0,33.59,12.83a4.682,4.682,0,0,0,.893-2.958C34.483,7.424,33.179,5.779,31.238,5.779ZM19.218,19.712a5.537,5.537,0,0,1-3.163-.931A3.616,3.616,0,0,1,14.5,16.425h1.923a2.9,2.9,0,0,0,2.868,1.7c1.886,0,3.1-1.092,3.1-2.783V13.578h-.043a4.03,4.03,0,0,1-3.577,2.009c-2.865,0-4.716-2.243-4.716-5.715s1.868-5.737,4.758-5.737a4.068,4.068,0,0,1,3.631,2.074h.032V4.329h1.783V15.276C24.267,17.971,22.285,19.712,19.218,19.712ZM19.153,5.779c-1.932,0-3.18,1.607-3.18,4.093s1.248,4.072,3.18,4.072A2.912,2.912,0,0,0,21.5,12.83,4.683,4.683,0,0,0,22.4,9.872C22.4,7.424,21.094,5.779,19.153,5.779ZM90.32,15.694c-3.174,0-5.145-2.2-5.145-5.737a6.343,6.343,0,0,1,1.374-4.212,4.7,4.7,0,0,1,3.685-1.61A4.56,4.56,0,0,1,93.8,5.654a6.085,6.085,0,0,1,1.307,4.057v.709H87.1v.107c0,2.154,1.282,3.545,3.266,3.545A2.686,2.686,0,0,0,93.135,12.3h1.837C94.642,14.3,92.729,15.694,90.32,15.694ZM90.2,5.758a2.906,2.906,0,0,0-2.16.9,3.654,3.654,0,0,0-.934,2.3h6.069A2.977,2.977,0,0,0,90.2,5.758ZM71.64,15.694c-2.223,0-3.717-1.347-3.717-3.352,0-1.925,1.476-3.115,4.05-3.265l3.2-.183V7.96c0-1.365-.915-2.181-2.449-2.181a2.35,2.35,0,0,0-2.578,1.773H68.341c.137-2.044,1.916-3.416,4.426-3.416a4.73,4.73,0,0,1,3.12.987,3.367,3.367,0,0,1,1.155,2.654V15.5H75.271V13.578h-.043A4.057,4.057,0,0,1,71.64,15.694Zm3.533-5.35-2.986.183c-1.5.1-2.363.758-2.363,1.815s.9,1.762,2.235,1.762a2.924,2.924,0,0,0,3.115-2.847v-.913Zm-25.556,5.35c-3.174,0-5.145-2.2-5.145-5.737a6.345,6.345,0,0,1,1.373-4.212,4.7,4.7,0,0,1,3.686-1.61A4.559,4.559,0,0,1,53.1,5.655a6.083,6.083,0,0,1,1.307,4.056v.709H46.4v.107c0,2.154,1.282,3.545,3.265,3.545A2.685,2.685,0,0,0,52.432,12.3h1.837C53.94,14.3,52.027,15.694,49.618,15.694ZM49.5,5.758a2.9,2.9,0,0,0-2.159.9,3.656,3.656,0,0,0-.935,2.3h6.069A2.977,2.977,0,0,0,49.5,5.758Zm33.365,9.829c-2.048,0-2.846-.837-2.846-2.986V5.865H78.353V4.329h1.666v-2.7h1.868v2.7h2.17V5.865h-2.17V12.5c0,1.025.427,1.482,1.386,1.482a7.171,7.171,0,0,0,.773-.053V15.5A6.74,6.74,0,0,1,82.865,15.587ZM2.03,15.5H0L5.715,0H7.627l5.714,15.5-2.03,0L9.754,11.065H3.588L2.03,15.5ZM6.638,2.353h0L4.157,9.421H9.185L6.7,2.353ZM40.649,15.5H38.78V4.329h1.762V6.155h.042a2.736,2.736,0,0,1,2.707-2.02,4.225,4.225,0,0,1,.613.054l.015,0,.01,0,.019,0,.011,0,.047.007.038.005V6.026a3.607,3.607,0,0,0-1-.107,2.357,2.357,0,0,0-2.4,2.621V15.5Z" transform="translate(860.746 17.499)"/><path class="c" d="M115.2,15.039c-2.993,0-5.048-1.576-5.234-4.014h1.777c.213,1.466,1.635,2.413,3.623,2.413a3.991,3.991,0,0,0,2.356-.688,2.139,2.139,0,0,0,.935-1.734c0-1.205-.87-1.961-2.822-2.452L114.024,8.1c-2.56-.647-3.652-1.783-3.652-3.8,0-2.4,2-4.013,4.98-4.013a5.485,5.485,0,0,1,3.418,1.1,3.862,3.862,0,0,1,1.484,2.8h-1.768c-.244-1.444-1.437-2.3-3.193-2.3-1.863,0-3.115.95-3.115,2.363,0,1.109.761,1.736,2.714,2.236l1.475.391c2.906.729,4.091,1.869,4.091,3.936a3.827,3.827,0,0,1-1.423,3.09A6.052,6.052,0,0,1,115.2,15.039Zm-109.961,0C2.241,15.039.186,13.463,0,11.025H1.777c.214,1.466,1.636,2.413,3.623,2.413a4,4,0,0,0,2.356-.688,2.139,2.139,0,0,0,.935-1.734c0-1.205-.87-1.961-2.822-2.452L4.063,8.1C1.5,7.448.41,6.312.41,4.3c0-2.4,2-4.013,4.981-4.013A5.485,5.485,0,0,1,8.808,1.378a3.87,3.87,0,0,1,1.485,2.8H8.526c-.245-1.444-1.438-2.3-3.194-2.3-1.863,0-3.115.95-3.115,2.363,0,1.109.761,1.736,2.715,2.236l1.474.391C9.312,7.594,10.5,8.734,10.5,10.8a3.827,3.827,0,0,1-1.423,3.09A6.052,6.052,0,0,1,5.234,15.039Zm152.022-.147a4.535,4.535,0,0,1-3.523-1.488,5.94,5.94,0,0,1-1.311-4c0-3.286,1.894-5.41,4.824-5.41A4.131,4.131,0,0,1,161.66,7.4h-1.7a2.609,2.609,0,0,0-2.714-1.895c-1.9,0-3.086,1.493-3.086,3.9s1.211,3.974,3.086,3.974a2.546,2.546,0,0,0,2.714-1.845h1.7C161.336,13.606,159.648,14.892,157.256,14.892Zm-19.737,0a3.889,3.889,0,0,1-2.542-.846,2.916,2.916,0,0,1-1.012-2.289c0-1.86,1.363-2.966,3.838-3.115l3.038-.185V7.5c0-1.316-.824-2.011-2.383-2.011-1.272,0-2.137.477-2.373,1.309h-1.7c.223-1.677,1.884-2.8,4.131-2.8,2.545,0,4,1.278,4,3.505v7.207h-1.6V13.154h-.157A3.638,3.638,0,0,1,137.519,14.892Zm3.321-5.078L138.008,10c-1.573.105-2.3.652-2.3,1.719,0,1.032.836,1.7,2.129,1.7a2.778,2.778,0,0,0,3.008-2.637Zm-13.458,5.078a4.438,4.438,0,0,1-3.468-1.471,5.94,5.94,0,0,1-1.278-3.969c0-3.316,1.863-5.458,4.746-5.458a4.264,4.264,0,0,1,3.352,1.419,5.861,5.861,0,0,1,1.219,3.874v.644h-7.569v.078c.089,2.1,1.253,3.4,3.037,3.4a2.741,2.741,0,0,0,2.714-1.426h1.68C131.321,13.805,129.663,14.892,127.382,14.892Zm-.019-9.414a2.989,2.989,0,0,0-2.979,3.1h5.8C130.145,6.694,129.038,5.478,127.364,5.478Zm-55.01,9.414a4.439,4.439,0,0,1-3.469-1.471,5.94,5.94,0,0,1-1.278-3.969c0-3.316,1.863-5.458,4.747-5.458A4.263,4.263,0,0,1,75.7,5.413a5.878,5.878,0,0,1,1.22,3.874v.644H69.356v.078c.088,2.1,1.252,3.4,3.037,3.4a2.744,2.744,0,0,0,2.715-1.426h1.679C76.291,13.805,74.634,14.892,72.354,14.892Zm-.02-9.414a2.988,2.988,0,0,0-2.978,3.1h5.8C75.117,6.694,74.01,5.478,72.334,5.478ZM29.4,14.892a4.6,4.6,0,0,1-3.551-1.457,5.882,5.882,0,0,1-1.3-3.991,5.886,5.886,0,0,1,1.3-4A4.6,4.6,0,0,1,29.4,3.994a4.6,4.6,0,0,1,3.551,1.454,5.886,5.886,0,0,1,1.3,4,5.882,5.882,0,0,1-1.3,3.991A4.6,4.6,0,0,1,29.4,14.892Zm0-9.384c-1.98,0-3.115,1.435-3.115,3.936s1.135,3.935,3.115,3.935,3.116-1.434,3.116-3.935S31.384,5.508,29.4,5.508Zm35.352,9.277a3.312,3.312,0,0,1-2.332-.652,2.772,2.772,0,0,1-.706-2.161V5.586h-1.7V4.18h1.7V1.455H63.4V4.18h2.344V5.586H63.4v5.957c0,1.238.467,1.767,1.562,1.767a6.471,6.471,0,0,0,.781-.039v1.416A5.183,5.183,0,0,1,64.756,14.785Zm-15.918,0a3.311,3.311,0,0,1-2.331-.652,2.772,2.772,0,0,1-.706-2.161V5.586H44.1V4.18h1.7V1.455H47.48V4.18h2.344V5.586H47.48v5.957c0,1.238.467,1.767,1.562,1.767a6.378,6.378,0,0,0,.781-.039v1.416A5.128,5.128,0,0,1,48.838,14.785Zm117.08-.077h-1.679V0h1.679V5.84h.157a3.264,3.264,0,0,1,3.242-1.846c2.275,0,3.633,1.456,3.633,3.9v6.816h-1.68V8.3c0-1.853-.818-2.793-2.431-2.793a2.706,2.706,0,0,0-2.921,2.968v6.231Zm-70.547,0H93.692V7.558a1.994,1.994,0,0,0-2.2-2.05,2.539,2.539,0,0,0-2.442,2.676v6.523H87.373V4.18h1.6V5.84h.156A2.993,2.993,0,0,1,92.07,3.994,3.054,3.054,0,0,1,94.981,5.84h.156a3.545,3.545,0,0,1,3.223-1.846c2.16,0,3.35,1.221,3.35,3.437v7.275H100.03V7.822c0-1.557-.725-2.314-2.217-2.314A2.357,2.357,0,0,0,95.371,7.94v6.767Zm50.254,0V4.18h1.6V5.742h.157a2.926,2.926,0,0,1,2.92-1.748,7.488,7.488,0,0,1,.84.049v1.68a6.679,6.679,0,0,0-1.074-.1A2.579,2.579,0,0,0,147.3,8.184v6.522h-1.679Zm-66.063,0,0-10.527h1.6V5.742h.157a2.926,2.926,0,0,1,2.92-1.748,7.841,7.841,0,0,1,.84.049v1.68A6.948,6.948,0,0,0,84,5.625,2.579,2.579,0,0,0,81.24,8.184v6.522H79.563Zm-42.666,0,0-10.527h1.6V5.742h.157a2.926,2.926,0,0,1,2.92-1.748,8.229,8.229,0,0,1,.841.049v1.68a7.268,7.268,0,0,0-1.075-.1,2.579,2.579,0,0,0-2.764,2.559v6.522H36.9Zm-16.563,0,0-6.406c0-1.853-.818-2.793-2.432-2.793a2.705,2.705,0,0,0-2.92,2.968v6.231H13.3V0H14.98V5.84h.157a3.263,3.263,0,0,1,3.242-1.846c2.274,0,3.632,1.456,3.632,3.9v6.816ZM58.31,9.834H51.9V8.242H58.31V9.833Z" transform="translate(1073.123 43.293)"/><path class="c" d="M63.336,15.694c-3.174,0-5.145-2.2-5.145-5.737a6.343,6.343,0,0,1,1.374-4.212,4.7,4.7,0,0,1,3.686-1.61,4.56,4.56,0,0,1,3.571,1.519,6.085,6.085,0,0,1,1.307,4.057v.709H60.114v.107c0,2.154,1.282,3.545,3.265,3.545A2.686,2.686,0,0,0,66.15,12.3h1.837C67.658,14.3,65.744,15.694,63.336,15.694Zm-.118-9.936a2.9,2.9,0,0,0-2.159.9,3.656,3.656,0,0,0-.935,2.3h6.069A2.977,2.977,0,0,0,63.218,5.758ZM25.673,15.694a4.882,4.882,0,0,1-3.738-1.54,6.181,6.181,0,0,1-1.418-4.239A6.19,6.19,0,0,1,21.929,5.7a4.836,4.836,0,0,1,3.724-1.569,4.846,4.846,0,0,1,3.306,1.175,4.27,4.27,0,0,1,1.389,2.681H28.52a2.736,2.736,0,0,0-2.857-2.213c-1.971,0-3.244,1.624-3.244,4.136s1.282,4.135,3.265,4.135A2.709,2.709,0,0,0,28.531,11.9h1.837A4.432,4.432,0,0,1,25.673,15.694Zm8.379-.193H32.184V0h1.868V6.112H34.1a3.714,3.714,0,0,1,3.545-1.976,3.817,3.817,0,0,1,2.884,1.139,4.3,4.3,0,0,1,1.048,3.008V15.5H39.7V8.626c0-1.829-.939-2.836-2.643-2.836a2.913,2.913,0,0,0-3.008,3.2V15.5ZM2.03,15.5H0L5.715,0H7.627l5.714,15.5-2.03,0L9.754,11.065H3.588L2.03,15.5ZM6.638,2.353,4.157,9.421H9.185L6.7,2.353H6.638ZM45.912,15.5H44.043V4.329h1.868V15.5Zm-29.218,0H14.824V4.329h1.762V6.155h.043a2.733,2.733,0,0,1,2.706-2.02,4.19,4.19,0,0,1,.638.058l.019,0L20,4.2l.047.007.038.005V6.026a3.631,3.631,0,0,0-1-.107,2.357,2.357,0,0,0-2.4,2.621V15.5Zm36.8,0H51.584L47.47,4.329h1.966l3.083,9.185h.043l3.093-9.185H57.6L53.5,15.5ZM44.978,2.342a1.171,1.171,0,0,1,0-2.342,1.158,1.158,0,0,1,1.171,1.171A1.172,1.172,0,0,1,44.978,2.342Z" transform="translate(1123 468)"/><ellipse class="c" cx="13" cy="13.5" rx="13" ry="13.5" transform="translate(825 12)"/><path class="q" d="M60.508.5H.492" transform="translate(763 26)"/><ellipse class="c" cx="13" cy="13.5" rx="13" ry="13.5" transform="translate(1147 71)"/><path class="q" d="M1,.154,1.063,24.5" transform="translate(1159 94)"/><ellipse class="c" cx="13" cy="13.5" rx="13" ry="13.5" transform="translate(1145 431)"/><path class="q" d="M1.063,27,1,.5" transform="translate(1157 412)"/><path class="c" d="M156.78,44.06a4.455,4.455,0,0,1-2.588-.761,2.961,2.961,0,0,1-1.27-1.929h1.573a2.369,2.369,0,0,0,2.347,1.389,2.266,2.266,0,0,0,2.54-2.276V39.041h-.035a3.3,3.3,0,0,1-2.927,1.644c-2.344,0-3.858-1.836-3.858-4.676s1.528-4.693,3.893-4.693a3.328,3.328,0,0,1,2.971,1.7h.026V31.474h1.459V40.43C160.911,42.635,159.289,44.06,156.78,44.06Zm-.052-11.4c-1.581,0-2.6,1.314-2.6,3.348s1.021,3.331,2.6,3.331a2.38,2.38,0,0,0,1.923-.911,3.829,3.829,0,0,0,.731-2.42C159.382,34.006,158.315,32.661,156.728,32.661ZM66.455,44.033a3.469,3.469,0,0,1-.659-.052V42.7a3.766,3.766,0,0,0,.6.044c.856,0,1.327-.414,1.678-1.477l.211-.642-3.375-9.149h1.635l2.531,7.611H69.1l2.532-7.611H73.24l-3.595,9.782C68.866,43.385,68.121,44.033,66.455,44.033Zm112.491-3.208c-2.5,0-4.253-1.475-4.253-3.586,0-1.48.813-2.63,2.487-3.515l.056-.029.04-.021.032-.016.007,0,.028-.014.047-.024.016-.009.01-.005.007,0a2.57,2.57,0,0,1,.24-.119c-1.132-1.2-1.573-2.029-1.573-2.945a3.23,3.23,0,0,1,6.408.018c0,1.292-.787,2.234-2.716,3.252l3.137,3.384a7.017,7.017,0,0,0,.607-3.375v-.378h1.459v.387a7.987,7.987,0,0,1-1.046,4.43l2.224,2.363h-1.986L183,39.34A6.172,6.172,0,0,1,178.946,40.826Zm-.439-6.407c-.093.042-.322.166-.422.229-1.3.792-1.828,1.512-1.828,2.487,0,1.42,1.137,2.373,2.83,2.373a4.254,4.254,0,0,0,2.989-1.178Zm.791-5.458a1.633,1.633,0,0,0-1.714,1.661c0,.685.367,1.307,1.353,2.294,1.519-.773,2.083-1.4,2.083-2.312A1.611,1.611,0,0,0,179.3,28.96Zm97.726,11.812a2.748,2.748,0,0,1-3.041-2.742c0-1.575,1.208-2.549,3.314-2.671l2.619-.149v-.765c0-1.117-.749-1.784-2-1.784a1.924,1.924,0,0,0-2.11,1.45h-1.476c.111-1.672,1.567-2.8,3.621-2.8a3.871,3.871,0,0,1,2.553.808,2.755,2.755,0,0,1,.945,2.172v6.319h-1.45V39.041h-.035A3.321,3.321,0,0,1,277.024,40.773Zm2.892-4.377h0l-2.444.149c-1.229.079-1.934.62-1.934,1.485s.735,1.442,1.829,1.442a2.393,2.393,0,0,0,2.549-2.329V36.4Zm-17.174,4.377A2.748,2.748,0,0,1,259.7,38.03c0-1.575,1.207-2.549,3.313-2.671l2.62-.149v-.765c0-1.117-.749-1.784-2-1.784a1.924,1.924,0,0,0-2.11,1.45h-1.476c.112-1.672,1.567-2.8,3.621-2.8a3.872,3.872,0,0,1,2.553.808,2.754,2.754,0,0,1,.945,2.172v6.319h-1.451V39.041h-.035A3.317,3.317,0,0,1,262.742,40.773Zm2.892-4.377-2.444.149c-1.229.079-1.934.62-1.934,1.485s.735,1.442,1.829,1.442a2.393,2.393,0,0,0,2.549-2.329Zm-12.068,4.377a3.56,3.56,0,0,1-2.829-1.29,5.294,5.294,0,0,1-1.082-3.439c0-2.828,1.557-4.729,3.875-4.729a3.229,3.229,0,0,1,2.91,1.644h.035V27.932H258V40.614h-1.459V39.068h-.026A3.29,3.29,0,0,1,253.565,40.773Zm.291-8.112c-1.6,0-2.637,1.328-2.637,3.383,0,2.087,1.01,3.384,2.637,3.384,1.572,0,2.628-1.36,2.628-3.384S255.428,32.661,253.856,32.661Zm-12.568,8.112c-2.11,0-3.477-1.045-3.657-2.794h1.53c.184,1.041.879,1.547,2.127,1.547s2-.519,2-1.354c0-.683-.394-1.046-1.406-1.292l-1.45-.352c-1.745-.418-2.558-1.223-2.558-2.531,0-1.579,1.38-2.681,3.357-2.681a3.715,3.715,0,0,1,2.429.791,2.708,2.708,0,0,1,.972,2h-1.459a1.752,1.752,0,0,0-1.942-1.547c-1.109,0-1.854.544-1.854,1.354,0,.64.486,1.068,1.485,1.31l1.45.352c1.809.439,2.514,1.134,2.514,2.479C244.829,39.631,243.339,40.773,241.287,40.773Zm-8.5,0a4,4,0,0,1-3.058-1.26,5.059,5.059,0,0,1-1.16-3.469c0-2.873,1.649-4.729,4.2-4.729a3.967,3.967,0,0,1,2.7.961,3.488,3.488,0,0,1,1.136,2.194h-1.494a2.239,2.239,0,0,0-2.337-1.81c-1.613,0-2.655,1.328-2.655,3.383s1.049,3.384,2.672,3.384a2.217,2.217,0,0,0,2.329-1.758h1.5A3.627,3.627,0,0,1,232.788,40.773Zm-23.871,0c-2.6,0-4.21-1.8-4.21-4.694a5.189,5.189,0,0,1,1.124-3.446,3.844,3.844,0,0,1,3.016-1.318,3.734,3.734,0,0,1,2.921,1.243,4.96,4.96,0,0,1,1.068,3.319v.58H206.28v.088a2.617,2.617,0,0,0,2.672,2.9A2.2,2.2,0,0,0,211.22,38h1.5A3.61,3.61,0,0,1,208.917,40.773Zm-.1-8.13a2.374,2.374,0,0,0-1.767.74,2.983,2.983,0,0,0-.765,1.879h4.965A2.435,2.435,0,0,0,208.821,32.643Zm-42.672,8.13c-2.11,0-3.477-1.045-3.656-2.794h1.529c.184,1.041.879,1.547,2.127,1.547s2-.519,2-1.354c0-.683-.394-1.046-1.406-1.292l-1.451-.352c-1.745-.418-2.558-1.223-2.558-2.531,0-1.579,1.381-2.681,3.358-2.681a3.719,3.719,0,0,1,2.429.791,2.711,2.711,0,0,1,.972,2h-1.459a1.752,1.752,0,0,0-1.942-1.547c-1.109,0-1.855.544-1.855,1.354,0,.64.486,1.068,1.486,1.31l1.45.352c1.809.439,2.514,1.134,2.514,2.479C169.691,39.631,168.2,40.773,166.149,40.773Zm-18.9,0c-2.573,0-4.236-1.856-4.236-4.729s1.663-4.729,4.236-4.729,4.227,1.856,4.227,4.729S149.812,40.773,147.245,40.773Zm0-8.112c-1.654,0-2.681,1.3-2.681,3.383s1.027,3.384,2.681,3.384,2.671-1.3,2.671-3.384S148.892,32.661,147.245,32.661Zm-16.277,8.112c-2.111,0-3.478-1.045-3.657-2.794h1.529c.184,1.041.879,1.547,2.128,1.547s2-.519,2-1.354c0-.683-.394-1.046-1.406-1.292l-1.451-.352c-1.744-.419-2.557-1.223-2.557-2.531,0-1.579,1.38-2.681,3.357-2.681a3.715,3.715,0,0,1,2.429.791,2.714,2.714,0,0,1,.972,2h-1.459a1.752,1.752,0,0,0-1.942-1.547c-1.109,0-1.854.544-1.854,1.354,0,.64.486,1.068,1.485,1.31l1.45.352c1.809.439,2.514,1.134,2.514,2.479C134.509,39.631,133.019,40.773,130.967,40.773Zm-13.922,0a4,4,0,0,1-3.059-1.26,5.059,5.059,0,0,1-1.16-3.469c0-2.873,1.649-4.729,4.2-4.729a3.967,3.967,0,0,1,2.7.961,3.511,3.511,0,0,1,1.137,2.194h-1.494a2.24,2.24,0,0,0-2.338-1.81c-1.612,0-2.654,1.328-2.654,3.383s1.049,3.384,2.672,3.384a2.217,2.217,0,0,0,2.329-1.758h1.5A3.626,3.626,0,0,1,117.045,40.773Zm-9.229,0c-2.6,0-4.21-1.8-4.21-4.694a5.189,5.189,0,0,1,1.124-3.446,3.844,3.844,0,0,1,3.016-1.318,3.734,3.734,0,0,1,2.921,1.243,4.911,4.911,0,0,1,1.068,3.319v.58h-6.557v.088a2.617,2.617,0,0,0,2.672,2.9A2.2,2.2,0,0,0,110.119,38h1.5A3.61,3.61,0,0,1,107.816,40.773Zm-.1-8.13a2.374,2.374,0,0,0-1.767.74,2.989,2.989,0,0,0-.765,1.879h4.965A2.436,2.436,0,0,0,107.72,32.643Zm-16.779,8.13c-2.573,0-4.236-1.856-4.236-4.729s1.663-4.729,4.236-4.729,4.227,1.856,4.227,4.729S93.509,40.773,90.941,40.773Zm0-8.112c-1.654,0-2.681,1.3-2.681,3.383s1.027,3.384,2.681,3.384,2.672-1.3,2.672-3.384S92.59,32.661,90.941,32.661Zm-9.035,8.112a4,4,0,0,1-3.059-1.26,5.059,5.059,0,0,1-1.16-3.469c0-2.873,1.649-4.729,4.2-4.729a3.967,3.967,0,0,1,2.7.961,3.488,3.488,0,0,1,1.137,2.194H84.236a2.24,2.24,0,0,0-2.338-1.81c-1.612,0-2.654,1.328-2.654,3.383s1.049,3.384,2.672,3.384a2.217,2.217,0,0,0,2.329-1.758h1.5A3.627,3.627,0,0,1,81.906,40.773Zm-40.254,0c-2.6,0-4.209-1.8-4.209-4.694a5.189,5.189,0,0,1,1.124-3.446,3.843,3.843,0,0,1,3.015-1.318A3.731,3.731,0,0,1,44.5,32.558a4.979,4.979,0,0,1,1.069,3.319v.58H39.016v.088a2.617,2.617,0,0,0,2.671,2.9A2.2,2.2,0,0,0,43.955,38h1.5A3.608,3.608,0,0,1,41.652,40.773Zm-.1-8.13a2.374,2.374,0,0,0-1.767.74,2.989,2.989,0,0,0-.765,1.879h4.965A2.435,2.435,0,0,0,41.556,32.643ZM28.97,40.773a4,4,0,0,1-3.059-1.26,5.059,5.059,0,0,1-1.16-3.469c0-2.873,1.649-4.729,4.2-4.729a3.967,3.967,0,0,1,2.7.961,3.466,3.466,0,0,1,1.137,2.194H31.3a2.239,2.239,0,0,0-2.337-1.81c-1.612,0-2.654,1.328-2.654,3.383s1.049,3.384,2.671,3.384a2.217,2.217,0,0,0,2.329-1.758h1.5A3.627,3.627,0,0,1,28.97,40.773Zm242.956-.087c-1.676,0-2.329-.685-2.329-2.444V32.731h-1.363V31.474H269.6V29.268h1.529v2.206H272.9v1.257h-1.776v5.431c0,.839.35,1.213,1.134,1.213a5.977,5.977,0,0,0,.633-.044v1.283A5.491,5.491,0,0,1,271.926,40.685Zm-54.73,0c-1.676,0-2.329-.685-2.329-2.444V32.731h-1.362V31.474h1.362V29.268h1.53v2.206h1.775v1.257H216.4v5.431c0,.839.349,1.213,1.133,1.213a5.614,5.614,0,0,0,.633-.044v1.283A5.631,5.631,0,0,1,217.2,40.685Zm-92.083,0c-1.676,0-2.329-.685-2.329-2.444V32.731h-1.363V31.474h1.363V29.268h1.529v2.206h1.776v1.257h-1.776v5.431c0,.839.35,1.213,1.134,1.213a5.159,5.159,0,0,0,.633-.044v1.283A5.812,5.812,0,0,1,125.114,40.685Zm-65.7,0c-1.676,0-2.329-.685-2.329-2.444V32.731H55.724V31.474h1.363V29.268h1.529v2.206h1.776v1.257H58.615v5.431c0,.839.35,1.213,1.134,1.213a4.847,4.847,0,0,0,.633-.044v1.283A5.965,5.965,0,0,1,59.415,40.685Zm138.3-.07h-1.53V34.489a1.73,1.73,0,0,0-1.872-1.82,2.085,2.085,0,0,0-2.092,2.215v5.73H190.7v-9.14h1.441v1.459h.035a2.742,2.742,0,0,1,2.593-1.617,2.572,2.572,0,0,1,2.567,1.741h.035a3.058,3.058,0,0,1,2.866-1.741,2.8,2.8,0,0,1,2.979,2.989v6.309h-1.529V34.655a1.769,1.769,0,0,0-1.9-1.986A2.033,2.033,0,0,0,197.72,34.8v5.81Zm-149.081,0H47.111v-9.14h1.441v1.459h.035a3.078,3.078,0,0,1,2.9-1.617c1.981,0,3.164,1.259,3.164,3.367v5.931H53.135l-.013-5.66c0-1.495-.726-2.285-2.1-2.285a2.323,2.323,0,0,0-2.382,2.567v5.378Zm178.312,0h-1.527l0-9.14h1.529v9.14Zm-5.625,0H219.8l0-9.14h1.441v1.494h.035a2.238,2.238,0,0,1,2.215-1.652,3.309,3.309,0,0,1,.508.045H224l.016,0,.018,0,.067.011v1.485a2.92,2.92,0,0,0-.817-.087,1.928,1.928,0,0,0-1.96,2.144v5.694Zm-79.936,0h-1.523l-.007-12.682h1.53V40.613Zm-39.4,0H100.47l-.01-12.682h1.529V40.613Zm-3.674,0H96.8l-.011-12.682h1.529V40.613Zm-34.691,0H62.108L62.1,27.932h1.529V40.613Zm-27.8,0H34.312l-.015-9.14h1.529v9.14Zm-12.692,0H21.622l-.017-9.14h1.529v9.14Zm-5.053,0H16.568l-.017-7.883H15.277V31.474h1.274v-1.02c0-1.744.819-2.592,2.5-2.592a5.5,5.5,0,0,1,.931.07v1.239a4.108,4.108,0,0,0-.694-.053c-.822,0-1.222.44-1.222,1.345v1.011h1.872v1.257H18.08v7.882Zm-5.467,0H11.1l-.018-7.883H9.81V31.474h1.274v-1.02c0-1.744.819-2.592,2.5-2.592a5.479,5.479,0,0,1,.932.07v1.239a4.1,4.1,0,0,0-.695-.053c-.822,0-1.221.44-1.221,1.345v1.011h1.872v1.257H12.613v7.882Zm-3.867,0H.888V27.932H8.746v1.424H2.471v4.069H8.421v1.407H2.471v4.359H8.746v1.423ZM226.187,29.849a.958.958,0,0,1,0-1.916.948.948,0,0,1,.958.958A.96.96,0,0,1,226.187,29.849Zm-191.127,0a.958.958,0,0,1,0-1.916.948.948,0,0,1,.958.958A.96.96,0,0,1,35.06,29.849Zm-12.691,0a.958.958,0,1,1,0-1.916.947.947,0,0,1,.958.958A.959.959,0,0,1,22.37,29.849Zm142.45-7.3c-3.333,0-5.766-1.609-6.055-4h3.491a2.6,2.6,0,0,0,2.661,1.526c1.769,0,2.868-.973,2.868-2.539v-2.3h-.073a4.3,4.3,0,0,1-4.04,2.344,4.814,4.814,0,0,1-3.855-1.744,7.481,7.481,0,0,1-1.455-4.81,7.77,7.77,0,0,1,1.44-4.908,4.849,4.849,0,0,1,3.93-1.795,4.289,4.289,0,0,1,4.041,2.49h.061V4.529h3.515v12.9C171.35,20.539,168.787,22.547,164.82,22.547Zm.06-15.369c-1.769,0-2.868,1.483-2.868,3.87,0,2.369,1.072,3.784,2.868,3.784s2.918-1.45,2.918-3.784C167.8,8.7,166.653,7.178,164.88,7.178ZM179.639,17.9a6.326,6.326,0,0,1-4.734-1.811,7.027,7.027,0,0,1-1.712-4.952,7.275,7.275,0,0,1,1.7-5.008,6.621,6.621,0,0,1,9.141-.091,6.782,6.782,0,0,1,1.678,4.77V11.89H176.7v.22a2.914,2.914,0,0,0,3,3.149,2.6,2.6,0,0,0,2.637-1.648h3.271a4.625,4.625,0,0,1-1.918,3.1A6.86,6.86,0,0,1,179.639,17.9Zm-.1-11.011a2.84,2.84,0,0,0-2.808,2.82h5.554A2.717,2.717,0,0,0,179.541,6.885ZM99.695,17.9C96.22,17.9,94,16.3,93.762,13.635h3.479c.223,1.167,1.048,1.758,2.453,1.758,1.34,0,2.173-.538,2.173-1.4,0-.708-.486-1.1-1.733-1.38L97.9,12.146c-2.527-.537-3.809-1.807-3.809-3.773,0-2.506,2.151-4.126,5.481-4.126a6.354,6.354,0,0,1,3.984,1.181,3.975,3.975,0,0,1,1.521,3.1h-3.283a1.989,1.989,0,0,0-2.222-1.782c-1.245,0-2.05.56-2.05,1.427,0,.7.557,1.138,1.806,1.4l2.234.476c2.7.568,3.857,1.634,3.857,3.565C105.42,16.179,103.119,17.9,99.695,17.9Zm-41.418,0a6.355,6.355,0,0,1-4.725-1.806,7.082,7.082,0,0,1-1.758-5.03,7.018,7.018,0,0,1,1.772-4.994,7.02,7.02,0,0,1,9.42,0,7.018,7.018,0,0,1,1.772,5A7.085,7.085,0,0,1,63,16.094,6.359,6.359,0,0,1,58.277,17.9Zm0-10.925c-1.77,0-2.869,1.572-2.869,4.1,0,2.568,1.073,4.1,2.869,4.1s2.856-1.533,2.856-4.1C61.133,8.542,60.038,6.971,58.277,6.971ZM35.913,17.9a6.291,6.291,0,0,1-4.7-1.815,7.108,7.108,0,0,1-1.744-5.021,7.07,7.07,0,0,1,1.741-4.98,6.248,6.248,0,0,1,4.68-1.832,6.225,6.225,0,0,1,4.241,1.463,5.2,5.2,0,0,1,1.7,3.688H38.525a2.547,2.547,0,0,0-2.588-2.356A2.474,2.474,0,0,0,33.85,8.1a5.079,5.079,0,0,0-.769,2.956c0,2.53,1.072,4.041,2.868,4.041a2.457,2.457,0,0,0,2.576-2.282h3.32a5.088,5.088,0,0,1-1.744,3.7A6.2,6.2,0,0,1,35.913,17.9Zm-13.879,0A6.326,6.326,0,0,1,17.3,16.085a7.027,7.027,0,0,1-1.712-4.952,7.276,7.276,0,0,1,1.7-5.008A6.035,6.035,0,0,1,21.9,4.248a6.042,6.042,0,0,1,4.534,1.786,6.785,6.785,0,0,1,1.679,4.77V11.89H19.092v.22a2.915,2.915,0,0,0,3,3.149,2.6,2.6,0,0,0,2.636-1.648H28a4.62,4.62,0,0,1-1.918,3.1A6.854,6.854,0,0,1,22.034,17.9Zm-.1-11.011A2.839,2.839,0,0,0,19.129,9.7h5.553A2.716,2.716,0,0,0,21.936,6.885Zm127.1,10.938c-2.539,0-4.382-1.669-4.382-3.968,0-2.353,1.808-3.757,5.09-3.955l3.3-.2V8.838c0-1.208-.821-1.929-2.2-1.929A2.137,2.137,0,0,0,148.5,8.533h-3.259a4.044,4.044,0,0,1,1.631-3.094,7.572,7.572,0,0,1,8.161.005,3.91,3.91,0,0,1,1.512,3.174v9H153.1v-2h-.074A4.474,4.474,0,0,1,149.036,17.823Zm4-5.957-2.758.17c-1.327.1-2.088.69-2.088,1.624,0,.964.791,1.588,2.014,1.588a3.106,3.106,0,0,0,2-.684,2.249,2.249,0,0,0,.834-1.745ZM116,17.823c-2.54,0-4.383-1.669-4.383-3.968,0-2.353,1.808-3.757,5.09-3.955l3.3-.2V8.838c0-1.208-.821-1.929-2.2-1.929a2.136,2.136,0,0,0-2.344,1.624h-3.26a4.048,4.048,0,0,1,1.632-3.094,6.577,6.577,0,0,1,4.13-1.191,6.647,6.647,0,0,1,4.03,1.2,3.91,3.91,0,0,1,1.512,3.174v9h-3.442v-2H120A4.476,4.476,0,0,1,116,17.823Zm4-5.957-2.758.17c-1.326.1-2.087.69-2.087,1.624,0,.964.791,1.588,2.014,1.588a3.1,3.1,0,0,0,2-.684,2.249,2.249,0,0,0,.834-1.745Zm-35.5,5.957c-2.539,0-4.382-1.669-4.382-3.968,0-2.353,1.808-3.757,5.09-3.955l3.3-.2V8.838c0-1.208-.821-1.929-2.2-1.929a2.137,2.137,0,0,0-2.344,1.624H80.713a4.044,4.044,0,0,1,1.631-3.094,6.571,6.571,0,0,1,4.131-1.191,6.659,6.659,0,0,1,4.03,1.2,3.91,3.91,0,0,1,1.512,3.174v9H88.574v-2H88.5A4.474,4.474,0,0,1,84.509,17.823Zm4-5.957-2.758.17c-1.327.1-2.088.69-2.088,1.624,0,.964.791,1.588,2.014,1.588a3.106,3.106,0,0,0,2-.684,2.249,2.249,0,0,0,.834-1.745Zm118.664,5.8c-3.074,0-4.272-1-4.272-3.577V7.214h-1.843V4.529H202.9V1.514h3.565V4.529h2.417V7.214H206.47v6.262c0,1.008.489,1.477,1.538,1.477a5.693,5.693,0,0,0,.867-.061v2.624A9.541,9.541,0,0,1,207.177,17.663Zm-158.386,0c-3.074,0-4.272-1-4.272-3.577V7.214H42.676V4.529h1.843V1.514h3.564V4.529H50.5V7.214H48.083v6.262c0,1.008.489,1.477,1.538,1.477a5.71,5.71,0,0,0,.867-.061v2.624A10.477,10.477,0,0,1,48.792,17.663Zm142.322-.048h-3.564V4.529h3.442V6.861h.074a4.129,4.129,0,0,1,4.09-2.576c2.886,0,4.54,1.784,4.54,4.9v8.434h-3.563V9.924c0-1.757-.832-2.686-2.4-2.686a2.6,2.6,0,0,0-2.613,2.868v7.508Zm-61.743,0h-3.565V4.529h3.443V6.861h.073a4.129,4.129,0,0,1,4.09-2.576c2.886,0,4.541,1.784,4.541,4.9v8.434h-3.563l0-7.69c0-1.757-.832-2.686-2.4-2.686a2.6,2.6,0,0,0-2.612,2.868v7.508Zm-59.216,0H66.589V4.529h3.443V6.885H70.1a3.126,3.126,0,0,1,3.113-2.564,3.554,3.554,0,0,1,1.013.135V7.592a4.211,4.211,0,0,0-1.294-.207A2.6,2.6,0,0,0,70.154,10.3v7.312Zm-59.791,0H5.92L0,0H4.126L8.154,13.819H8.24L12.268,0h4.017L10.363,17.614Z" transform="translate(46.342 0.385)"/><path class="c" d="M124.154,44.963a4.387,4.387,0,0,1-2.588-.761,2.961,2.961,0,0,1-1.27-1.928h1.573a2.369,2.369,0,0,0,2.347,1.389,2.266,2.266,0,0,0,2.54-2.276V39.945h-.035a3.3,3.3,0,0,1-2.927,1.643c-2.344,0-3.858-1.835-3.858-4.676s1.528-4.693,3.893-4.693a3.326,3.326,0,0,1,2.971,1.7h.026V32.378h1.459v8.956C128.285,43.538,126.664,44.963,124.154,44.963Zm-.052-11.4c-1.581,0-2.6,1.314-2.6,3.349s1.021,3.331,2.6,3.331a2.38,2.38,0,0,0,1.923-.911,3.829,3.829,0,0,0,.731-2.42C126.756,34.91,125.689,33.564,124.1,33.564ZM99.94,44.963a4.367,4.367,0,0,1-2.588-.761,2.961,2.961,0,0,1-1.27-1.928h1.573A2.368,2.368,0,0,0,100,43.663a2.266,2.266,0,0,0,2.541-2.276V39.945h-.036a3.3,3.3,0,0,1-2.926,1.643c-2.344,0-3.859-1.835-3.859-4.676s1.529-4.693,3.894-4.693a3.323,3.323,0,0,1,2.97,1.7h.027V32.378h1.459v8.956C104.072,43.538,102.45,44.963,99.94,44.963Zm-.053-11.4c-1.58,0-2.6,1.314-2.6,3.349s1.021,3.331,2.6,3.331a2.384,2.384,0,0,0,1.924-.911,3.83,3.83,0,0,0,.731-2.42C102.542,34.91,101.475,33.564,99.887,33.564Zm-9.834,11.4a4.355,4.355,0,0,1-2.588-.761,2.961,2.961,0,0,1-1.271-1.928h1.574a2.368,2.368,0,0,0,2.346,1.389,2.266,2.266,0,0,0,2.54-2.276V39.945h-.035a3.3,3.3,0,0,1-2.927,1.643c-2.344,0-3.858-1.835-3.858-4.676s1.528-4.693,3.893-4.693a3.326,3.326,0,0,1,2.971,1.7h.026V32.378h1.459v8.956C94.183,43.538,92.562,44.963,90.053,44.963ZM90,33.564c-1.581,0-2.6,1.314-2.6,3.349s1.021,3.331,2.6,3.331a2.38,2.38,0,0,0,1.923-.911,3.83,3.83,0,0,0,.731-2.42C92.654,34.91,91.588,33.564,90,33.564ZM65.567,44.937a4,4,0,0,1-.66-.053V43.6a4.686,4.686,0,0,0,.6.043c.857,0,1.327-.414,1.679-1.476l.211-.642L64.02,32.378h1.634l2.532,7.611h.026l2.532-7.611h1.608l-3.6,9.782C67.977,44.288,67.232,44.937,65.567,44.937Zm158.018-.9h-1.274l.852-4.474h1.626l-1.2,4.473Zm-60.478,0h-1.274l.853-4.474h1.625l-1.2,4.473Zm176.5-2.364a2.748,2.748,0,0,1-3.041-2.742c0-1.575,1.207-2.549,3.313-2.672l2.62-.149v-.764c0-1.118-.749-1.785-2-1.785a1.924,1.924,0,0,0-2.11,1.451h-1.476c.111-1.672,1.567-2.8,3.621-2.8a3.872,3.872,0,0,1,2.553.808,2.756,2.756,0,0,1,.945,2.172v6.319h-1.45V39.945h-.036A3.319,3.319,0,0,1,339.61,41.676ZM342.5,37.3l-2.444.149c-1.229.079-1.934.62-1.934,1.485s.735,1.442,1.829,1.442a2.393,2.393,0,0,0,2.549-2.329V37.3Zm-17.174,4.377a2.748,2.748,0,0,1-3.041-2.742c0-1.575,1.208-2.549,3.313-2.672l2.619-.149v-.764c0-1.118-.749-1.785-2-1.785a1.924,1.924,0,0,0-2.11,1.451h-1.476c.112-1.672,1.567-2.8,3.621-2.8a3.872,3.872,0,0,1,2.553.807,2.756,2.756,0,0,1,.945,2.173v6.319H328.3V39.945h-.035A3.317,3.317,0,0,1,325.328,41.676Zm2.891-4.377-2.443.149c-1.229.079-1.934.62-1.934,1.485s.735,1.442,1.828,1.442a2.393,2.393,0,0,0,2.549-2.329V37.3Zm-12.067,4.377a3.562,3.562,0,0,1-2.829-1.29,5.3,5.3,0,0,1-1.082-3.439c0-2.828,1.557-4.729,3.875-4.729a3.232,3.232,0,0,1,2.91,1.643h.035V28.835h1.529V41.518h-1.459V39.971H319.1A3.289,3.289,0,0,1,316.151,41.676Zm.291-8.113c-1.6,0-2.637,1.328-2.637,3.384,0,2.087,1.01,3.384,2.637,3.384,1.571,0,2.627-1.36,2.627-3.384S318.013,33.564,316.442,33.564Zm-12.569,8.113c-2.11,0-3.477-1.045-3.657-2.8h1.529c.185,1.041.88,1.547,2.128,1.547s2-.519,2-1.354c0-.683-.394-1.045-1.406-1.292l-1.451-.352c-1.744-.419-2.557-1.223-2.557-2.531,0-1.579,1.38-2.681,3.357-2.681a3.715,3.715,0,0,1,2.429.791,2.714,2.714,0,0,1,.972,2h-1.459a1.752,1.752,0,0,0-1.942-1.547c-1.109,0-1.854.544-1.854,1.354,0,.639.486,1.067,1.485,1.31l1.45.351c1.809.44,2.514,1.135,2.514,2.479C307.415,40.534,305.925,41.676,303.873,41.676Zm-8.71,0c-2.6,0-4.21-1.8-4.21-4.694a5.189,5.189,0,0,1,1.124-3.446,3.844,3.844,0,0,1,3.016-1.318,3.731,3.731,0,0,1,2.921,1.243,4.976,4.976,0,0,1,1.068,3.319v.58h-6.556v.088a2.617,2.617,0,0,0,2.672,2.9,2.2,2.2,0,0,0,2.268-1.45h1.5A3.608,3.608,0,0,1,295.163,41.676Zm-.1-8.13a2.374,2.374,0,0,0-1.767.739,2.984,2.984,0,0,0-.765,1.88H297.5A2.435,2.435,0,0,0,295.067,33.547Zm-15.187,8.13c-1.981,0-3.164-1.258-3.164-3.366V32.378h1.529v5.66c0,1.516.71,2.285,2.11,2.285a2.3,2.3,0,0,0,2.381-2.575v-5.37h1.53v9.14h-1.451V40.033h-.035A3.008,3.008,0,0,1,279.879,41.676Zm-8.886,0c-2.574,0-4.237-1.856-4.237-4.729s1.663-4.729,4.237-4.729,4.227,1.856,4.227,4.729S273.562,41.676,270.994,41.676Zm0-8.113c-1.654,0-2.681,1.3-2.681,3.384s1.027,3.384,2.681,3.384,2.671-1.3,2.671-3.384S272.641,33.564,270.994,33.564ZM251.9,41.676a3.562,3.562,0,0,1-2.829-1.29,5.289,5.289,0,0,1-1.083-3.439c0-2.828,1.558-4.729,3.876-4.729a3.231,3.231,0,0,1,2.909,1.643h.035V28.835h1.529V41.518h-1.459V39.971h-.026A3.286,3.286,0,0,1,251.9,41.676Zm.29-8.113c-1.6,0-2.637,1.328-2.637,3.384,0,2.087,1.01,3.384,2.637,3.384,1.572,0,2.628-1.36,2.628-3.384S253.765,33.564,252.194,33.564Zm-19.6,8.113a2.747,2.747,0,0,1-3.04-2.742c0-1.575,1.207-2.549,3.313-2.672l2.619-.149v-.764c0-1.118-.749-1.785-2-1.785a1.924,1.924,0,0,0-2.11,1.451H229.9c.113-1.672,1.568-2.8,3.622-2.8a3.872,3.872,0,0,1,2.553.807,2.756,2.756,0,0,1,.945,2.173v6.319h-1.451V39.945h-.035A3.318,3.318,0,0,1,232.593,41.676Zm2.892-4.377-2.443.149c-1.229.079-1.934.62-1.934,1.485s.735,1.442,1.828,1.442a2.393,2.393,0,0,0,2.549-2.329V37.3Zm-18.07,4.377c-2.11,0-3.477-1.045-3.656-2.8h1.529c.184,1.041.879,1.547,2.127,1.547s2-.519,2-1.354c0-.683-.394-1.045-1.407-1.292l-1.45-.352C214.817,37.013,214,36.208,214,34.9c0-1.579,1.381-2.681,3.358-2.681a3.719,3.719,0,0,1,2.429.791,2.713,2.713,0,0,1,.972,2H219.3a1.752,1.752,0,0,0-1.942-1.547c-1.109,0-1.855.544-1.855,1.354,0,.639.486,1.067,1.486,1.31l1.45.351c1.809.44,2.514,1.135,2.514,2.479C220.957,40.534,219.467,41.676,217.415,41.676Zm-14.256,0c-2.6,0-4.209-1.8-4.209-4.694a5.189,5.189,0,0,1,1.124-3.446,3.843,3.843,0,0,1,3.015-1.318,3.728,3.728,0,0,1,2.921,1.243,4.979,4.979,0,0,1,1.069,3.319v.58h-6.557v.088a2.616,2.616,0,0,0,2.671,2.9,2.2,2.2,0,0,0,2.268-1.45h1.5A3.61,3.61,0,0,1,203.159,41.676Zm-.1-8.13a2.553,2.553,0,0,0-2.532,2.619H205.5A2.435,2.435,0,0,0,203.063,33.547Zm-20.523,8.13c-1.981,0-3.164-1.258-3.164-3.366V32.378h1.529v5.66c0,1.516.71,2.285,2.11,2.285a2.3,2.3,0,0,0,2.381-2.575v-5.37h1.529v9.14h-1.45V40.033h-.035A3.01,3.01,0,0,1,182.54,41.676Zm-8.552,0a3.259,3.259,0,0,1-2.97-1.706h-.036v1.547h-1.459V28.835h1.53v5.072h.035a3.226,3.226,0,0,1,2.927-1.687,3.494,3.494,0,0,1,2.793,1.29,5.266,5.266,0,0,1,1.066,3.439C177.873,39.82,176.348,41.676,173.988,41.676Zm-.3-8.113c-1.557,0-2.645,1.392-2.645,3.384,0,2.024,1.063,3.384,2.645,3.384,1.615,0,2.619-1.3,2.619-3.384S175.3,33.564,173.689,33.564Zm-16.752,8.113c-2.11,0-3.477-1.045-3.657-2.8h1.53c.184,1.041.879,1.547,2.127,1.547s2-.519,2-1.354c0-.683-.394-1.045-1.407-1.292l-1.45-.352c-1.745-.418-2.558-1.223-2.558-2.531,0-1.579,1.38-2.681,3.357-2.681a3.715,3.715,0,0,1,2.429.791,2.718,2.718,0,0,1,.973,2h-1.459a1.753,1.753,0,0,0-1.943-1.547c-1.109,0-1.854.544-1.854,1.354,0,.639.486,1.067,1.485,1.31l1.451.351c1.809.44,2.514,1.135,2.514,2.479C160.48,40.534,158.99,41.676,156.938,41.676Zm-8.71,0c-2.6,0-4.209-1.8-4.209-4.694a5.206,5.206,0,0,1,1.123-3.446,3.844,3.844,0,0,1,3.016-1.318,3.731,3.731,0,0,1,2.921,1.243,4.979,4.979,0,0,1,1.069,3.319v.58h-6.556v.088a2.616,2.616,0,0,0,2.671,2.9,2.2,2.2,0,0,0,2.268-1.45h1.5A3.61,3.61,0,0,1,148.227,41.676Zm-.1-8.13a2.553,2.553,0,0,0-2.532,2.619h4.965A2.435,2.435,0,0,0,148.131,33.547Zm-15.187,8.13a2.748,2.748,0,0,1-3.041-2.742c0-1.575,1.208-2.549,3.314-2.672l2.619-.149v-.764c0-1.118-.749-1.785-2-1.785a1.924,1.924,0,0,0-2.11,1.451h-1.476c.112-1.672,1.567-2.8,3.621-2.8a3.872,3.872,0,0,1,2.553.807,2.755,2.755,0,0,1,.945,2.173v6.319h-1.45V39.945h-.035A3.32,3.32,0,0,1,132.943,41.676Zm2.892-4.377-2.444.149c-1.229.079-1.934.62-1.934,1.485s.735,1.442,1.829,1.442a2.393,2.393,0,0,0,2.549-2.329V37.3Zm-20.91,4.377c-2.6,0-4.209-1.8-4.209-4.694a5.213,5.213,0,0,1,1.123-3.446,3.844,3.844,0,0,1,3.016-1.318,3.728,3.728,0,0,1,2.921,1.243,4.979,4.979,0,0,1,1.069,3.319v.58h-6.556v.088a2.616,2.616,0,0,0,2.671,2.9,2.2,2.2,0,0,0,2.268-1.45h1.5A3.61,3.61,0,0,1,114.925,41.676Zm-.1-8.13a2.553,2.553,0,0,0-2.532,2.619h4.965A2.435,2.435,0,0,0,114.829,33.547Zm-34.91,8.13a2.748,2.748,0,0,1-3.041-2.742c0-1.575,1.208-2.549,3.314-2.672l2.619-.149v-.764c0-1.118-.749-1.785-2-1.785a1.924,1.924,0,0,0-2.11,1.451H77.221c.112-1.672,1.567-2.8,3.621-2.8a3.872,3.872,0,0,1,2.553.807A2.756,2.756,0,0,1,84.34,35.2v6.319H82.89V39.945h-.035A3.32,3.32,0,0,1,79.919,41.676ZM82.811,37.3l-2.444.149c-1.229.079-1.934.62-1.934,1.485s.735,1.442,1.829,1.442a2.393,2.393,0,0,0,2.549-2.329V37.3ZM40.764,41.676c-2.6,0-4.21-1.8-4.21-4.694a5.189,5.189,0,0,1,1.124-3.446,3.844,3.844,0,0,1,3.016-1.318,3.734,3.734,0,0,1,2.921,1.243,4.976,4.976,0,0,1,1.068,3.319v.58H38.127v.088a2.617,2.617,0,0,0,2.672,2.9,2.2,2.2,0,0,0,2.268-1.45h1.5A3.608,3.608,0,0,1,40.764,41.676Zm-.1-8.13a2.374,2.374,0,0,0-1.767.739,2.984,2.984,0,0,0-.765,1.88H43.1A2.435,2.435,0,0,0,40.667,33.547Zm-12.587,8.13a4,4,0,0,1-3.058-1.26,5.059,5.059,0,0,1-1.16-3.469c0-2.873,1.649-4.729,4.2-4.729a3.967,3.967,0,0,1,2.7.961A3.5,3.5,0,0,1,31.9,35.375H30.41a2.239,2.239,0,0,0-2.338-1.811c-1.612,0-2.654,1.328-2.654,3.384s1.049,3.384,2.672,3.384a2.217,2.217,0,0,0,2.329-1.758h1.5A3.627,3.627,0,0,1,28.081,41.676Zm306.431-.088c-1.676,0-2.329-.685-2.329-2.444V33.634H330.82V32.378h1.363V30.172h1.529v2.206h1.776v1.256h-1.776v5.432c0,.838.35,1.212,1.134,1.212a5.754,5.754,0,0,0,.633-.044v1.283A5.458,5.458,0,0,1,334.512,41.588Zm-45.448,0c-1.676,0-2.329-.685-2.329-2.444V33.634h-1.363V32.378h1.363V30.172h1.529v2.206h1.776v1.256h-1.776v5.432c0,.838.35,1.212,1.134,1.212a5.479,5.479,0,0,0,.633-.044v1.283A5.265,5.265,0,0,1,289.064,41.588Zm-146.936,0c-1.676,0-2.329-.685-2.329-2.444V33.634h-1.363V32.378H139.8V30.172h1.529v2.206H143.1v1.256h-1.776v5.432c0,.838.35,1.212,1.134,1.212a4.768,4.768,0,0,0,.633-.044v1.283A4.826,4.826,0,0,1,142.128,41.588Zm-83.6,0c-1.676,0-2.329-.685-2.329-2.444V33.634H54.835V32.378H56.2V30.172h1.53v2.206H59.5v1.256H57.727v5.432c0,.838.349,1.212,1.133,1.212a4.4,4.4,0,0,0,.634-.044v1.283A4.823,4.823,0,0,1,58.526,41.588Zm181.96-.069h-1.529v-9.14H240.4v1.459h.035a3.078,3.078,0,0,1,2.9-1.617c1.981,0,3.164,1.258,3.164,3.366v5.932h-1.53v-5.66c0-1.495-.726-2.285-2.1-2.285a2.323,2.323,0,0,0-2.382,2.567v5.378Zm-192.735,0h-1.53v-9.14h1.442v1.459H47.7a3.074,3.074,0,0,1,2.9-1.617c1.981,0,3.163,1.258,3.163,3.366v5.932H52.235l0-5.66c0-1.495-.726-2.285-2.1-2.285a2.323,2.323,0,0,0-2.381,2.567v5.378Zm215.877,0h-1.523l-.006-9.14h1.441v1.494h.035a2.238,2.238,0,0,1,2.215-1.652,3.274,3.274,0,0,1,.524.048h.006l.018,0,.068.011v1.485a3.216,3.216,0,0,0-.817-.088,1.929,1.929,0,0,0-1.96,2.145v5.694Zm-53.482,0h-1.519l-.01-9.14h1.441v1.494h.035a2.24,2.24,0,0,1,2.215-1.652,3.7,3.7,0,0,1,.529.049l.019,0,.011,0,.039.006.018,0v1.485a3.323,3.323,0,0,0-.817-.088,1.929,1.929,0,0,0-1.96,2.145v5.694Zm-19.221,0h-1.518l-.012-7.884h-1.274V32.378H189.4v-1.02c0-1.745.82-2.593,2.506-2.593a5.932,5.932,0,0,1,.932.07v1.239a5.6,5.6,0,0,0-.695-.052c-.822,0-1.221.44-1.221,1.345v1.011h1.872v1.256h-1.863v7.883Zm3.948,0-.011-7.884h-1.274V32.378h1.274v-1.02c0-1.745.819-2.593,2.5-2.593a5.953,5.953,0,0,1,.931.07v1.239a5.573,5.573,0,0,0-.694-.052c-.822,0-1.222.44-1.222,1.345v1.011h1.872v1.256h-1.863v7.883h-1.518Zm-88.8,0-.018-9.14H107.5v1.494h.035a2.238,2.238,0,0,1,2.215-1.652,3.667,3.667,0,0,1,.529.049l.019,0,.011,0,.04.006.017,0v1.485a3.45,3.45,0,0,0-.817-.088,1.929,1.929,0,0,0-1.96,2.145v5.694h-1.511Zm-44.849,0-.02-12.683h1.529V41.517H61.227Zm-27.8,0-.02-9.14h1.529v9.139H33.427Zm-12.691,0-.02-9.14h1.529v9.139H20.736Zm-5.054,0-.02-7.884H14.387V32.378h1.274v-1.02c0-1.745.82-2.593,2.506-2.593a5.244,5.244,0,0,1,.931.07v1.239a5.532,5.532,0,0,0-.695-.052c-.822,0-1.221.44-1.221,1.345v1.011h1.872v1.256H17.192v7.883h-1.51Zm-5.467,0-.02-7.884H8.921V32.378H10.2v-1.02c0-1.745.819-2.593,2.5-2.593a5.224,5.224,0,0,1,.932.07v1.239a6.123,6.123,0,0,0-.694-.052c-.822,0-1.221.44-1.221,1.345v1.011h1.872v1.256H11.724v7.883H10.215Zm-2.358,0H0V28.835H7.857v1.424H1.582v4.07h5.95v1.406H1.582v4.36H7.857v1.423ZM34.172,30.751a.958.958,0,1,1,0-1.916.948.948,0,0,1,.958.958A.959.959,0,0,1,34.172,30.751Zm-12.692,0a.958.958,0,0,1,0-1.916.948.948,0,0,1,.958.958A.959.959,0,0,1,21.48,30.751ZM313.488,18.8a6.319,6.319,0,0,1-4.733-1.812,7.024,7.024,0,0,1-1.712-4.952,7.271,7.271,0,0,1,1.7-5.008,6.621,6.621,0,0,1,9.141-.091,6.781,6.781,0,0,1,1.678,4.769v1.086h-9.021v.22a2.914,2.914,0,0,0,3,3.149,2.6,2.6,0,0,0,2.637-1.648h3.271a4.624,4.624,0,0,1-1.918,3.1A6.865,6.865,0,0,1,313.488,18.8Zm-.1-11.012a2.841,2.841,0,0,0-2.808,2.821h5.554A2.718,2.718,0,0,0,313.391,7.788ZM299.866,18.8a6.293,6.293,0,0,1-4.7-1.816,7.107,7.107,0,0,1-1.744-5.02,7.071,7.071,0,0,1,1.742-4.981,6.886,6.886,0,0,1,8.92-.367,5.2,5.2,0,0,1,1.7,3.687h-3.308a2.546,2.546,0,0,0-2.587-2.355,2.471,2.471,0,0,0-2.087,1.06,5.141,5.141,0,0,0-.77,2.956c0,2.53,1.072,4.041,2.868,4.041a2.457,2.457,0,0,0,2.576-2.283h3.32a5.12,5.12,0,0,1-1.744,3.7A6.316,6.316,0,0,1,299.866,18.8Zm-42.163,0a6.323,6.323,0,0,1-4.734-1.812,7.024,7.024,0,0,1-1.712-4.952,7.271,7.271,0,0,1,1.7-5.008,6.621,6.621,0,0,1,9.141-.091,6.781,6.781,0,0,1,1.678,4.769v1.086H254.76v.22a2.915,2.915,0,0,0,3,3.149,2.6,2.6,0,0,0,2.636-1.648h3.271a4.624,4.624,0,0,1-1.918,3.1A6.859,6.859,0,0,1,257.7,18.8Zm-.1-11.012a2.839,2.839,0,0,0-2.807,2.821h5.553A2.717,2.717,0,0,0,257.6,7.788ZM244.25,18.8c-3.475,0-5.692-1.593-5.933-4.261H241.8c.223,1.167,1.048,1.758,2.453,1.758,1.34,0,2.173-.538,2.173-1.4,0-.708-.486-1.094-1.733-1.379l-2.234-.464c-2.527-.537-3.809-1.806-3.809-3.772,0-2.506,2.151-4.126,5.481-4.126a6.354,6.354,0,0,1,3.984,1.181,3.975,3.975,0,0,1,1.521,3.1H246.35a1.989,1.989,0,0,0-2.222-1.782c-1.245,0-2.05.561-2.05,1.428,0,.7.557,1.138,1.806,1.4l2.234.476c2.7.567,3.857,1.633,3.857,3.564C249.975,17.082,247.674,18.8,244.25,18.8Zm-70.056,0a6.319,6.319,0,0,1-4.733-1.812,7.021,7.021,0,0,1-1.713-4.952,7.271,7.271,0,0,1,1.7-5.008,6.621,6.621,0,0,1,9.141-.091,6.781,6.781,0,0,1,1.678,4.769v1.086h-9.021v.22a2.915,2.915,0,0,0,3,3.149,2.6,2.6,0,0,0,2.636-1.648h3.271a4.624,4.624,0,0,1-1.918,3.1A6.864,6.864,0,0,1,174.194,18.8Zm-.1-11.012a2.839,2.839,0,0,0-2.807,2.821h5.553A2.717,2.717,0,0,0,174.1,7.788ZM160.571,18.8a6.288,6.288,0,0,1-4.7-1.816,7.107,7.107,0,0,1-1.744-5.02,7.074,7.074,0,0,1,1.741-4.981,6.886,6.886,0,0,1,8.92-.367,5.193,5.193,0,0,1,1.7,3.687h-3.307A2.547,2.547,0,0,0,160.6,7.947a2.471,2.471,0,0,0-2.087,1.06,5.117,5.117,0,0,0-.77,2.956c0,2.53,1.073,4.041,2.869,4.041a2.458,2.458,0,0,0,2.576-2.283h3.32a5.12,5.12,0,0,1-1.744,3.7A6.317,6.317,0,0,1,160.571,18.8Zm-37.024,0c-3.475,0-5.692-1.593-5.932-4.261h3.479c.223,1.167,1.048,1.758,2.453,1.758,1.341,0,2.174-.538,2.174-1.4,0-.708-.486-1.094-1.733-1.379l-2.235-.464c-2.527-.537-3.808-1.806-3.808-3.772,0-2.506,2.151-4.126,5.481-4.126a6.354,6.354,0,0,1,3.984,1.181,3.98,3.98,0,0,1,1.521,3.1h-3.284a1.989,1.989,0,0,0-2.221-1.782c-1.246,0-2.051.561-2.051,1.428,0,.7.557,1.138,1.806,1.4l2.234.476c2.7.567,3.858,1.633,3.858,3.564C129.272,17.082,126.971,18.8,123.547,18.8Zm-41.418,0A6.352,6.352,0,0,1,77.4,16.992a7.081,7.081,0,0,1-1.758-5.029,6.979,6.979,0,0,1,1.771-4.994,7.021,7.021,0,0,1,9.421,0,6.979,6.979,0,0,1,1.771,5A7.081,7.081,0,0,1,86.853,17,6.356,6.356,0,0,1,82.129,18.8Zm0-10.926c-1.77,0-2.869,1.572-2.869,4.1,0,2.568,1.073,4.1,2.869,4.1s2.857-1.533,2.857-4.1C84.985,9.445,83.891,7.873,82.129,7.873ZM59.765,18.8a6.292,6.292,0,0,1-4.7-1.816,7.107,7.107,0,0,1-1.744-5.02,7.071,7.071,0,0,1,1.742-4.981,6.886,6.886,0,0,1,8.92-.367,5.193,5.193,0,0,1,1.7,3.687H62.377A2.546,2.546,0,0,0,59.79,7.947,2.471,2.471,0,0,0,57.7,9.007a5.117,5.117,0,0,0-.77,2.956c0,2.53,1.072,4.041,2.868,4.041a2.457,2.457,0,0,0,2.576-2.283H65.7a5.117,5.117,0,0,1-1.744,3.7A6.317,6.317,0,0,1,59.765,18.8Zm-13.88,0a6.319,6.319,0,0,1-4.733-1.812,7.024,7.024,0,0,1-1.712-4.952,7.271,7.271,0,0,1,1.7-5.008,6.031,6.031,0,0,1,4.606-1.877,6.043,6.043,0,0,1,4.535,1.786,6.781,6.781,0,0,1,1.679,4.769v1.086H42.944v.22a2.915,2.915,0,0,0,3,3.149,2.6,2.6,0,0,0,2.637-1.648h3.271a4.625,4.625,0,0,1-1.918,3.1A6.869,6.869,0,0,1,45.886,18.8Zm-.1-11.012a2.841,2.841,0,0,0-2.808,2.821h5.553A2.716,2.716,0,0,0,45.788,7.788ZM218.066,18.725c-2.539,0-4.382-1.668-4.382-3.967,0-2.353,1.808-3.757,5.09-3.955l3.3-.2V9.742c0-1.208-.821-1.929-2.2-1.929a2.136,2.136,0,0,0-2.344,1.623h-3.26A4.047,4.047,0,0,1,215.9,6.341a7.574,7.574,0,0,1,8.161.006,3.906,3.906,0,0,1,1.512,3.173v9h-3.443v-2h-.073A4.477,4.477,0,0,1,218.066,18.725Zm4-5.957-2.759.171c-1.326.1-2.087.69-2.087,1.624,0,.964.791,1.587,2.014,1.587a3.356,3.356,0,0,0,2-.683,2.253,2.253,0,0,0,.834-1.746v-.952Zm-82.214,5.957c-2.539,0-4.382-1.668-4.382-3.967,0-2.353,1.808-3.757,5.09-3.955l3.3-.2V9.742c0-1.208-.822-1.929-2.2-1.929a2.136,2.136,0,0,0-2.344,1.623h-3.259a4.047,4.047,0,0,1,1.631-3.094,7.573,7.573,0,0,1,8.16.006,3.906,3.906,0,0,1,1.512,3.173v9h-3.442v-2h-.074A4.476,4.476,0,0,1,139.855,18.725Zm4-5.957-2.759.171c-1.326.1-2.087.69-2.087,1.624,0,.964.791,1.587,2.014,1.587a2.6,2.6,0,0,0,2.832-2.429v-.952Zm-35.5,5.957c-2.539,0-4.382-1.668-4.382-3.967,0-2.353,1.808-3.757,5.09-3.955l3.3-.2V9.742c0-1.208-.821-1.929-2.2-1.929a2.136,2.136,0,0,0-2.344,1.623h-3.26A4.047,4.047,0,0,1,106.2,6.341a7.574,7.574,0,0,1,8.161.006,3.906,3.906,0,0,1,1.512,3.173v9h-3.442v-2h-.073A4.477,4.477,0,0,1,108.361,18.725Zm4-5.957-2.759.171c-1.326.1-2.087.69-2.087,1.624,0,.964.791,1.587,2.014,1.587a3.372,3.372,0,0,0,2-.683,2.253,2.253,0,0,0,.834-1.746v-.952Zm89.368,5.8c-3.075,0-4.273-1-4.273-3.577V8.118h-1.843V5.432h1.843V2.417h3.565V5.432h2.417V8.118h-2.417V14.38c0,1.008.489,1.477,1.538,1.477a5.669,5.669,0,0,0,.867-.061V18.42A11.174,11.174,0,0,1,201.733,18.567Zm-129.09,0c-3.074,0-4.272-1-4.272-3.577V8.118H66.528V5.432h1.843V2.417h3.564V5.432h2.417V8.118H71.935V14.38c0,1.008.489,1.477,1.538,1.477a5.687,5.687,0,0,0,.867-.061V18.42A11.96,11.96,0,0,1,72.644,18.567Zm113.025-.048H182.1V5.432h3.443V7.763h.073a4.129,4.129,0,0,1,4.09-2.576c2.886,0,4.54,1.784,4.54,4.9v8.435h-3.564v-7.69c0-1.757-.832-2.686-2.4-2.686a2.6,2.6,0,0,0-2.613,2.868v7.508Zm105.86,0h-3.565V5.432h3.565V18.518Zm-22.352,0h-3.564V5.432h3.442V7.788h.073a3.124,3.124,0,0,1,3.113-2.563,2.539,2.539,0,0,1,1.013.134V8.5a4.2,4.2,0,0,0-1.293-.207,2.6,2.6,0,0,0-2.784,2.917v7.312Zm-37.659,0h-3.546L227.954.9h3.564V18.518Zm-22.559,0h-3.547L205.4,5.432h3.442V7.788h.073a3.124,3.124,0,0,1,3.113-2.563,2.45,2.45,0,0,1,1.012.134V8.5a4.263,4.263,0,0,0-1.293-.207,2.6,2.6,0,0,0-2.784,2.917v7.312Zm-114.953,0H90.442V5.432h3.442V7.788h.074A3.123,3.123,0,0,1,97.07,5.225a2.319,2.319,0,0,1,1.013.134V8.5a4.387,4.387,0,0,0-1.294-.207,2.6,2.6,0,0,0-2.783,2.917v7.312Zm188.171,0h-4.028L273.62,5.432h3.821l2.722,9.936h.074l2.71-9.936h3.723l-4.493,13.085Zm-247.961,0H29.773L23.852.9h4.126l4.028,13.818h.085L36.12.9h4.017l-5.92,17.614ZM289.733,3.662a1.845,1.845,0,0,1-1.856-1.831,1.856,1.856,0,0,1,3.712,0A1.845,1.845,0,0,1,289.733,3.662Z" transform="translate(551.625 432.482)"/></g><g transform="translate(767 674)"><g transform="translate(11.193)"><path class="j" d="M20.293,0,40.586-33.588H0Z" transform="translate(5.041 39.655)"/><path class="a" d="M20.293,0,40.586-33.588H0Z" transform="translate(0.235 33.68)"/></g><g transform="translate(0 5.289)"><path class="j" d="M20.186,0,40.372-33.411H0Z" transform="translate(0 34.189)"/><path class="a" d="M10.317,0,20.635-17.077H0Z" transform="translate(10.075 17.112)"/></g></g><g transform="translate(50 288)"><g transform="translate(11.116)"><path class="j" d="M20.153,0,40.306-33.588H0Z" transform="translate(5.006 39.655)"/><path class="a" d="M20.153,0,40.306-33.588H0Z" transform="translate(0.233 33.68)"/></g><g transform="translate(0 5.289)"><path class="j" d="M20.047,0,40.094-33.411H0Z" transform="translate(0 34.189)"/><path class="a" d="M10.246,0,20.492-17.077H0Z" transform="translate(10.006 17.112)"/></g></g><path class="c" d="M40.4,19.688c-2.586,0-4.361-1.159-4.634-3.025h1.866c.2.931,1.236,1.487,2.768,1.487,1.978,0,3.158-.974,3.158-2.6V13.371h-.164a3.856,3.856,0,0,1-3.466,1.907c-2.816,0-4.635-2.169-4.635-5.527a6.231,6.231,0,0,1,1.252-4.02,4.231,4.231,0,0,1,3.383-1.537,3.942,3.942,0,0,1,3.548,1.949h.165V4.388h1.681V15.638a3.688,3.688,0,0,1-1.33,2.951A5.573,5.573,0,0,1,40.4,19.688Zm-.082-13.9c-2,0-3.2,1.483-3.2,3.968s1.2,3.968,3.2,3.968c2.024,0,3.281-1.521,3.281-3.968S42.342,5.783,40.318,5.783ZM156.8,15.638a4.763,4.763,0,0,1-3.7-1.562,6.239,6.239,0,0,1-1.376-4.2c0-3.451,1.988-5.681,5.065-5.681,2.475,0,4.295,1.4,4.635,3.578h-1.785a2.741,2.741,0,0,0-2.85-1.989c-2,0-3.24,1.568-3.24,4.091s1.272,4.173,3.24,4.173a2.672,2.672,0,0,0,2.85-1.939h1.785C161.086,14.286,159.314,15.638,156.8,15.638Zm-20.723,0a4.091,4.091,0,0,1-2.67-.888,3.064,3.064,0,0,1-1.063-2.4c0-1.953,1.431-3.115,4.03-3.271l3.189-.194V7.875c0-1.382-.865-2.112-2.5-2.112-1.337,0-2.245.5-2.491,1.374h-1.785c.234-1.761,1.978-2.943,4.338-2.943,2.672,0,4.2,1.342,4.2,3.681v7.567h-1.682v-1.63h-.164A3.819,3.819,0,0,1,136.08,15.638Zm3.486-5.333-2.974.2c-1.651.111-2.42.684-2.42,1.8,0,1.084.878,1.784,2.236,1.784a2.917,2.917,0,0,0,3.158-2.768V10.305Zm-14.13,5.333a4.66,4.66,0,0,1-3.641-1.544,6.25,6.25,0,0,1-1.342-4.167c0-3.482,1.956-5.732,4.983-5.732a4.473,4.473,0,0,1,3.518,1.49,6.135,6.135,0,0,1,1.281,4.067v.677h-7.946v.082c.093,2.2,1.315,3.568,3.189,3.568a2.879,2.879,0,0,0,2.85-1.5h1.764C129.571,14.5,127.83,15.638,125.436,15.638Zm-.02-9.885A3.138,3.138,0,0,0,122.288,9h6.089C128.337,7.029,127.175,5.753,125.416,5.753Zm-11.608,9.885c-2.446,0-4.153-1.183-4.347-3.015h1.814a2.434,2.434,0,0,0,2.595,1.528c1.5,0,2.553-.708,2.553-1.723,0-.762-.574-1.272-1.754-1.559l-1.9-.462C110.659,9.9,109.758,9,109.758,7.413c0-1.835,1.772-3.219,4.122-3.219,2.331,0,3.926,1.135,4.163,2.963H116.3a2.265,2.265,0,0,0-2.43-1.466c-1.355,0-2.338.695-2.338,1.652,0,.747.591,1.224,1.918,1.548l1.7.41c2.134.515,3.086,1.438,3.086,2.993C118.237,14.231,116.374,15.638,113.808,15.638Zm-43.763,0A4.661,4.661,0,0,1,66.4,14.093a6.243,6.243,0,0,1-1.342-4.167c0-3.482,1.956-5.732,4.983-5.732a4.473,4.473,0,0,1,3.518,1.49,6.135,6.135,0,0,1,1.281,4.067v.677H66.9v.082c.094,2.2,1.316,3.568,3.19,3.568a2.88,2.88,0,0,0,2.85-1.5H74.7C74.18,14.5,72.439,15.638,70.044,15.638Zm-.021-9.885A3.139,3.139,0,0,0,66.9,9h6.09C72.945,7.029,71.782,5.753,70.024,5.753ZM15.729,15.638A4.825,4.825,0,0,1,12,14.107a6.178,6.178,0,0,1-1.367-4.191A6.18,6.18,0,0,1,12,5.72a4.826,4.826,0,0,1,3.729-1.526A4.826,4.826,0,0,1,19.458,5.72a6.18,6.18,0,0,1,1.368,4.195,6.178,6.178,0,0,1-1.368,4.191A4.822,4.822,0,0,1,15.729,15.638Zm0-9.854c-2.079,0-3.271,1.506-3.271,4.132s1.192,4.133,3.271,4.133S19,12.542,19,9.915,17.808,5.783,15.729,5.783Zm46.337,9.741a3.468,3.468,0,0,1-2.448-.684,2.914,2.914,0,0,1-.741-2.269V5.865H57.093V4.388h1.785V1.528h1.764v2.86H63.1V5.865H60.642V12.12c0,1.3.49,1.856,1.64,1.856a6.985,6.985,0,0,0,.821-.041v1.487A6.008,6.008,0,0,1,62.067,15.524ZM165.9,15.443h-1.764V0H165.9V6.132h.164a3.429,3.429,0,0,1,3.4-1.938c2.388,0,3.814,1.53,3.814,4.091v7.156h-1.763V8.716c0-1.946-.859-2.932-2.553-2.932A2.841,2.841,0,0,0,165.9,8.9v6.542Zm-71.685,0H92.449V7.936a2.093,2.093,0,0,0-2.307-2.153,2.666,2.666,0,0,0-2.563,2.81v6.849H85.815V4.388H87.5V6.132h.165a3.142,3.142,0,0,1,3.086-1.938A3.2,3.2,0,0,1,93.8,6.132h.165A3.719,3.719,0,0,1,97.35,4.194c2.268,0,3.517,1.282,3.517,3.609v7.638H99.1V8.213c0-1.635-.762-2.43-2.328-2.43a2.474,2.474,0,0,0-2.563,2.553v7.106Zm52.142,0H144.59V4.388h1.681V6.029h.165A3.072,3.072,0,0,1,149.5,4.194a7.671,7.671,0,0,1,.882.051V6.008a7.122,7.122,0,0,0-1.128-.1,2.709,2.709,0,0,0-2.9,2.687v6.848Zm-66.979,0H77.613l0-11.054h1.682V6.029h.164a3.074,3.074,0,0,1,3.066-1.835,7.671,7.671,0,0,1,.882.051V6.008a7.327,7.327,0,0,0-1.129-.1,2.709,2.709,0,0,0-2.9,2.687v6.848Zm-48.509,0,0-6.727A3.227,3.227,0,0,0,30.224,6.5a2.475,2.475,0,0,0-1.964-.72,2.8,2.8,0,0,0-2.9,3.117v6.542H23.594V4.388h1.681V6.132h.165a3.319,3.319,0,0,1,3.322-1.938c2.493,0,3.866,1.453,3.866,4.091v7.156Zm-21.884,0H0V.646H1.846V13.781H8.982v1.66ZM55.3,10.326H48.573V8.654H55.3v1.67Z" transform="translate(1347.524 529)"/><ellipse class="c" cx="13" cy="13.5" rx="13" ry="13.5" transform="translate(1425 556.442)"/><g transform="translate(1510 600.442)"><circle class="c" cx="50" cy="50" r="50" transform="translate(-120)"/><path class="a" d="M52.281,20.043a7.078,7.078,0,0,1-5.3-2.029,7.867,7.867,0,0,1-1.918-5.546A8.146,8.146,0,0,1,46.971,6.86a6.757,6.757,0,0,1,5.16-2.1,6.764,6.764,0,0,1,5.079,2A7.6,7.6,0,0,1,59.09,12.1v1.217h-10.1v.246a3.265,3.265,0,0,0,3.363,3.528A2.914,2.914,0,0,0,55.3,15.244h3.665a5.177,5.177,0,0,1-2.148,3.476A7.68,7.68,0,0,1,52.281,20.043ZM52.172,7.711a3.18,3.18,0,0,0-3.145,3.158h6.22A3.042,3.042,0,0,0,52.172,7.711Zm29.449,12.25a5.232,5.232,0,0,1-3.5-1.232,4.229,4.229,0,0,1-1.408-3.211c0-2.636,2.025-4.21,5.7-4.43l3.692-.219V9.9c0-1.353-.92-2.16-2.462-2.16A2.392,2.392,0,0,0,81.02,9.556h-3.65A4.533,4.533,0,0,1,79.2,6.091a7.576,7.576,0,0,1,4.626-1.333A7.205,7.205,0,0,1,88.336,6.1,4.377,4.377,0,0,1,90.03,9.653V19.729H86.174V17.486h-.082A5.014,5.014,0,0,1,81.621,19.961Zm4.485-6.672-3.09.191c-1.486.11-2.338.773-2.338,1.819,0,1.08.885,1.777,2.255,1.777a3.473,3.473,0,0,0,2.237-.766,2.519,2.519,0,0,0,.935-1.955ZM25.129,19.783c-3.444,0-4.785-1.123-4.785-4.006V8.08H18.279V5.072h2.065V1.7h3.992V5.072h2.707V8.08H24.336v7.014c0,1.129.547,1.654,1.723,1.654a6.336,6.336,0,0,0,.971-.068v2.939A9.472,9.472,0,0,1,25.129,19.783Zm40-.053H61.141V5.072H65V7.683h.082A4.625,4.625,0,0,1,69.658,4.8a4.938,4.938,0,0,1,3.763,1.454,5.836,5.836,0,0,1,1.323,4.028v9.446H70.752V11.115c0-1.968-.931-3.008-2.693-3.008a2.915,2.915,0,0,0-2.926,3.213v8.409Zm-31.815,0H29.327V0H33.25V7.683h.083A4.677,4.677,0,0,1,37.94,4.8c3.2,0,5.113,2.055,5.113,5.5v9.433H39.061V11.143c0-1.958-.976-3.036-2.749-3.036a2.935,2.935,0,0,0-2.994,3.254v8.367Zm-29.08,0H0L6.85,0H11.7l6.863,19.728H14.178l-1.5-4.785H5.742l-1.5,4.785ZM9.16,3.774l-2.529,8.08h5.154l-2.53-8.08h-.1Z" transform="translate(-114.617 37.271)"/></g><path class="b" d="M19,8H73v3H19v8L0,9.5,19,0V8Z" transform="translate(1298 644.908)"/><path class="c" d="M19,8H73v3H19v8L0,9.5,19,0V8Z" transform="translate(1298 644.908)"/></g></svg>